<svg width="123" height="27" viewBox="0 0 123 27" fill="none" xmlns="http://www.w3.org/2000/svg">
<g opacity="0.3">
<path fill-rule="evenodd" clip-rule="evenodd" d="M43.5768 12.4353L45.8157 12.921L45.8051 12.9152C48.3926 13.4865 49.8759 15.1011 49.8759 17.3486C49.8759 20.01 47.5504 22.018 44.4669 22.018C40.8179 22.018 39.0894 19.7739 38.6857 17.6701C38.6315 17.3802 38.8038 17.0959 39.086 17.0099L40.3825 16.596C40.5429 16.5449 40.7176 16.5651 40.8622 16.6514C41.0068 16.7378 41.1074 16.882 41.1385 17.0476C41.3813 18.3167 42.3768 19.6713 44.443 19.6713C46.2013 19.6713 47.2925 18.8469 47.2925 17.5196C47.2925 16.4797 46.5249 15.6963 45.24 15.4261L43.1054 14.9609C40.7016 14.4375 39.2673 12.8229 39.2673 10.637C39.2673 8.09358 41.6379 5.94531 44.4464 5.94531C48.2401 5.94531 49.3587 8.43566 49.6631 9.50638C49.7497 9.80624 49.5878 10.1217 49.2937 10.2261L48.1135 10.6424C47.9596 10.6961 47.7988 10.6852 47.6551 10.6116C47.508 10.5381 47.3986 10.4047 47.3541 10.2473C47.2138 9.77389 46.5947 8.2311 44.4977 8.2311C42.9823 8.2311 41.8397 9.20193 41.8397 10.4888C41.8397 11.5014 42.4565 12.1924 43.5768 12.4353ZM59.0339 15.0599C59.0476 15.0462 59.0681 15.012 59.0613 14.9675L59.0589 14.9617C58.8656 13.7155 57.9239 12.9732 56.5395 12.9732C55.1301 12.9732 54.28 13.9727 54.0628 14.9641C54.0559 14.9969 54.0648 15.0311 54.0867 15.0564C54.1103 15.0867 54.1466 15.1043 54.1849 15.1043H58.9398C58.9763 15.1046 59.011 15.0882 59.0339 15.0599ZM56.5212 10.754C54.0172 10.754 51.4276 12.8475 51.4276 16.3538C51.4276 18.0437 51.9818 19.4873 53.032 20.5238C54.0049 21.4851 55.3342 22.0153 56.7744 22.0153C58.9192 22.0153 60.657 20.8946 61.4232 19.0186C61.4848 18.8647 61.4814 18.6937 61.415 18.5432C61.3489 18.3955 61.2244 18.282 61.0712 18.2298L60.0245 17.8672C59.734 17.7674 59.4156 17.9079 59.2934 18.1898C58.8419 19.2537 57.9935 19.7907 56.7723 19.7907C55.2945 19.7907 54.1691 18.7953 53.9741 17.313C53.9691 17.2794 53.9798 17.2454 54.0032 17.2207C54.0168 17.2036 54.0476 17.1762 54.0955 17.1762H61.0343C61.3456 17.1762 61.6056 16.9333 61.6227 16.6234C61.6295 16.5242 61.6329 16.4147 61.6329 16.3066C61.6329 12.879 59.6728 10.7502 56.5188 10.7502L56.5212 10.754ZM65.6344 16.0538C65.6344 17.9147 66.6709 19.071 68.3369 19.071L68.3365 19.0696C69.9269 19.0696 70.9962 17.8566 70.9962 16.0525C70.9962 14.2463 69.9275 13.0353 68.3369 13.0353C66.6949 13.0353 65.6344 14.2203 65.6344 16.0538ZM72.7772 11.0678H71.5218C71.1968 11.0678 70.9317 11.3322 70.9317 11.6733C70.9315 11.7226 70.9019 11.767 70.8564 11.7861C70.8325 11.7964 70.7846 11.8101 70.7415 11.769C70.095 11.1779 69.185 10.8779 68.0391 10.8779C65.1988 10.8779 63.137 13.057 63.137 16.057C63.137 19.0441 65.1988 21.2122 68.0391 21.2122C69.0892 21.2122 70.0402 20.8674 70.7176 20.2414C70.762 20.2003 70.8099 20.2106 70.8339 20.2208C70.851 20.2277 70.9091 20.2585 70.9091 20.3337V20.7647C70.9091 22.8514 69.9958 23.8247 68.0391 23.8247C66.7973 23.8247 65.8224 23.055 65.559 21.8652C65.5248 21.7113 65.4324 21.5813 65.299 21.4982C65.1656 21.415 65.0048 21.3887 64.8509 21.4229L63.618 21.7068C63.303 21.7818 63.1061 22.0952 63.1753 22.4115C63.6166 24.5735 65.572 26.0273 68.0363 26.0273C69.8733 26.0273 71.2724 25.468 72.196 24.3648C72.9589 23.4528 73.3625 22.1868 73.3625 20.7035V11.6668C73.3625 11.3418 73.0991 11.0784 72.7741 11.0784L72.7772 11.0678ZM84.4339 12.2901C85.1834 11.2953 86.3133 10.7713 87.7021 10.7713V10.7822C89.5631 10.7822 91.4411 12.0489 91.4411 14.8814V21.1175C91.4411 21.4425 91.1777 21.7072 90.8527 21.7072H89.5973C89.2723 21.7072 89.0089 21.4438 89.0089 21.1189V15.0948C89.0089 14.3149 88.7602 13.0047 87.0898 13.0047C85.8481 13.0047 84.9792 13.9591 84.9792 15.3261V21.1172C84.9792 21.4421 84.7158 21.7069 84.3908 21.7069H83.1138C82.7888 21.7069 82.5254 21.4435 82.5254 21.1185V15.0945C82.5254 14.3145 82.2757 13.0054 80.6064 13.0054C79.3304 13.0054 78.4752 13.9465 78.4752 15.3466V21.1083C78.4752 21.4332 78.2118 21.6987 77.8868 21.6987H76.6314C76.3064 21.6987 76.0416 21.4346 76.0416 21.1096V11.6579C76.0416 11.333 76.305 11.0695 76.63 11.0695H77.8225C78.1475 11.0695 78.4122 11.333 78.4122 11.6579C78.4103 11.7044 78.4377 11.747 78.4807 11.7647C78.5246 11.7855 78.577 11.7759 78.6107 11.7407C79.2907 11.1239 80.2564 10.7709 81.2611 10.7709C82.5241 10.7709 83.6088 11.3285 84.2372 12.3C84.2543 12.329 84.2856 12.3466 84.3193 12.3462C84.3647 12.3488 84.4081 12.3275 84.4339 12.2901ZM96.1888 15.1127C96.1507 15.1126 96.1146 15.0953 96.0907 15.0655C96.0696 15.0403 96.0613 15.0067 96.0681 14.9745C96.2857 13.9825 97.1354 12.9836 98.5461 12.9836C99.9302 12.9836 100.872 13.7259 101.065 14.9711C101.072 15.0156 101.051 15.0498 101.038 15.0635C101.013 15.0892 100.979 15.104 100.944 15.1045H96.1888V15.1127ZM93.4318 16.3596C93.4318 12.8546 96.0214 10.7597 98.5254 10.7597L98.5179 10.7433C101.672 10.7433 103.632 12.8745 103.632 16.3021C103.632 16.4116 103.628 16.521 103.622 16.6203C103.604 16.9305 103.345 17.1734 103.033 17.1734H96.0925C96.0447 17.1734 96.0139 17.1991 96.0002 17.2162C95.9776 17.242 95.9675 17.2766 95.9728 17.3106C96.1678 18.7932 97.2933 19.7907 98.771 19.7907C99.9923 19.7907 100.841 19.2509 101.292 18.1897C101.411 17.9085 101.733 17.7673 102.024 17.8675L103.07 18.2294C103.224 18.2841 103.347 18.3936 103.416 18.5441C103.484 18.6946 103.488 18.8657 103.426 19.0196C102.656 20.8976 100.919 22.0197 98.7772 22.0197C97.3336 22.0197 96.0063 21.4929 95.0348 20.5316C93.986 19.4941 93.4318 18.0515 93.4318 16.3596ZM111.103 10.7833C110.041 10.7833 109.11 11.1452 108.411 11.8301C108.378 11.8631 108.329 11.8726 108.286 11.854C108.242 11.8348 108.214 11.7912 108.214 11.7432V11.6679C108.214 11.343 107.949 11.0796 107.624 11.0796H106.393C106.068 11.0796 105.803 11.343 105.803 11.6679V21.1179C105.803 21.4429 106.067 21.7073 106.392 21.7073H107.667C107.992 21.7073 108.258 21.4422 108.258 21.1173V15.6005C108.258 14.3663 108.817 13.0472 110.389 13.0472C111.802 13.0472 112.519 13.8282 112.519 15.3682V21.1152C112.519 21.4402 112.782 21.7036 113.107 21.7036H114.383C114.708 21.7036 114.972 21.4368 114.972 21.1118V15.0299C114.972 12.4096 113.488 10.7813 111.103 10.7813L111.103 10.7833ZM122.406 13.3426H120.918L120.923 13.3406C120.858 13.3406 120.803 13.3939 120.803 13.4596V18.3856C120.803 19.2305 121.125 19.5452 121.983 19.5452C122.085 19.5452 122.214 19.5374 122.347 19.5237C122.514 19.5059 122.68 19.5596 122.804 19.6713C122.929 19.7831 123 19.9424 123 20.1097V21.115C123 21.3921 122.813 21.6282 122.546 21.6897C122.348 21.7342 121.939 21.8095 121.412 21.8095C119.522 21.8095 118.347 20.6122 118.347 18.6828V13.4593C118.347 13.3908 118.294 13.3395 118.227 13.3395H116.992C116.668 13.3395 116.404 13.0761 116.404 12.7511V11.6668C116.404 11.3418 116.667 11.0784 116.992 11.0784H117.181C118.279 11.0784 118.511 10.3556 118.511 9.75007V8.457C118.511 8.13203 118.775 7.86794 119.1 7.86794H120.208C120.533 7.86794 120.798 8.13203 120.798 8.457V10.959C120.798 11.0251 120.852 11.0787 120.918 11.0787H122.406C122.731 11.0787 122.994 11.3421 122.994 11.6671V12.7529C122.994 13.0775 122.731 13.3426 122.406 13.3426Z" fill="white"/>
<mask id="mask0_7697_568" style="mask-type:luminance" maskUnits="userSpaceOnUse" x="0" y="15" width="27" height="12">
<path fill-rule="evenodd" clip-rule="evenodd" d="M26.9567 26.7268H0V15.6279H26.9567V26.7268Z" fill="white"/>
</mask>
<g mask="url(#mask0_7697_568)">
<path d="M17.7629 18.3646H1.36832C0.612325 18.3646 0 17.7523 0 16.9963C0 16.2403 0.612325 15.6279 1.36832 15.6279H17.7629C18.5189 15.6279 19.1312 16.2403 19.1312 16.9963C19.1312 17.7523 18.5189 18.3646 17.7629 18.3646Z" fill="white"/>
</g>
<mask id="mask1_7697_568" style="mask-type:luminance" maskUnits="userSpaceOnUse" x="0" y="15" width="27" height="12">
<path fill-rule="evenodd" clip-rule="evenodd" d="M26.9567 26.7268H0V15.6279H26.9567V26.7268Z" fill="white"/>
</mask>
<g mask="url(#mask1_7697_568)">
<path d="M14.2478 26.7482C12.9123 26.7482 11.5933 26.5498 10.3276 26.1574C9.60582 25.9337 9.20198 25.1674 9.42549 24.4456C9.64921 23.7204 10.4175 23.3168 11.1376 23.5425C12.1406 23.8538 13.1867 24.0112 14.2478 24.0112C18.8909 24.0112 22.9223 21.0317 24.28 16.5949C24.3861 16.2479 24.6259 15.9574 24.9464 15.7873C25.2669 15.6173 25.6419 15.5817 25.9887 15.6883C26.7112 15.9073 27.1176 16.6735 26.8966 17.3953C25.1848 22.9887 20.1015 26.7482 14.2478 26.7482Z" fill="white"/>
</g>
<path d="M27.127 11.4124H10.7331C9.97707 11.4124 9.36475 10.8001 9.36475 10.0441C9.36475 9.28811 9.97707 8.67578 10.7331 8.67578H27.127C27.883 8.67578 28.4953 9.28811 28.4953 10.0441C28.4953 10.8001 27.883 11.4124 27.127 11.4124Z" fill="white"/>
<path d="M2.90801 11.4139C2.47402 11.414 2.06573 11.2082 1.80768 10.8592C1.54962 10.5103 1.47239 10.0596 1.59955 9.64469C3.31167 4.05166 8.395 0.294922 14.248 0.294922C15.5845 0.294922 16.9036 0.493329 18.1683 0.886038C18.5149 0.993439 18.8047 1.23417 18.9739 1.55526C19.1431 1.87635 19.1778 2.25149 19.0703 2.59815C18.9632 2.94503 18.7226 3.23505 18.4013 3.40423C18.0801 3.5734 17.7048 3.60781 17.3582 3.49988C16.3559 3.19201 15.3091 3.03465 14.248 3.03465C9.60596 3.03465 5.57385 6.01418 4.21613 10.451C4.03997 11.0258 3.50953 11.4184 2.90836 11.4191" fill="white"/>
<path fill-rule="evenodd" clip-rule="evenodd" d="M22.37 6.20052C23.1257 6.20052 23.7383 5.5879 23.7383 4.83219C23.7383 4.07649 23.1257 3.46387 22.37 3.46387C21.6143 3.46387 21.0017 4.07649 21.0017 4.83219C21.0017 5.5879 21.6143 6.20052 22.37 6.20052ZM6.12577 23.5838C6.88148 23.5838 7.4941 22.9712 7.4941 22.2155C7.4941 21.4598 6.88148 20.8472 6.12577 20.8472C5.37007 20.8472 4.75745 21.4598 4.75745 22.2155C4.75745 22.9712 5.37007 23.5838 6.12577 23.5838Z" fill="white"/>
</g>
</svg>
