<svg width="320" height="162" viewBox="0 0 320 162" fill="none" xmlns="http://www.w3.org/2000/svg">
<path d="M100.575 60.1293H99.0241C98.9645 59.7978 98.8535 59.5062 98.6911 59.2543C98.5286 59.0024 98.3298 58.7886 98.0945 58.6129C97.8591 58.4373 97.5956 58.3047 97.304 58.2152C97.0156 58.1257 96.709 58.081 96.3842 58.081C95.7976 58.081 95.2723 58.2285 94.8082 58.5234C94.3475 58.8184 93.983 59.2509 93.7145 59.821C93.4493 60.3911 93.3168 61.0871 93.3168 61.9091C93.3168 62.7377 93.4493 63.437 93.7145 64.0071C93.983 64.5772 94.3492 65.008 94.8132 65.2997C95.2772 65.5914 95.7992 65.7372 96.3793 65.7372C96.7008 65.7372 97.0057 65.6941 97.294 65.608C97.5857 65.5185 97.8492 65.3875 98.0845 65.2152C98.3198 65.0429 98.5187 64.8324 98.6811 64.5838C98.8468 64.3319 98.9612 64.0436 99.0241 63.7188L100.575 63.7237C100.492 64.2242 100.332 64.6849 100.093 65.1058C99.8577 65.5234 99.5545 65.8847 99.1832 66.1896C98.8153 66.4912 98.3944 66.7249 97.9205 66.8906C97.4465 67.0563 96.9295 67.1392 96.3693 67.1392C95.4877 67.1392 94.7022 66.9304 94.0128 66.5128C93.3234 66.0919 92.7798 65.4903 92.3821 64.7081C91.9877 63.9259 91.7905 62.9929 91.7905 61.9091C91.7905 60.822 91.9893 59.889 92.3871 59.1101C92.7848 58.3279 93.3284 57.728 94.0178 57.3104C94.7071 56.8894 95.491 56.679 96.3693 56.679C96.9096 56.679 97.4134 56.7569 97.8807 56.9126C98.3513 57.0651 98.7739 57.2905 99.1484 57.5888C99.523 57.8838 99.8329 58.245 100.078 58.6726C100.323 59.0968 100.489 59.5824 100.575 60.1293ZM105.511 67.1541C104.795 67.1541 104.17 66.9901 103.637 66.6619C103.103 66.3338 102.689 65.8748 102.394 65.2848C102.099 64.6948 101.951 64.0054 101.951 63.2166C101.951 62.4245 102.099 61.7318 102.394 61.1385C102.689 60.5452 103.103 60.0845 103.637 59.7564C104.17 59.4283 104.795 59.2642 105.511 59.2642C106.227 59.2642 106.852 59.4283 107.385 59.7564C107.919 60.0845 108.333 60.5452 108.628 61.1385C108.923 61.7318 109.07 62.4245 109.07 63.2166C109.07 64.0054 108.923 64.6948 108.628 65.2848C108.333 65.8748 107.919 66.3338 107.385 66.6619C106.852 66.9901 106.227 67.1541 105.511 67.1541ZM105.516 65.9062C105.98 65.9062 106.364 65.7836 106.669 65.5384C106.974 65.2931 107.2 64.9666 107.345 64.5589C107.494 64.1513 107.569 63.7022 107.569 63.2116C107.569 62.7244 107.494 62.277 107.345 61.8693C107.2 61.4583 106.974 61.1286 106.669 60.88C106.364 60.6314 105.98 60.5071 105.516 60.5071C105.048 60.5071 104.661 60.6314 104.352 60.88C104.048 61.1286 103.82 61.4583 103.671 61.8693C103.526 62.277 103.453 62.7244 103.453 63.2116C103.453 63.7022 103.526 64.1513 103.671 64.5589C103.82 64.9666 104.048 65.2931 104.352 65.5384C104.661 65.7836 105.048 65.9062 105.516 65.9062ZM112.216 62.4659V67H110.73V59.3636H112.157V60.6065H112.251C112.427 60.2022 112.702 59.8774 113.076 59.6321C113.454 59.3868 113.93 59.2642 114.503 59.2642C115.024 59.2642 115.479 59.3736 115.87 59.5923C116.261 59.8078 116.565 60.1293 116.78 60.5568C116.996 60.9844 117.103 61.513 117.103 62.1428V67H115.617V62.3217C115.617 61.7682 115.473 61.3357 115.184 61.0241C114.896 60.7093 114.5 60.5518 113.996 60.5518C113.651 60.5518 113.345 60.6264 113.076 60.7756C112.811 60.9247 112.601 61.1435 112.445 61.4318C112.292 61.7169 112.216 62.0616 112.216 62.4659ZM120.583 62.4659V67H119.097V59.3636H120.524V60.6065H120.618C120.794 60.2022 121.069 59.8774 121.444 59.6321C121.821 59.3868 122.297 59.2642 122.87 59.2642C123.391 59.2642 123.846 59.3736 124.238 59.5923C124.629 59.8078 124.932 60.1293 125.147 60.5568C125.363 60.9844 125.471 61.513 125.471 62.1428V67H123.984V62.3217C123.984 61.7682 123.84 61.3357 123.551 61.0241C123.263 60.7093 122.867 60.5518 122.363 60.5518C122.019 60.5518 121.712 60.6264 121.444 60.7756C121.178 60.9247 120.968 61.1435 120.812 61.4318C120.66 61.7169 120.583 62.0616 120.583 62.4659ZM130.755 67.1541C130.003 67.1541 129.355 66.9934 128.811 66.6719C128.271 66.3471 127.854 65.8913 127.559 65.3047C127.267 64.7147 127.121 64.0237 127.121 63.2315C127.121 62.4493 127.267 61.7599 127.559 61.1634C127.854 60.5668 128.265 60.1011 128.792 59.7663C129.322 59.4316 129.942 59.2642 130.651 59.2642C131.082 59.2642 131.499 59.3355 131.904 59.478C132.308 59.6205 132.671 59.8442 132.993 60.1491C133.314 60.4541 133.568 60.8501 133.753 61.3374C133.939 61.8213 134.032 62.4096 134.032 63.1023V63.6293H127.961V62.5156H132.575C132.575 62.1245 132.495 61.7782 132.336 61.4766C132.177 61.1716 131.953 60.9313 131.665 60.7557C131.38 60.58 131.045 60.4922 130.661 60.4922C130.243 60.4922 129.879 60.5949 129.567 60.8004C129.259 61.0026 129.02 61.2678 128.851 61.5959C128.685 61.9207 128.603 62.2737 128.603 62.6548V63.5249C128.603 64.0353 128.692 64.4695 128.871 64.8274C129.053 65.1854 129.307 65.4588 129.632 65.6477C129.957 65.8333 130.336 65.9261 130.77 65.9261C131.052 65.9261 131.309 65.8864 131.541 65.8068C131.773 65.724 131.973 65.6013 132.142 65.4389C132.311 65.2765 132.441 65.076 132.53 64.8374L133.937 65.0909C133.824 65.5052 133.622 65.8681 133.331 66.1797C133.042 66.4879 132.679 66.7282 132.242 66.9006C131.808 67.0696 131.312 67.1541 130.755 67.1541ZM138.898 67.1541C138.158 67.1541 137.522 66.9867 136.988 66.652C136.458 66.3139 136.05 65.8482 135.765 65.255C135.48 64.6617 135.338 63.9822 135.338 63.2166C135.338 62.4411 135.484 61.7566 135.775 61.1634C136.067 60.5668 136.478 60.1011 137.008 59.7663C137.539 59.4316 138.163 59.2642 138.883 59.2642C139.463 59.2642 139.98 59.3719 140.434 59.5874C140.888 59.7995 141.254 60.0978 141.532 60.4822C141.814 60.8667 141.982 61.3158 142.035 61.8295H140.588C140.508 61.4716 140.326 61.1634 140.041 60.9048C139.759 60.6463 139.381 60.517 138.907 60.517C138.493 60.517 138.13 60.6264 137.819 60.8452C137.51 61.0606 137.27 61.3688 137.098 61.7699C136.925 62.1676 136.839 62.6383 136.839 63.1818C136.839 63.7386 136.924 64.2192 137.093 64.6236C137.262 65.0279 137.501 65.3411 137.809 65.5632C138.12 65.7853 138.487 65.8963 138.907 65.8963C139.189 65.8963 139.444 65.8449 139.673 65.7422C139.905 65.6361 140.099 65.4853 140.255 65.2898C140.414 65.0942 140.525 64.8589 140.588 64.5838H142.035C141.982 65.0777 141.821 65.5185 141.552 65.9062C141.284 66.294 140.924 66.599 140.474 66.821C140.026 67.0431 139.501 67.1541 138.898 67.1541ZM147.189 59.3636V60.5568H143.018V59.3636H147.189ZM144.136 57.5341H145.623V64.7578C145.623 65.0462 145.666 65.2633 145.752 65.4091C145.838 65.5516 145.949 65.6494 146.085 65.7024C146.224 65.7521 146.375 65.777 146.538 65.777C146.657 65.777 146.761 65.7687 146.851 65.7521C146.94 65.7356 147.01 65.7223 147.06 65.7124L147.328 66.9403C147.242 66.9735 147.119 67.0066 146.96 67.0398C146.801 67.0762 146.602 67.0961 146.364 67.0994C145.973 67.1061 145.608 67.0365 145.27 66.8906C144.932 66.7448 144.658 66.5194 144.45 66.2145C144.241 65.9096 144.136 65.5268 144.136 65.0661V57.5341ZM148.833 67V59.3636H150.32V67H148.833ZM149.584 58.1854C149.325 58.1854 149.103 58.0992 148.918 57.9268C148.735 57.7512 148.644 57.5424 148.644 57.3004C148.644 57.0552 148.735 56.8464 148.918 56.674C149.103 56.4983 149.325 56.4105 149.584 56.4105C149.843 56.4105 150.063 56.4983 150.245 56.674C150.431 56.8464 150.524 57.0552 150.524 57.3004C150.524 57.5424 150.431 57.7512 150.245 57.9268C150.063 58.0992 149.843 58.1854 149.584 58.1854ZM155.536 67.1541C154.82 67.1541 154.196 66.9901 153.662 66.6619C153.128 66.3338 152.714 65.8748 152.419 65.2848C152.124 64.6948 151.977 64.0054 151.977 63.2166C151.977 62.4245 152.124 61.7318 152.419 61.1385C152.714 60.5452 153.128 60.0845 153.662 59.7564C154.196 59.4283 154.82 59.2642 155.536 59.2642C156.252 59.2642 156.877 59.4283 157.411 59.7564C157.944 60.0845 158.358 60.5452 158.653 61.1385C158.948 61.7318 159.096 62.4245 159.096 63.2166C159.096 64.0054 158.948 64.6948 158.653 65.2848C158.358 65.8748 157.944 66.3338 157.411 66.6619C156.877 66.9901 156.252 67.1541 155.536 67.1541ZM155.541 65.9062C156.005 65.9062 156.39 65.7836 156.695 65.5384C157 65.2931 157.225 64.9666 157.371 64.5589C157.52 64.1513 157.594 63.7022 157.594 63.2116C157.594 62.7244 157.52 62.277 157.371 61.8693C157.225 61.4583 157 61.1286 156.695 60.88C156.39 60.6314 156.005 60.5071 155.541 60.5071C155.074 60.5071 154.686 60.6314 154.378 60.88C154.073 61.1286 153.846 61.4583 153.697 61.8693C153.551 62.277 153.478 62.7244 153.478 63.2116C153.478 63.7022 153.551 64.1513 153.697 64.5589C153.846 64.9666 154.073 65.2931 154.378 65.5384C154.686 65.7836 155.074 65.9062 155.541 65.9062ZM162.242 62.4659V67H160.755V59.3636H162.182V60.6065H162.276C162.452 60.2022 162.727 59.8774 163.102 59.6321C163.48 59.3868 163.955 59.2642 164.529 59.2642C165.049 59.2642 165.505 59.3736 165.896 59.5923C166.287 59.8078 166.59 60.1293 166.806 60.5568C167.021 60.9844 167.129 61.513 167.129 62.1428V67H165.642V62.3217C165.642 61.7682 165.498 61.3357 165.21 61.0241C164.921 60.7093 164.525 60.5518 164.021 60.5518C163.677 60.5518 163.37 60.6264 163.102 60.7756C162.837 60.9247 162.626 61.1435 162.47 61.4318C162.318 61.7169 162.242 62.0616 162.242 62.4659ZM172.827 67V59.3636H174.264V60.5767H174.344C174.483 60.1657 174.728 59.8426 175.08 59.6072C175.434 59.3686 175.835 59.2493 176.283 59.2493C176.375 59.2493 176.485 59.2526 176.611 59.2592C176.74 59.2659 176.841 59.2741 176.914 59.2841V60.706C176.854 60.6894 176.748 60.6712 176.596 60.6513C176.443 60.6281 176.291 60.6165 176.138 60.6165C175.787 60.6165 175.474 60.6911 175.199 60.8402C174.927 60.986 174.712 61.1899 174.553 61.4517C174.393 61.7102 174.314 62.0052 174.314 62.3366V67H172.827ZM181.218 67.1541C180.466 67.1541 179.818 66.9934 179.274 66.6719C178.734 66.3471 178.316 65.8913 178.021 65.3047C177.73 64.7147 177.584 64.0237 177.584 63.2315C177.584 62.4493 177.73 61.7599 178.021 61.1634C178.316 60.5668 178.727 60.1011 179.254 59.7663C179.785 59.4316 180.405 59.2642 181.114 59.2642C181.545 59.2642 181.962 59.3355 182.367 59.478C182.771 59.6205 183.134 59.8442 183.455 60.1491C183.777 60.4541 184.03 60.8501 184.216 61.3374C184.402 61.8213 184.494 62.4096 184.494 63.1023V63.6293H178.424V62.5156H183.038C183.038 62.1245 182.958 61.7782 182.799 61.4766C182.64 61.1716 182.416 60.9313 182.128 60.7557C181.843 60.58 181.508 60.4922 181.124 60.4922C180.706 60.4922 180.342 60.5949 180.03 60.8004C179.722 61.0026 179.483 61.2678 179.314 61.5959C179.148 61.9207 179.066 62.2737 179.066 62.6548V63.5249C179.066 64.0353 179.155 64.4695 179.334 64.8274C179.516 65.1854 179.77 65.4588 180.095 65.6477C180.419 65.8333 180.799 65.9261 181.233 65.9261C181.515 65.9261 181.772 65.8864 182.004 65.8068C182.236 65.724 182.436 65.6013 182.605 65.4389C182.774 65.2765 182.904 65.076 182.993 64.8374L184.4 65.0909C184.287 65.5052 184.085 65.8681 183.794 66.1797C183.505 66.4879 183.142 66.7282 182.705 66.9006C182.271 67.0696 181.775 67.1541 181.218 67.1541ZM191.299 69.8636V65.8118H191.21C191.12 65.9742 190.991 66.1598 190.822 66.3686C190.656 66.5774 190.428 66.7597 190.136 66.9155C189.844 67.0713 189.467 67.1491 189.002 67.1491C188.386 67.1491 187.836 66.9917 187.352 66.6768C186.871 66.3587 186.493 65.9062 186.218 65.3196C185.947 64.7296 185.811 64.022 185.811 63.1967C185.811 62.3714 185.948 61.6655 186.223 61.0788C186.502 60.4922 186.883 60.0431 187.367 59.7315C187.851 59.42 188.399 59.2642 189.012 59.2642C189.486 59.2642 189.868 59.3438 190.156 59.5028C190.448 59.6586 190.673 59.8409 190.832 60.0497C190.994 60.2585 191.12 60.4425 191.21 60.6016H191.334V59.3636H192.786V69.8636H191.299ZM189.331 65.8814C189.758 65.8814 190.119 65.7687 190.414 65.5433C190.713 65.3146 190.938 64.9981 191.091 64.5938C191.246 64.1894 191.324 63.7187 191.324 63.1818C191.324 62.6515 191.248 62.1875 191.096 61.7898C190.943 61.392 190.719 61.0821 190.424 60.8601C190.129 60.638 189.765 60.527 189.331 60.527C188.883 60.527 188.51 60.643 188.212 60.875C187.914 61.107 187.688 61.4235 187.536 61.8246C187.387 62.2256 187.312 62.678 187.312 63.1818C187.312 63.6922 187.388 64.1513 187.541 64.5589C187.693 64.9666 187.919 65.2898 188.217 65.5284C188.519 65.7637 188.89 65.8814 189.331 65.8814ZM199.622 63.8331V59.3636H201.113V67H199.652V65.6776H199.572C199.396 66.0852 199.115 66.425 198.727 66.6967C198.342 66.9652 197.864 67.0994 197.29 67.0994C196.8 67.0994 196.365 66.9917 195.988 66.7763C195.613 66.5575 195.318 66.2344 195.103 65.8068C194.891 65.3793 194.784 64.8506 194.784 64.2209V59.3636H196.271V64.0419C196.271 64.5623 196.415 64.9766 196.703 65.2848C196.992 65.593 197.366 65.7472 197.827 65.7472C198.105 65.7472 198.382 65.6776 198.657 65.5384C198.936 65.3991 199.166 65.1887 199.348 64.907C199.534 64.6252 199.625 64.2673 199.622 63.8331ZM206.402 67.1541C205.649 67.1541 205.001 66.9934 204.458 66.6719C203.918 66.3471 203.5 65.8913 203.205 65.3047C202.913 64.7147 202.768 64.0237 202.768 63.2315C202.768 62.4493 202.913 61.7599 203.205 61.1634C203.5 60.5668 203.911 60.1011 204.438 59.7663C204.968 59.4316 205.588 59.2642 206.297 59.2642C206.728 59.2642 207.146 59.3355 207.55 59.478C207.955 59.6205 208.318 59.8442 208.639 60.1491C208.961 60.4541 209.214 60.8501 209.4 61.3374C209.585 61.8213 209.678 62.4096 209.678 63.1023V63.6293H203.608V62.5156H208.221C208.221 62.1245 208.142 61.7782 207.983 61.4766C207.824 61.1716 207.6 60.9313 207.312 60.7557C207.027 60.58 206.692 60.4922 206.307 60.4922C205.89 60.4922 205.525 60.5949 205.214 60.8004C204.905 61.0026 204.667 61.2678 204.498 61.5959C204.332 61.9207 204.249 62.2737 204.249 62.6548V63.5249C204.249 64.0353 204.339 64.4695 204.518 64.8274C204.7 65.1854 204.953 65.4588 205.278 65.6477C205.603 65.8333 205.983 65.9261 206.417 65.9261C206.698 65.9261 206.955 65.8864 207.187 65.8068C207.419 65.724 207.62 65.6013 207.789 65.4389C207.958 65.2765 208.087 65.076 208.177 64.8374L209.584 65.0909C209.471 65.5052 209.269 65.8681 208.977 66.1797C208.689 66.4879 208.326 66.7282 207.888 66.9006C207.454 67.0696 206.959 67.1541 206.402 67.1541ZM217.05 61.228L215.702 61.4666C215.646 61.2943 215.557 61.1302 215.434 60.9744C215.315 60.8187 215.152 60.6911 214.947 60.5916C214.741 60.4922 214.484 60.4425 214.176 60.4425C213.755 60.4425 213.404 60.5369 213.122 60.7259C212.84 60.9115 212.7 61.1518 212.7 61.4467C212.7 61.7019 212.794 61.9074 212.983 62.0632C213.172 62.219 213.477 62.3466 213.898 62.446L215.111 62.7244C215.813 62.8868 216.337 63.1371 216.682 63.4751C217.027 63.8132 217.199 64.2524 217.199 64.7926C217.199 65.25 217.066 65.6577 216.801 66.0156C216.539 66.3703 216.173 66.6487 215.702 66.8509C215.235 67.053 214.693 67.1541 214.077 67.1541C213.222 67.1541 212.524 66.9718 211.984 66.6072C211.443 66.2393 211.112 65.7173 210.989 65.0412L212.426 64.8224C212.516 65.197 212.7 65.4804 212.978 65.6726C213.256 65.8615 213.619 65.956 214.067 65.956C214.554 65.956 214.943 65.8549 215.235 65.6527C215.527 65.4472 215.673 65.197 215.673 64.902C215.673 64.6634 215.583 64.4628 215.404 64.3004C215.228 64.138 214.958 64.0154 214.594 63.9325L213.301 63.6491C212.589 63.4867 212.062 63.2282 211.72 62.8736C211.382 62.5189 211.213 62.0698 211.213 61.5263C211.213 61.0755 211.339 60.6811 211.591 60.343C211.843 60.005 212.191 59.7415 212.635 59.5526C213.079 59.3603 213.588 59.2642 214.161 59.2642C214.987 59.2642 215.636 59.4432 216.11 59.8011C216.584 60.1558 216.897 60.6314 217.05 61.228ZM222.398 59.3636V60.5568H218.227V59.3636H222.398ZM219.345 57.5341H220.832V64.7578C220.832 65.0462 220.875 65.2633 220.961 65.4091C221.047 65.5516 221.158 65.6494 221.294 65.7024C221.433 65.7521 221.584 65.777 221.747 65.777C221.866 65.777 221.97 65.7687 222.06 65.7521C222.149 65.7356 222.219 65.7223 222.269 65.7124L222.537 66.9403C222.451 66.9735 222.328 67.0066 222.169 67.0398C222.01 67.0762 221.811 67.0961 221.573 67.0994C221.182 67.1061 220.817 67.0365 220.479 66.8906C220.141 66.7448 219.867 66.5194 219.659 66.2145C219.45 65.9096 219.345 65.5268 219.345 65.0661V57.5341Z" fill="white"/>
<path d="M235.696 113H234.298L237.439 104.273H238.96L242.101 113H240.703L238.236 105.858H238.168L235.696 113ZM235.93 109.582H240.464V110.69H235.93V109.582ZM245.911 113.132C245.277 113.132 244.732 112.989 244.274 112.702C243.82 112.412 243.47 112.013 243.226 111.504C242.982 110.996 242.859 110.413 242.859 109.757C242.859 109.092 242.984 108.506 243.234 107.997C243.484 107.486 243.837 107.087 244.291 106.8C244.746 106.513 245.281 106.369 245.898 106.369C246.395 106.369 246.838 106.462 247.227 106.646C247.616 106.828 247.93 107.084 248.169 107.413C248.411 107.743 248.554 108.128 248.599 108.568H247.359C247.291 108.261 247.135 107.997 246.891 107.776C246.649 107.554 246.325 107.443 245.919 107.443C245.564 107.443 245.253 107.537 244.986 107.724C244.722 107.909 244.516 108.173 244.368 108.517C244.22 108.858 244.146 109.261 244.146 109.727C244.146 110.205 244.219 110.616 244.364 110.963C244.509 111.31 244.713 111.578 244.977 111.768C245.244 111.959 245.558 112.054 245.919 112.054C246.161 112.054 246.379 112.01 246.575 111.922C246.774 111.831 246.94 111.702 247.074 111.534C247.21 111.366 247.305 111.165 247.359 110.929H248.599C248.554 111.352 248.416 111.73 248.186 112.062C247.956 112.395 247.648 112.656 247.261 112.847C246.878 113.037 246.428 113.132 245.911 113.132ZM252.719 113.132C252.086 113.132 251.54 112.989 251.083 112.702C250.628 112.412 250.279 112.013 250.034 111.504C249.79 110.996 249.668 110.413 249.668 109.757C249.668 109.092 249.793 108.506 250.043 107.997C250.293 107.486 250.645 107.087 251.1 106.8C251.554 106.513 252.09 106.369 252.706 106.369C253.203 106.369 253.647 106.462 254.036 106.646C254.425 106.828 254.739 107.084 254.978 107.413C255.219 107.743 255.363 108.128 255.408 108.568H254.168C254.1 108.261 253.944 107.997 253.699 107.776C253.458 107.554 253.134 107.443 252.728 107.443C252.373 107.443 252.061 107.537 251.794 107.724C251.53 107.909 251.324 108.173 251.176 108.517C251.029 108.858 250.955 109.261 250.955 109.727C250.955 110.205 251.027 110.616 251.172 110.963C251.317 111.31 251.522 111.578 251.786 111.768C252.053 111.959 252.367 112.054 252.728 112.054C252.969 112.054 253.188 112.01 253.384 111.922C253.583 111.831 253.749 111.702 253.882 111.534C254.019 111.366 254.114 111.165 254.168 110.929H255.408C255.363 111.352 255.225 111.73 254.995 112.062C254.765 112.395 254.456 112.656 254.07 112.847C253.686 113.037 253.236 113.132 252.719 113.132ZM259.592 113.132C258.947 113.132 258.391 112.994 257.925 112.719C257.462 112.44 257.104 112.05 256.852 111.547C256.602 111.041 256.477 110.449 256.477 109.77C256.477 109.099 256.602 108.509 256.852 107.997C257.104 107.486 257.457 107.087 257.908 106.8C258.363 106.513 258.894 106.369 259.502 106.369C259.871 106.369 260.229 106.43 260.576 106.553C260.923 106.675 261.234 106.866 261.509 107.128C261.785 107.389 262.002 107.729 262.161 108.146C262.32 108.561 262.4 109.065 262.4 109.659V110.111H257.197V109.156H261.151C261.151 108.821 261.083 108.524 260.947 108.266C260.81 108.004 260.619 107.798 260.371 107.648C260.127 107.497 259.84 107.422 259.511 107.422C259.153 107.422 258.84 107.51 258.573 107.686C258.309 107.859 258.104 108.087 257.96 108.368C257.817 108.646 257.746 108.949 257.746 109.276V110.021C257.746 110.459 257.823 110.831 257.977 111.138C258.133 111.445 258.35 111.679 258.629 111.841C258.907 112 259.232 112.08 259.604 112.08C259.846 112.08 260.066 112.045 260.265 111.977C260.464 111.906 260.636 111.801 260.781 111.662C260.925 111.523 261.036 111.351 261.113 111.146L262.319 111.364C262.222 111.719 262.049 112.03 261.799 112.297C261.552 112.561 261.241 112.767 260.866 112.915C260.494 113.06 260.069 113.132 259.592 113.132ZM263.814 115.455V106.455H265.058V107.516H265.164C265.238 107.379 265.345 107.222 265.484 107.043C265.623 106.864 265.816 106.707 266.064 106.574C266.311 106.438 266.637 106.369 267.044 106.369C267.572 106.369 268.044 106.503 268.458 106.77C268.873 107.037 269.199 107.422 269.434 107.925C269.673 108.428 269.792 109.033 269.792 109.74C269.792 110.447 269.674 111.054 269.439 111.56C269.203 112.062 268.879 112.45 268.467 112.723C268.055 112.993 267.585 113.128 267.056 113.128C266.659 113.128 266.333 113.061 266.081 112.928C265.831 112.794 265.635 112.638 265.493 112.459C265.35 112.28 265.241 112.121 265.164 111.982H265.088V115.455H263.814ZM265.062 109.727C265.062 110.187 265.129 110.591 265.262 110.938C265.396 111.284 265.589 111.555 265.842 111.751C266.095 111.945 266.404 112.041 266.771 112.041C267.152 112.041 267.47 111.94 267.725 111.739C267.981 111.534 268.174 111.257 268.305 110.908C268.439 110.558 268.505 110.165 268.505 109.727C268.505 109.295 268.44 108.908 268.309 108.564C268.181 108.22 267.988 107.949 267.73 107.75C267.474 107.551 267.154 107.452 266.771 107.452C266.402 107.452 266.089 107.547 265.833 107.737C265.581 107.928 265.389 108.193 265.258 108.534C265.127 108.875 265.062 109.273 265.062 109.727ZM274.275 106.455V107.477H270.7V106.455H274.275ZM271.659 104.886H272.933V111.078C272.933 111.325 272.97 111.511 273.044 111.636C273.118 111.759 273.213 111.842 273.329 111.888C273.449 111.93 273.578 111.952 273.717 111.952C273.819 111.952 273.909 111.945 273.985 111.93C274.062 111.916 274.122 111.905 274.164 111.896L274.395 112.949C274.321 112.977 274.216 113.006 274.079 113.034C273.943 113.065 273.772 113.082 273.568 113.085C273.233 113.091 272.92 113.031 272.63 112.906C272.341 112.781 272.106 112.588 271.927 112.327C271.748 112.065 271.659 111.737 271.659 111.342V104.886ZM278.435 113.132C277.79 113.132 277.235 112.994 276.769 112.719C276.306 112.44 275.948 112.05 275.695 111.547C275.445 111.041 275.32 110.449 275.32 109.77C275.32 109.099 275.445 108.509 275.695 107.997C275.948 107.486 276.3 107.087 276.752 106.8C277.207 106.513 277.738 106.369 278.346 106.369C278.715 106.369 279.073 106.43 279.42 106.553C279.766 106.675 280.077 106.866 280.353 107.128C280.629 107.389 280.846 107.729 281.005 108.146C281.164 108.561 281.244 109.065 281.244 109.659V110.111H276.04V109.156H279.995C279.995 108.821 279.927 108.524 279.79 108.266C279.654 108.004 279.462 107.798 279.215 107.648C278.971 107.497 278.684 107.422 278.354 107.422C277.996 107.422 277.684 107.51 277.417 107.686C277.153 107.859 276.948 108.087 276.803 108.368C276.661 108.646 276.59 108.949 276.59 109.276V110.021C276.59 110.459 276.667 110.831 276.82 111.138C276.977 111.445 277.194 111.679 277.472 111.841C277.751 112 278.076 112.08 278.448 112.08C278.69 112.08 278.91 112.045 279.109 111.977C279.308 111.906 279.479 111.801 279.624 111.662C279.769 111.523 279.88 111.351 279.957 111.146L281.163 111.364C281.066 111.719 280.893 112.03 280.643 112.297C280.396 112.561 280.085 112.767 279.71 112.915C279.337 113.06 278.913 113.132 278.435 113.132ZM285.108 113.128C284.579 113.128 284.108 112.993 283.693 112.723C283.281 112.45 282.957 112.062 282.721 111.56C282.488 111.054 282.372 110.447 282.372 109.74C282.372 109.033 282.49 108.428 282.725 107.925C282.964 107.422 283.291 107.037 283.706 106.77C284.12 106.503 284.591 106.369 285.116 106.369C285.522 106.369 285.849 106.438 286.096 106.574C286.346 106.707 286.539 106.864 286.676 107.043C286.815 107.222 286.923 107.379 287 107.516H287.076V104.273H288.35V113H287.106V111.982H287C286.923 112.121 286.812 112.28 286.667 112.459C286.525 112.638 286.329 112.794 286.079 112.928C285.829 113.061 285.505 113.128 285.108 113.128ZM285.389 112.041C285.755 112.041 286.065 111.945 286.318 111.751C286.574 111.555 286.767 111.284 286.897 110.938C287.031 110.591 287.098 110.187 287.098 109.727C287.098 109.273 287.032 108.875 286.902 108.534C286.771 108.193 286.579 107.928 286.326 107.737C286.074 107.547 285.761 107.452 285.389 107.452C285.005 107.452 284.686 107.551 284.43 107.75C284.174 107.949 283.981 108.22 283.85 108.564C283.723 108.908 283.659 109.295 283.659 109.727C283.659 110.165 283.724 110.558 283.855 110.908C283.985 111.257 284.179 111.534 284.434 111.739C284.693 111.94 285.011 112.041 285.389 112.041Z" fill="white"/>
<path d="M209 110.111L213.923 115L225 104" stroke="#42BDAC" stroke-width="2" stroke-linecap="round" stroke-linejoin="round"/>
<path d="M46.0028 104.273V113H44.7926L40.3565 106.599H40.2756V113H38.9588V104.273H40.1776L44.6179 110.682H44.6989V104.273H46.0028ZM50.5785 113.132C49.9648 113.132 49.4293 112.991 48.9719 112.71C48.5146 112.429 48.1594 112.036 47.9066 111.53C47.6538 111.024 47.5273 110.433 47.5273 109.757C47.5273 109.078 47.6538 108.484 47.9066 107.976C48.1594 107.467 48.5146 107.072 48.9719 106.791C49.4293 106.51 49.9648 106.369 50.5785 106.369C51.1921 106.369 51.7276 106.51 52.185 106.791C52.6424 107.072 52.9975 107.467 53.2504 107.976C53.5032 108.484 53.6296 109.078 53.6296 109.757C53.6296 110.433 53.5032 111.024 53.2504 111.53C52.9975 112.036 52.6424 112.429 52.185 112.71C51.7276 112.991 51.1921 113.132 50.5785 113.132ZM50.5827 112.062C50.9805 112.062 51.31 111.957 51.5714 111.747C51.8327 111.537 52.0259 111.257 52.1509 110.908C52.2788 110.558 52.3427 110.173 52.3427 109.753C52.3427 109.335 52.2788 108.952 52.1509 108.602C52.0259 108.25 51.8327 107.967 51.5714 107.754C51.31 107.541 50.9805 107.435 50.5827 107.435C50.1822 107.435 49.8498 107.541 49.5856 107.754C49.3242 107.967 49.1296 108.25 49.0018 108.602C48.8768 108.952 48.8143 109.335 48.8143 109.753C48.8143 110.173 48.8768 110.558 49.0018 110.908C49.1296 111.257 49.3242 111.537 49.5856 111.747C49.8498 111.957 50.1822 112.062 50.5827 112.062ZM58.1072 106.455V107.477H54.532V106.455H58.1072ZM55.4908 104.886H56.7649V111.078C56.7649 111.325 56.8018 111.511 56.8757 111.636C56.9496 111.759 57.0447 111.842 57.1612 111.888C57.2805 111.93 57.4098 111.952 57.549 111.952C57.6513 111.952 57.7408 111.945 57.8175 111.93C57.8942 111.916 57.9538 111.905 57.9964 111.896L58.2266 112.949C58.1527 112.977 58.0476 113.006 57.9112 113.034C57.7749 113.065 57.6044 113.082 57.3999 113.085C57.0646 113.091 56.7521 113.031 56.4624 112.906C56.1726 112.781 55.9382 112.588 55.7592 112.327C55.5803 112.065 55.4908 111.737 55.4908 111.342V104.886ZM64.5973 113.145C64.1825 113.145 63.8075 113.068 63.4723 112.915C63.1371 112.759 62.8714 112.533 62.6754 112.237C62.4822 111.942 62.3857 111.58 62.3857 111.151C62.3857 110.781 62.4567 110.477 62.5987 110.239C62.7408 110 62.9325 109.811 63.174 109.672C63.4155 109.533 63.6854 109.428 63.9837 109.357C64.282 109.286 64.5859 109.232 64.8956 109.195C65.2876 109.149 65.6058 109.112 65.8501 109.084C66.0945 109.053 66.272 109.003 66.3828 108.935C66.4936 108.866 66.549 108.756 66.549 108.602V108.572C66.549 108.2 66.4439 107.912 66.2337 107.707C66.0263 107.503 65.7166 107.401 65.3047 107.401C64.8757 107.401 64.5376 107.496 64.2905 107.686C64.0462 107.874 63.8771 108.082 63.7834 108.312L62.5859 108.04C62.728 107.642 62.9354 107.321 63.2081 107.077C63.4837 106.83 63.8004 106.651 64.1584 106.54C64.5163 106.426 64.8928 106.369 65.2876 106.369C65.549 106.369 65.826 106.401 66.1186 106.463C66.4141 106.523 66.6896 106.634 66.9453 106.795C67.2038 106.957 67.4155 107.189 67.5803 107.49C67.745 107.788 67.8274 108.176 67.8274 108.653V113H66.5831V112.105H66.532C66.4496 112.27 66.326 112.432 66.1612 112.591C65.9964 112.75 65.7848 112.882 65.5263 112.987C65.2678 113.092 64.9581 113.145 64.5973 113.145ZM64.8743 112.122C65.2266 112.122 65.5277 112.053 65.7777 111.913C66.0305 111.774 66.2223 111.592 66.353 111.368C66.4865 111.141 66.5533 110.898 66.5533 110.639V109.795C66.5078 109.841 66.4197 109.884 66.2891 109.923C66.1612 109.96 66.0149 109.993 65.8501 110.021C65.6854 110.047 65.5249 110.071 65.3686 110.094C65.2124 110.114 65.0817 110.131 64.9766 110.145C64.7294 110.176 64.5036 110.229 64.299 110.303C64.0973 110.376 63.9354 110.483 63.8132 110.622C63.6939 110.759 63.6342 110.94 63.6342 111.168C63.6342 111.483 63.7507 111.722 63.9837 111.884C64.2166 112.043 64.5135 112.122 64.8743 112.122ZM72.2816 113.132C71.6481 113.132 71.1026 112.989 70.6452 112.702C70.1907 112.412 69.8413 112.013 69.5969 111.504C69.3526 110.996 69.2305 110.413 69.2305 109.757C69.2305 109.092 69.3555 108.506 69.6055 107.997C69.8555 107.486 70.2077 107.087 70.6623 106.8C71.1168 106.513 71.6523 106.369 72.2688 106.369C72.766 106.369 73.2092 106.462 73.5984 106.646C73.9876 106.828 74.3015 107.084 74.5401 107.413C74.7816 107.743 74.9251 108.128 74.9705 108.568H73.7305C73.6623 108.261 73.506 107.997 73.2617 107.776C73.0202 107.554 72.6964 107.443 72.2901 107.443C71.935 107.443 71.6239 107.537 71.3569 107.724C71.0927 107.909 70.8867 108.173 70.739 108.517C70.5913 108.858 70.5174 109.261 70.5174 109.727C70.5174 110.205 70.5898 110.616 70.7347 110.963C70.8796 111.31 71.0842 111.578 71.3484 111.768C71.6154 111.959 71.9293 112.054 72.2901 112.054C72.5316 112.054 72.7504 112.01 72.9464 111.922C73.1452 111.831 73.3114 111.702 73.445 111.534C73.5813 111.366 73.6765 111.165 73.7305 110.929H74.9705C74.9251 111.352 74.7873 111.73 74.5572 112.062C74.3271 112.395 74.0188 112.656 73.6325 112.847C73.2489 113.037 72.7987 113.132 72.2816 113.132ZM79.0902 113.132C78.4567 113.132 77.9112 112.989 77.4538 112.702C76.9993 112.412 76.6499 112.013 76.4055 111.504C76.1612 110.996 76.0391 110.413 76.0391 109.757C76.0391 109.092 76.1641 108.506 76.4141 107.997C76.6641 107.486 77.0163 107.087 77.4709 106.8C77.9254 106.513 78.4609 106.369 79.0774 106.369C79.5746 106.369 80.0178 106.462 80.407 106.646C80.7962 106.828 81.1101 107.084 81.3487 107.413C81.5902 107.743 81.7337 108.128 81.7791 108.568H80.5391C80.4709 108.261 80.3146 107.997 80.0703 107.776C79.8288 107.554 79.505 107.443 79.0987 107.443C78.7436 107.443 78.4325 107.537 78.1655 107.724C77.9013 107.909 77.6953 108.173 77.5476 108.517C77.3999 108.858 77.326 109.261 77.326 109.727C77.326 110.205 77.3984 110.616 77.5433 110.963C77.6882 111.31 77.8928 111.578 78.157 111.768C78.424 111.959 78.7379 112.054 79.0987 112.054C79.3402 112.054 79.5589 112.01 79.755 111.922C79.9538 111.831 80.12 111.702 80.2536 111.534C80.3899 111.366 80.4851 111.165 80.5391 110.929H81.7791C81.7337 111.352 81.5959 111.73 81.3658 112.062C81.1357 112.395 80.8274 112.656 80.4411 112.847C80.0575 113.037 79.6072 113.132 79.0902 113.132ZM85.9627 113.132C85.3178 113.132 84.7624 112.994 84.2965 112.719C83.8335 112.44 83.4755 112.05 83.2227 111.547C82.9727 111.041 82.8477 110.449 82.8477 109.77C82.8477 109.099 82.9727 108.509 83.2227 107.997C83.4755 107.486 83.8278 107.087 84.2795 106.8C84.734 106.513 85.2653 106.369 85.8732 106.369C86.2425 106.369 86.6005 106.43 86.9471 106.553C87.2937 106.675 87.6048 106.866 87.8803 107.128C88.1559 107.389 88.3732 107.729 88.5323 108.146C88.6914 108.561 88.771 109.065 88.771 109.659V110.111H83.5678V109.156H87.5224C87.5224 108.821 87.4542 108.524 87.3178 108.266C87.1815 108.004 86.9897 107.798 86.7425 107.648C86.4982 107.497 86.2113 107.422 85.8817 107.422C85.5238 107.422 85.2113 107.51 84.9442 107.686C84.68 107.859 84.4755 108.087 84.3306 108.368C84.1886 108.646 84.1175 108.949 84.1175 109.276V110.021C84.1175 110.459 84.1942 110.831 84.3477 111.138C84.5039 111.445 84.7212 111.679 84.9996 111.841C85.2781 112 85.6033 112.08 85.9755 112.08C86.217 112.08 86.4371 112.045 86.636 111.977C86.8349 111.906 87.0067 111.801 87.1516 111.662C87.2965 111.523 87.4073 111.351 87.484 111.146L88.69 111.364C88.5934 111.719 88.4201 112.03 88.1701 112.297C87.9229 112.561 87.6119 112.767 87.2369 112.915C86.8647 113.06 86.44 113.132 85.9627 113.132ZM90.1847 115.455V106.455H91.429V107.516H91.5355C91.6094 107.379 91.7159 107.222 91.8551 107.043C91.9943 106.864 92.1875 106.707 92.4347 106.574C92.6818 106.438 93.0085 106.369 93.4148 106.369C93.9432 106.369 94.4148 106.503 94.8295 106.77C95.2443 107.037 95.5696 107.422 95.8054 107.925C96.044 108.428 96.1634 109.033 96.1634 109.74C96.1634 110.447 96.0455 111.054 95.8097 111.56C95.5739 112.062 95.25 112.45 94.8381 112.723C94.4261 112.993 93.956 113.128 93.4276 113.128C93.0298 113.128 92.7045 113.061 92.4517 112.928C92.2017 112.794 92.0057 112.638 91.8636 112.459C91.7216 112.28 91.6122 112.121 91.5355 111.982H91.4588V115.455H90.1847ZM91.4332 109.727C91.4332 110.187 91.5 110.591 91.6335 110.938C91.767 111.284 91.9602 111.555 92.2131 111.751C92.4659 111.945 92.7756 112.041 93.142 112.041C93.5227 112.041 93.8409 111.94 94.0966 111.739C94.3523 111.534 94.5455 111.257 94.6761 110.908C94.8097 110.558 94.8764 110.165 94.8764 109.727C94.8764 109.295 94.8111 108.908 94.6804 108.564C94.5526 108.22 94.3594 107.949 94.1009 107.75C93.8452 107.551 93.5256 107.452 93.142 107.452C92.7727 107.452 92.4602 107.547 92.2045 107.737C91.9517 107.928 91.7599 108.193 91.6293 108.534C91.4986 108.875 91.4332 109.273 91.4332 109.727ZM100.646 106.455V107.477H97.071V106.455H100.646ZM98.0298 104.886H99.304V111.078C99.304 111.325 99.3409 111.511 99.4148 111.636C99.4886 111.759 99.5838 111.842 99.7003 111.888C99.8196 111.93 99.9489 111.952 100.088 111.952C100.19 111.952 100.28 111.945 100.357 111.93C100.433 111.916 100.493 111.905 100.536 111.896L100.766 112.949C100.692 112.977 100.587 113.006 100.45 113.034C100.314 113.065 100.143 113.082 99.9389 113.085C99.6037 113.091 99.2912 113.031 99.0014 112.906C98.7116 112.781 98.4773 112.588 98.2983 112.327C98.1193 112.065 98.0298 111.737 98.0298 111.342V104.886ZM104.806 113.132C104.162 113.132 103.606 112.994 103.14 112.719C102.677 112.44 102.319 112.05 102.066 111.547C101.816 111.041 101.691 110.449 101.691 109.77C101.691 109.099 101.816 108.509 102.066 107.997C102.319 107.486 102.672 107.087 103.123 106.8C103.578 106.513 104.109 106.369 104.717 106.369C105.086 106.369 105.444 106.43 105.791 106.553C106.137 106.675 106.449 106.866 106.724 107.128C107 107.389 107.217 107.729 107.376 108.146C107.535 108.561 107.615 109.065 107.615 109.659V110.111H102.412V109.156H106.366C106.366 108.821 106.298 108.524 106.162 108.266C106.025 108.004 105.833 107.798 105.586 107.648C105.342 107.497 105.055 107.422 104.725 107.422C104.368 107.422 104.055 107.51 103.788 107.686C103.524 107.859 103.319 108.087 103.174 108.368C103.032 108.646 102.961 108.949 102.961 109.276V110.021C102.961 110.459 103.038 110.831 103.191 111.138C103.348 111.445 103.565 111.679 103.843 111.841C104.122 112 104.447 112.08 104.819 112.08C105.061 112.08 105.281 112.045 105.48 111.977C105.679 111.906 105.85 111.801 105.995 111.662C106.14 111.523 106.251 111.351 106.328 111.146L107.534 111.364C107.437 111.719 107.264 112.03 107.014 112.297C106.767 112.561 106.456 112.767 106.081 112.915C105.708 113.06 105.284 113.132 104.806 113.132ZM111.479 113.128C110.95 113.128 110.479 112.993 110.064 112.723C109.652 112.45 109.328 112.062 109.092 111.56C108.859 111.054 108.743 110.447 108.743 109.74C108.743 109.033 108.861 108.428 109.097 107.925C109.335 107.422 109.662 107.037 110.077 106.77C110.491 106.503 110.962 106.369 111.487 106.369C111.893 106.369 112.22 106.438 112.467 106.574C112.717 106.707 112.911 106.864 113.047 107.043C113.186 107.222 113.294 107.379 113.371 107.516H113.447V104.273H114.722V113H113.477V111.982H113.371C113.294 112.121 113.183 112.28 113.038 112.459C112.896 112.638 112.7 112.794 112.45 112.928C112.2 113.061 111.876 113.128 111.479 113.128ZM111.76 112.041C112.126 112.041 112.436 111.945 112.689 111.751C112.945 111.555 113.138 111.284 113.268 110.938C113.402 110.591 113.469 110.187 113.469 109.727C113.469 109.273 113.403 108.875 113.273 108.534C113.142 108.193 112.95 107.928 112.697 107.737C112.445 107.547 112.132 107.452 111.76 107.452C111.376 107.452 111.057 107.551 110.801 107.75C110.545 107.949 110.352 108.22 110.222 108.564C110.094 108.908 110.03 109.295 110.03 109.727C110.03 110.165 110.095 110.558 110.226 110.908C110.357 111.257 110.55 111.534 110.805 111.739C111.064 111.94 111.382 112.041 111.76 112.041Z" fill="white"/>
<path fill-rule="evenodd" clip-rule="evenodd" d="M26.991 114.284L15.716 103.009C17.127 101.763 18.973 101 21 101C25.411 101 29 104.589 29 109C29 111.026 28.237 112.873 26.991 114.284ZM13 109C13 106.973 13.762 105.127 15.009 103.716L26.284 114.991C24.873 116.237 23.026 117 21 117C16.589 117 13 113.411 13 109ZM21 100C16.029 100 12 104.029 12 109C12 113.971 16.029 118 21 118C25.97 118 30 113.971 30 109C30 104.029 25.97 100 21 100Z" fill="#42BDAC" stroke="#42BDAC" stroke-width="0.5"/>
<g filter="url(#filter0_d_9901_89)">
<path d="M232 63H240C245.523 63 250 67.4772 250 73V90.5" stroke="#42BDAC" stroke-width="1.7" stroke-linecap="round"/>
</g>
<g filter="url(#filter1_d_9901_89)">
<path d="M82 63H74C68.4772 63 64 67.4772 64 73V90.5" stroke="#42BDAC" stroke-width="1.7" stroke-linecap="round"/>
</g>
<rect width="320" height="39" rx="6" fill="#1C434B" fill-opacity="0.8"/>
<path d="M63.9787 24H62.348L66.0121 13.8182H67.7869L71.451 24H69.8203L66.9418 15.6676H66.8622L63.9787 24ZM64.2521 20.0128H69.5419V21.3054H64.2521V20.0128ZM75.8956 24.1541C75.1565 24.1541 74.5201 23.9867 73.9865 23.652C73.4562 23.3139 73.0485 22.8482 72.7635 22.255C72.4785 21.6617 72.3359 20.9822 72.3359 20.2166C72.3359 19.4411 72.4818 18.7566 72.7734 18.1634C73.0651 17.5668 73.4761 17.1011 74.0064 16.7663C74.5367 16.4316 75.1615 16.2642 75.8807 16.2642C76.4607 16.2642 76.9777 16.3719 77.4318 16.5874C77.8859 16.7995 78.2521 17.0978 78.5305 17.4822C78.8123 17.8667 78.9796 18.3158 79.0327 18.8295H77.5859C77.5064 18.4716 77.3241 18.1634 77.0391 17.9048C76.7573 17.6463 76.3795 17.517 75.9055 17.517C75.4912 17.517 75.1283 17.6264 74.8168 17.8452C74.5085 18.0606 74.2682 18.3688 74.0959 18.7699C73.9235 19.1676 73.8374 19.6383 73.8374 20.1818C73.8374 20.7386 73.9219 21.2192 74.0909 21.6236C74.2599 22.0279 74.4986 22.3411 74.8068 22.5632C75.1184 22.7853 75.4846 22.8963 75.9055 22.8963C76.1873 22.8963 76.4425 22.8449 76.6712 22.7422C76.9032 22.6361 77.0971 22.4853 77.2528 22.2898C77.4119 22.0942 77.523 21.8589 77.5859 21.5838H79.0327C78.9796 22.0777 78.8189 22.5185 78.5504 22.9062C78.282 23.294 77.9223 23.599 77.4716 23.821C77.0241 24.0431 76.4988 24.1541 75.8956 24.1541ZM84.187 16.3636V17.5568H80.0158V16.3636H84.187ZM81.1344 14.5341H82.6209V21.7578C82.6209 22.0462 82.664 22.2633 82.7502 22.4091C82.8364 22.5516 82.9474 22.6494 83.0833 22.7024C83.2225 22.7521 83.3733 22.777 83.5357 22.777C83.655 22.777 83.7594 22.7687 83.8489 22.7521C83.9384 22.7356 84.008 22.7223 84.0577 22.7124L84.3262 23.9403C84.24 23.9735 84.1174 24.0066 83.9583 24.0398C83.7992 24.0762 83.6003 24.0961 83.3617 24.0994C82.9706 24.1061 82.606 24.0365 82.2679 23.8906C81.9299 23.7448 81.6564 23.5194 81.4476 23.2145C81.2388 22.9096 81.1344 22.5268 81.1344 22.0661V14.5341ZM85.8313 24V16.3636H87.3178V24H85.8313ZM86.582 15.1854C86.3235 15.1854 86.1014 15.0992 85.9158 14.9268C85.7335 14.7512 85.6424 14.5424 85.6424 14.3004C85.6424 14.0552 85.7335 13.8464 85.9158 13.674C86.1014 13.4983 86.3235 13.4105 86.582 13.4105C86.8406 13.4105 87.061 13.4983 87.2433 13.674C87.4289 13.8464 87.5217 14.0552 87.5217 14.3004C87.5217 14.5424 87.4289 14.7512 87.2433 14.9268C87.061 15.0992 86.8406 15.1854 86.582 15.1854ZM95.8503 16.3636L93.0811 24H91.4902L88.7161 16.3636H90.312L92.2459 22.2401H92.3255L94.2544 16.3636H95.8503ZM100.279 24.1541C99.5264 24.1541 98.8784 23.9934 98.3349 23.6719C97.7946 23.3471 97.377 22.8913 97.082 22.3047C96.7904 21.7147 96.6445 21.0237 96.6445 20.2315C96.6445 19.4493 96.7904 18.7599 97.082 18.1634C97.377 17.5668 97.788 17.1011 98.315 16.7663C98.8453 16.4316 99.4651 16.2642 100.174 16.2642C100.605 16.2642 101.023 16.3355 101.427 16.478C101.832 16.6205 102.194 16.8442 102.516 17.1491C102.837 17.4541 103.091 17.8501 103.277 18.3374C103.462 18.8213 103.555 19.4096 103.555 20.1023V20.6293H97.4847V19.5156H102.098C102.098 19.1245 102.019 18.7782 101.86 18.4766C101.701 18.1716 101.477 17.9313 101.189 17.7557C100.904 17.58 100.569 17.4922 100.184 17.4922C99.7667 17.4922 99.4021 17.5949 99.0906 17.8004C98.7823 18.0026 98.5437 18.2678 98.3746 18.5959C98.2089 18.9207 98.1261 19.2737 98.1261 19.6548V20.5249C98.1261 21.0353 98.2156 21.4695 98.3945 21.8274C98.5768 22.1854 98.8304 22.4588 99.1552 22.6477C99.48 22.8333 99.8595 22.9261 100.294 22.9261C100.575 22.9261 100.832 22.8864 101.064 22.8068C101.296 22.724 101.497 22.6013 101.666 22.4389C101.835 22.2765 101.964 22.076 102.054 21.8374L103.461 22.0909C103.348 22.5052 103.146 22.8681 102.854 23.1797C102.566 23.4879 102.203 23.7282 101.765 23.9006C101.331 24.0696 100.836 24.1541 100.279 24.1541ZM109.029 24V13.8182H110.565V22.6776H115.179V24H109.029ZM116.812 24V16.3636H118.298V24H116.812ZM117.562 15.1854C117.304 15.1854 117.082 15.0992 116.896 14.9268C116.714 14.7512 116.623 14.5424 116.623 14.3004C116.623 14.0552 116.714 13.8464 116.896 13.674C117.082 13.4983 117.304 13.4105 117.562 13.4105C117.821 13.4105 118.041 13.4983 118.224 13.674C118.409 13.8464 118.502 14.0552 118.502 14.3004C118.502 14.5424 118.409 14.7512 118.224 14.9268C118.041 15.0992 117.821 15.1854 117.562 15.1854ZM121.785 19.4659V24H120.298V16.3636H121.725V17.6065H121.819C121.995 17.2022 122.27 16.8774 122.645 16.6321C123.023 16.3868 123.498 16.2642 124.072 16.2642C124.592 16.2642 125.048 16.3736 125.439 16.5923C125.83 16.8078 126.133 17.1293 126.349 17.5568C126.564 17.9844 126.672 18.513 126.672 19.1428V24H125.185V19.3217C125.185 18.7682 125.041 18.3357 124.753 18.0241C124.464 17.7093 124.068 17.5518 123.564 17.5518C123.22 17.5518 122.913 17.6264 122.645 17.7756C122.38 17.9247 122.169 18.1435 122.013 18.4318C121.861 18.7169 121.785 19.0616 121.785 19.4659ZM130.032 21.4098L130.023 19.5952H130.281L133.324 16.3636H135.104L131.633 20.0426H131.4L130.032 21.4098ZM128.665 24V13.8182H130.152V24H128.665ZM133.488 24L130.753 20.3707L131.778 19.3317L135.312 24H133.488ZM139.435 24.1541C138.683 24.1541 138.035 23.9934 137.491 23.6719C136.951 23.3471 136.533 22.8913 136.238 22.3047C135.947 21.7147 135.801 21.0237 135.801 20.2315C135.801 19.4493 135.947 18.7599 136.238 18.1634C136.533 17.5668 136.944 17.1011 137.471 16.7663C138.002 16.4316 138.621 16.2642 139.331 16.2642C139.761 16.2642 140.179 16.3355 140.583 16.478C140.988 16.6205 141.351 16.8442 141.672 17.1491C141.994 17.4541 142.247 17.8501 142.433 18.3374C142.618 18.8213 142.711 19.4096 142.711 20.1023V20.6293H136.641V19.5156H141.255C141.255 19.1245 141.175 18.7782 141.016 18.4766C140.857 18.1716 140.633 17.9313 140.345 17.7557C140.06 17.58 139.725 17.4922 139.341 17.4922C138.923 17.4922 138.558 17.5949 138.247 17.8004C137.939 18.0026 137.7 18.2678 137.531 18.5959C137.365 18.9207 137.282 19.2737 137.282 19.6548V20.5249C137.282 21.0353 137.372 21.4695 137.551 21.8274C137.733 22.1854 137.987 22.4588 138.311 22.6477C138.636 22.8333 139.016 22.9261 139.45 22.9261C139.732 22.9261 139.989 22.8864 140.221 22.8068C140.453 22.724 140.653 22.6013 140.822 22.4389C140.991 22.2765 141.12 22.076 141.21 21.8374L142.617 22.0909C142.504 22.5052 142.302 22.8681 142.01 23.1797C141.722 23.4879 141.359 23.7282 140.922 23.9006C140.487 24.0696 139.992 24.1541 139.435 24.1541ZM147.219 24.1491C146.603 24.1491 146.053 23.9917 145.569 23.6768C145.088 23.3587 144.71 22.9062 144.435 22.3196C144.163 21.7296 144.028 21.022 144.028 20.1967C144.028 19.3714 144.165 18.6655 144.44 18.0788C144.719 17.4922 145.1 17.0431 145.584 16.7315C146.068 16.42 146.616 16.2642 147.229 16.2642C147.703 16.2642 148.084 16.3438 148.373 16.5028C148.664 16.6586 148.89 16.8409 149.049 17.0497C149.211 17.2585 149.337 17.4425 149.427 17.6016H149.516V13.8182H151.003V24H149.551V22.8118H149.427C149.337 22.9742 149.208 23.1598 149.039 23.3686C148.873 23.5774 148.644 23.7597 148.353 23.9155C148.061 24.0713 147.683 24.1491 147.219 24.1491ZM147.547 22.8814C147.975 22.8814 148.336 22.7687 148.631 22.5433C148.93 22.3146 149.155 21.9981 149.307 21.5938C149.463 21.1894 149.541 20.7187 149.541 20.1818C149.541 19.6515 149.465 19.1875 149.312 18.7898C149.16 18.392 148.936 18.0821 148.641 17.8601C148.346 17.638 147.982 17.527 147.547 17.527C147.1 17.527 146.727 17.643 146.429 17.875C146.131 18.107 145.905 18.4235 145.753 18.8246C145.604 19.2256 145.529 19.678 145.529 20.1818C145.529 20.6922 145.605 21.1513 145.758 21.5589C145.91 21.9666 146.135 22.2898 146.434 22.5284C146.735 22.7637 147.107 22.8814 147.547 22.8814ZM154.78 13.8182V24H153.244V13.8182H154.78ZM158.384 19.4659V24H156.898V16.3636H158.325V17.6065H158.419C158.595 17.2022 158.87 16.8774 159.244 16.6321C159.622 16.3868 160.098 16.2642 160.671 16.2642C161.192 16.2642 161.647 16.3736 162.038 16.5923C162.429 16.8078 162.733 17.1293 162.948 17.5568C163.164 17.9844 163.271 18.513 163.271 19.1428V24H161.785V19.3217C161.785 18.7682 161.641 18.3357 161.352 18.0241C161.064 17.7093 160.668 17.5518 160.164 17.5518C159.819 17.5518 159.513 17.6264 159.244 17.7756C158.979 17.9247 158.769 18.1435 158.613 18.4318C158.46 18.7169 158.384 19.0616 158.384 19.4659ZM171.192 24.169C170.708 24.169 170.271 24.0795 169.88 23.9006C169.489 23.7183 169.179 23.4548 168.95 23.1101C168.725 22.7654 168.612 22.3428 168.612 21.8423C168.612 21.4115 168.695 21.0568 168.861 20.7784C169.026 20.5 169.25 20.2796 169.532 20.1172C169.814 19.9548 170.128 19.8321 170.476 19.7493C170.824 19.6664 171.179 19.6035 171.54 19.5604C171.998 19.5073 172.369 19.4643 172.654 19.4311C172.939 19.3946 173.146 19.3366 173.275 19.2571C173.405 19.1776 173.469 19.0483 173.469 18.8693V18.8345C173.469 18.4003 173.347 18.0639 173.101 17.8253C172.859 17.5866 172.498 17.4673 172.018 17.4673C171.517 17.4673 171.123 17.5784 170.834 17.8004C170.549 18.0192 170.352 18.2628 170.243 18.5312L168.846 18.2131C169.011 17.7491 169.253 17.3745 169.572 17.0895C169.893 16.8011 170.263 16.5923 170.68 16.4631C171.098 16.3305 171.537 16.2642 171.998 16.2642C172.303 16.2642 172.626 16.3007 172.967 16.3736C173.312 16.4432 173.633 16.5724 173.932 16.7614C174.233 16.9503 174.48 17.2204 174.672 17.5717C174.865 17.9197 174.961 18.3722 174.961 18.929V24H173.509V22.956H173.449C173.353 23.1482 173.209 23.3371 173.017 23.5227C172.825 23.7083 172.578 23.8625 172.276 23.9851C171.974 24.1077 171.613 24.169 171.192 24.169ZM171.515 22.9759C171.926 22.9759 172.278 22.8946 172.569 22.7322C172.864 22.5698 173.088 22.3577 173.241 22.0959C173.396 21.8307 173.474 21.5473 173.474 21.2457V20.2614C173.421 20.3144 173.318 20.3641 173.166 20.4105C173.017 20.4536 172.846 20.4917 172.654 20.5249C172.462 20.5547 172.274 20.5829 172.092 20.6094C171.91 20.6326 171.757 20.6525 171.635 20.669C171.346 20.7055 171.083 20.7668 170.844 20.853C170.609 20.9392 170.42 21.0634 170.278 21.2259C170.138 21.3849 170.069 21.5971 170.069 21.8622C170.069 22.2301 170.205 22.5085 170.476 22.6974C170.748 22.883 171.095 22.9759 171.515 22.9759ZM180.157 24.1541C179.418 24.1541 178.782 23.9867 178.248 23.652C177.718 23.3139 177.31 22.8482 177.025 22.255C176.74 21.6617 176.598 20.9822 176.598 20.2166C176.598 19.4411 176.743 18.7566 177.035 18.1634C177.327 17.5668 177.738 17.1011 178.268 16.7663C178.798 16.4316 179.423 16.2642 180.142 16.2642C180.722 16.2642 181.239 16.3719 181.694 16.5874C182.148 16.7995 182.514 17.0978 182.792 17.4822C183.074 17.8667 183.241 18.3158 183.294 18.8295H181.848C181.768 18.4716 181.586 18.1634 181.301 17.9048C181.019 17.6463 180.641 17.517 180.167 17.517C179.753 17.517 179.39 17.6264 179.078 17.8452C178.77 18.0606 178.53 18.3688 178.358 18.7699C178.185 19.1676 178.099 19.6383 178.099 20.1818C178.099 20.7386 178.184 21.2192 178.353 21.6236C178.522 22.0279 178.76 22.3411 179.069 22.5632C179.38 22.7853 179.746 22.8963 180.167 22.8963C180.449 22.8963 180.704 22.8449 180.933 22.7422C181.165 22.6361 181.359 22.4853 181.515 22.2898C181.674 22.0942 181.785 21.8589 181.848 21.5838H183.294C183.241 22.0777 183.081 22.5185 182.812 22.9062C182.544 23.294 182.184 23.599 181.733 23.821C181.286 24.0431 180.761 24.1541 180.157 24.1541ZM188.101 24.1541C187.362 24.1541 186.725 23.9867 186.192 23.652C185.661 23.3139 185.254 22.8482 184.969 22.255C184.684 21.6617 184.541 20.9822 184.541 20.2166C184.541 19.4411 184.687 18.7566 184.979 18.1634C185.27 17.5668 185.681 17.1011 186.211 16.7663C186.742 16.4316 187.367 16.2642 188.086 16.2642C188.666 16.2642 189.183 16.3719 189.637 16.5874C190.091 16.7995 190.457 17.0978 190.736 17.4822C191.017 17.8667 191.185 18.3158 191.238 18.8295H189.791C189.711 18.4716 189.529 18.1634 189.244 17.9048C188.962 17.6463 188.585 17.517 188.111 17.517C187.696 17.517 187.333 17.6264 187.022 17.8452C186.714 18.0606 186.473 18.3688 186.301 18.7699C186.129 19.1676 186.042 19.6383 186.042 20.1818C186.042 20.7386 186.127 21.2192 186.296 21.6236C186.465 22.0279 186.704 22.3411 187.012 22.5632C187.323 22.7853 187.69 22.8963 188.111 22.8963C188.392 22.8963 188.648 22.8449 188.876 22.7422C189.108 22.6361 189.302 22.4853 189.458 22.2898C189.617 22.0942 189.728 21.8589 189.791 21.5838H191.238C191.185 22.0777 191.024 22.5185 190.756 22.9062C190.487 23.294 190.127 23.599 189.677 23.821C189.229 24.0431 188.704 24.1541 188.101 24.1541ZM196.044 24.1541C195.328 24.1541 194.703 23.9901 194.17 23.6619C193.636 23.3338 193.222 22.8748 192.927 22.2848C192.632 21.6948 192.484 21.0054 192.484 20.2166C192.484 19.4245 192.632 18.7318 192.927 18.1385C193.222 17.5452 193.636 17.0845 194.17 16.7564C194.703 16.4283 195.328 16.2642 196.044 16.2642C196.76 16.2642 197.385 16.4283 197.918 16.7564C198.452 17.0845 198.866 17.5452 199.161 18.1385C199.456 18.7318 199.604 19.4245 199.604 20.2166C199.604 21.0054 199.456 21.6948 199.161 22.2848C198.866 22.8748 198.452 23.3338 197.918 23.6619C197.385 23.9901 196.76 24.1541 196.044 24.1541ZM196.049 22.9062C196.513 22.9062 196.897 22.7836 197.202 22.5384C197.507 22.2931 197.733 21.9666 197.879 21.5589C198.028 21.1513 198.102 20.7022 198.102 20.2116C198.102 19.7244 198.028 19.277 197.879 18.8693C197.733 18.4583 197.507 18.1286 197.202 17.88C196.897 17.6314 196.513 17.5071 196.049 17.5071C195.582 17.5071 195.194 17.6314 194.886 17.88C194.581 18.1286 194.354 18.4583 194.205 18.8693C194.059 19.277 193.986 19.7244 193.986 20.2116C193.986 20.7022 194.059 21.1513 194.205 21.5589C194.354 21.9666 194.581 22.2931 194.886 22.5384C195.194 22.7836 195.582 22.9062 196.049 22.9062ZM206.1 20.8331V16.3636H207.592V24H206.13V22.6776H206.051C205.875 23.0852 205.593 23.425 205.205 23.6967C204.821 23.9652 204.342 24.0994 203.769 24.0994C203.278 24.0994 202.844 23.9917 202.466 23.7763C202.092 23.5575 201.797 23.2344 201.581 22.8068C201.369 22.3793 201.263 21.8506 201.263 21.2209V16.3636H202.749V21.0419C202.749 21.5623 202.894 21.9766 203.182 22.2848C203.47 22.593 203.845 22.7472 204.306 22.7472C204.584 22.7472 204.861 22.6776 205.136 22.5384C205.414 22.3991 205.645 22.1887 205.827 21.907C206.012 21.6252 206.104 21.2673 206.1 20.8331ZM211.076 19.4659V24H209.589V16.3636H211.016V17.6065H211.11C211.286 17.2022 211.561 16.8774 211.936 16.6321C212.314 16.3868 212.789 16.2642 213.363 16.2642C213.883 16.2642 214.339 16.3736 214.73 16.5923C215.121 16.8078 215.424 17.1293 215.64 17.5568C215.855 17.9844 215.963 18.513 215.963 19.1428V24H214.476V19.3217C214.476 18.7682 214.332 18.3357 214.044 18.0241C213.755 17.7093 213.359 17.5518 212.855 17.5518C212.511 17.5518 212.204 17.6264 211.936 17.7756C211.671 17.9247 211.46 18.1435 211.304 18.4318C211.152 18.7169 211.076 19.0616 211.076 19.4659ZM221.521 16.3636V17.5568H217.35V16.3636H221.521ZM218.468 14.5341H219.955V21.7578C219.955 22.0462 219.998 22.2633 220.084 22.4091C220.17 22.5516 220.281 22.6494 220.417 22.7024C220.556 22.7521 220.707 22.777 220.87 22.777C220.989 22.777 221.093 22.7687 221.183 22.7521C221.272 22.7356 221.342 22.7223 221.392 22.7124L221.66 23.9403C221.574 23.9735 221.451 24.0066 221.292 24.0398C221.133 24.0762 220.934 24.0961 220.696 24.0994C220.305 24.1061 219.94 24.0365 219.602 23.8906C219.264 23.7448 218.99 23.5194 218.782 23.2145C218.573 22.9096 218.468 22.5268 218.468 22.0661V14.5341ZM228.765 18.228L227.417 18.4666C227.361 18.2943 227.271 18.1302 227.149 17.9744C227.029 17.8187 226.867 17.6911 226.662 17.5916C226.456 17.4922 226.199 17.4425 225.891 17.4425C225.47 17.4425 225.119 17.5369 224.837 17.7259C224.555 17.9115 224.414 18.1518 224.414 18.4467C224.414 18.7019 224.509 18.9074 224.698 19.0632C224.887 19.219 225.192 19.3466 225.613 19.446L226.826 19.7244C227.528 19.8868 228.052 20.1371 228.397 20.4751C228.741 20.8132 228.914 21.2524 228.914 21.7926C228.914 22.25 228.781 22.6577 228.516 23.0156C228.254 23.3703 227.888 23.6487 227.417 23.8509C226.95 24.053 226.408 24.1541 225.792 24.1541C224.936 24.1541 224.239 23.9718 223.699 23.6072C223.158 23.2393 222.827 22.7173 222.704 22.0412L224.141 21.8224C224.23 22.197 224.414 22.4804 224.693 22.6726C224.971 22.8615 225.334 22.956 225.782 22.956C226.269 22.956 226.658 22.8549 226.95 22.6527C227.242 22.4472 227.387 22.197 227.387 21.902C227.387 21.6634 227.298 21.4628 227.119 21.3004C226.943 21.138 226.673 21.0154 226.309 20.9325L225.016 20.6491C224.303 20.4867 223.776 20.2282 223.435 19.8736C223.097 19.5189 222.928 19.0698 222.928 18.5263C222.928 18.0755 223.054 17.6811 223.306 17.343C223.558 17.005 223.906 16.7415 224.35 16.5526C224.794 16.3603 225.303 16.2642 225.876 16.2642C226.701 16.2642 227.351 16.4432 227.825 16.8011C228.299 17.1558 228.612 17.6314 228.765 18.228Z" fill="white"/>
<path d="M241.46 25L246.409 15.2045V15.125H240.665V13.3636H248.591V15.1648L243.648 25H241.46ZM249.714 25.125C249.37 25.125 249.074 25.0038 248.828 24.7614C248.582 24.5189 248.461 24.2235 248.464 23.875C248.461 23.5341 248.582 23.2424 248.828 23C249.074 22.7576 249.37 22.6364 249.714 22.6364C250.048 22.6364 250.338 22.7576 250.584 23C250.834 23.2424 250.961 23.5341 250.964 23.875C250.961 24.1061 250.9 24.3163 250.783 24.5057C250.669 24.6951 250.518 24.8466 250.328 24.9602C250.143 25.0701 249.938 25.125 249.714 25.125ZM256.874 25.1591C256.317 25.1553 255.773 25.0587 255.243 24.8693C254.713 24.6761 254.235 24.3636 253.811 23.9318C253.387 23.4962 253.05 22.9186 252.8 22.1989C252.55 21.4754 252.427 20.5795 252.43 19.5114C252.43 18.5152 252.536 17.6269 252.749 16.8466C252.961 16.0663 253.266 15.4072 253.663 14.8693C254.061 14.3277 254.54 13.9148 255.101 13.6307C255.665 13.3466 256.296 13.2045 256.993 13.2045C257.724 13.2045 258.372 13.3485 258.936 13.6364C259.504 13.9242 259.963 14.3182 260.311 14.8182C260.66 15.3144 260.875 15.875 260.959 16.5H258.885C258.779 16.053 258.561 15.697 258.232 15.4318C257.906 15.1629 257.493 15.0284 256.993 15.0284C256.186 15.0284 255.565 15.3788 255.129 16.0795C254.697 16.7803 254.48 17.7424 254.476 18.9659H254.555C254.741 18.6326 254.982 18.3466 255.277 18.108C255.572 17.8693 255.906 17.6856 256.277 17.5568C256.652 17.4242 257.048 17.358 257.464 17.358C258.146 17.358 258.758 17.5208 259.3 17.8466C259.845 18.1723 260.277 18.6212 260.595 19.1932C260.913 19.7614 261.071 20.4129 261.067 21.1477C261.071 21.9129 260.896 22.6004 260.544 23.2102C260.192 23.8163 259.701 24.2936 259.072 24.642C258.444 24.9905 257.711 25.1629 256.874 25.1591ZM256.862 23.4545C257.275 23.4545 257.644 23.3542 257.97 23.1534C258.296 22.9527 258.554 22.6818 258.743 22.3409C258.932 22 259.025 21.6174 259.021 21.1932C259.025 20.7765 258.934 20.3996 258.749 20.0625C258.567 19.7254 258.315 19.4583 257.993 19.2614C257.671 19.0644 257.304 18.9659 256.891 18.9659C256.584 18.9659 256.298 19.0246 256.033 19.142C255.768 19.2595 255.536 19.4223 255.339 19.6307C255.143 19.8352 254.987 20.0739 254.874 20.3466C254.764 20.6155 254.707 20.9034 254.703 21.2102C254.707 21.6155 254.802 21.9886 254.987 22.3295C255.173 22.6705 255.429 22.9432 255.754 23.1477C256.08 23.3523 256.449 23.4545 256.862 23.4545ZM263.101 25V13.3636H265.209V18.7102H265.351L269.891 13.3636H272.464L267.964 18.5852L272.504 25H269.97L266.499 20.0114L265.209 21.5341V25H263.101ZM276.223 23.1364V15.2727H278.007V23.1364H276.223ZM273.183 20.0966V18.3125H281.047V20.0966H273.183Z" fill="#42BDAC"/>
<path d="M38.5299 15.71H35.4123V25.6873H38.5299V15.71Z" fill="#42BDAC"/>
<path d="M47.0453 15.6167C45.2585 15.6167 44.1402 16.5913 43.934 17.2785V15.7104H40.4292C40.4729 16.5413 40.4292 25.6877 40.4292 25.6877H43.934V20.2961C43.934 19.99 43.9216 19.6901 44.009 19.4777C44.2464 18.8779 44.765 18.2532 45.6959 18.2532C46.9141 18.2532 47.4639 19.1778 47.4639 20.5273V25.6877H51V20.1399C51 17.0536 49.2632 15.6167 47.0453 15.6167Z" fill="#42BDAC"/>
<path d="M36.9055 11C35.756 11 35 11.7435 35 12.7306C35 13.6989 35.731 14.4611 36.8618 14.4611H36.8868C38.0613 14.4611 38.7923 13.6927 38.786 12.7306C38.761 11.7435 38.055 11 36.9055 11Z" fill="#42BDAC"/>
<rect x="186" y="131" width="128" height="31" rx="4" fill="#1C434B" fill-opacity="0.8"/>
<path d="M222.415 140H208.585C207.71 140.001 207.001 140.734 207 141.638V152.362C207.001 153.266 207.71 153.999 208.585 154H222.415C223.29 153.999 223.999 153.266 224 152.362V141.638C223.999 140.734 223.29 140.001 222.415 140ZM208.585 140.894H222.415C222.74 140.897 223.012 141.124 223.095 141.432L223.096 141.438L215.5 147.047L207.904 141.438C207.988 141.124 208.261 140.897 208.585 140.894ZM222.415 153.106H208.585C208.187 153.106 207.865 152.773 207.864 152.362V142.506L215.249 147.959C215.257 147.965 215.267 147.963 215.275 147.968C215.337 148.012 215.414 148.038 215.495 148.041H215.496L215.499 148.043H215.5L215.503 148.041C215.585 148.038 215.661 148.011 215.725 147.967L215.724 147.968C215.732 147.963 215.742 147.965 215.75 147.959L223.134 142.506V152.362C223.134 152.773 222.812 153.106 222.414 153.106H222.415Z" fill="#42BDAC" stroke="#42BDAC" stroke-width="0.5"/>
<rect y="131" width="128" height="31" rx="4" fill="#1A3C45"/>
<path d="M234.959 151V142.273H240.43V143.406H236.276V146.065H240.145V147.195H236.276V149.866H240.482V151H234.959ZM242.087 151V144.455H243.31V145.52H243.391C243.527 145.159 243.75 144.878 244.06 144.676C244.37 144.472 244.74 144.369 245.172 144.369C245.61 144.369 245.976 144.472 246.272 144.676C246.57 144.881 246.79 145.162 246.932 145.52H247C247.157 145.17 247.405 144.892 247.746 144.685C248.087 144.474 248.493 144.369 248.965 144.369C249.559 144.369 250.043 144.555 250.418 144.928C250.796 145.3 250.985 145.861 250.985 146.611V151H249.711V146.73C249.711 146.287 249.59 145.966 249.348 145.767C249.107 145.568 248.819 145.469 248.483 145.469C248.069 145.469 247.746 145.597 247.516 145.852C247.286 146.105 247.171 146.43 247.171 146.828V151H245.901V146.649C245.901 146.294 245.79 146.009 245.569 145.793C245.347 145.577 245.059 145.469 244.703 145.469C244.462 145.469 244.239 145.533 244.034 145.661C243.833 145.786 243.669 145.96 243.544 146.185C243.422 146.409 243.361 146.669 243.361 146.964V151H242.087ZM254.597 151.145C254.183 151.145 253.808 151.068 253.472 150.915C253.137 150.759 252.871 150.533 252.675 150.237C252.482 149.942 252.386 149.58 252.386 149.151C252.386 148.781 252.457 148.477 252.599 148.239C252.741 148 252.933 147.811 253.174 147.672C253.415 147.533 253.685 147.428 253.984 147.357C254.282 147.286 254.586 147.232 254.896 147.195C255.288 147.149 255.606 147.112 255.85 147.084C256.094 147.053 256.272 147.003 256.383 146.935C256.494 146.866 256.549 146.756 256.549 146.602V146.572C256.549 146.2 256.444 145.912 256.234 145.707C256.026 145.503 255.717 145.401 255.305 145.401C254.876 145.401 254.538 145.496 254.29 145.686C254.046 145.874 253.877 146.082 253.783 146.312L252.586 146.04C252.728 145.642 252.935 145.321 253.208 145.077C253.484 144.83 253.8 144.651 254.158 144.54C254.516 144.426 254.893 144.369 255.288 144.369C255.549 144.369 255.826 144.401 256.119 144.463C256.414 144.523 256.69 144.634 256.945 144.795C257.204 144.957 257.415 145.189 257.58 145.49C257.745 145.788 257.827 146.176 257.827 146.653V151H256.583V150.105H256.532C256.45 150.27 256.326 150.432 256.161 150.591C255.996 150.75 255.785 150.882 255.526 150.987C255.268 151.092 254.958 151.145 254.597 151.145ZM254.874 150.122C255.227 150.122 255.528 150.053 255.778 149.913C256.031 149.774 256.222 149.592 256.353 149.368C256.487 149.141 256.553 148.898 256.553 148.639V147.795C256.508 147.841 256.42 147.884 256.289 147.923C256.161 147.96 256.015 147.993 255.85 148.021C255.685 148.047 255.525 148.071 255.369 148.094C255.212 148.114 255.082 148.131 254.977 148.145C254.729 148.176 254.504 148.229 254.299 148.303C254.097 148.376 253.935 148.483 253.813 148.622C253.694 148.759 253.634 148.94 253.634 149.168C253.634 149.483 253.751 149.722 253.984 149.884C254.217 150.043 254.513 150.122 254.874 150.122ZM259.525 151V144.455H260.799V151H259.525ZM260.168 143.445C259.946 143.445 259.756 143.371 259.597 143.223C259.441 143.072 259.363 142.893 259.363 142.686C259.363 142.476 259.441 142.297 259.597 142.149C259.756 141.999 259.946 141.923 260.168 141.923C260.39 141.923 260.578 141.999 260.735 142.149C260.894 142.297 260.973 142.476 260.973 142.686C260.973 142.893 260.894 143.072 260.735 143.223C260.578 143.371 260.39 143.445 260.168 143.445ZM263.787 142.273V151H262.513V142.273H263.787ZM273.582 146.053L272.427 146.257C272.379 146.109 272.302 145.969 272.197 145.835C272.094 145.702 271.955 145.592 271.779 145.507C271.603 145.422 271.383 145.379 271.119 145.379C270.758 145.379 270.457 145.46 270.215 145.622C269.974 145.781 269.853 145.987 269.853 146.24C269.853 146.459 269.934 146.635 270.096 146.768C270.258 146.902 270.519 147.011 270.88 147.097L271.92 147.335C272.522 147.474 272.971 147.689 273.266 147.979C273.562 148.268 273.71 148.645 273.71 149.108C273.71 149.5 273.596 149.849 273.369 150.156C273.144 150.46 272.83 150.699 272.427 150.872C272.026 151.045 271.562 151.132 271.033 151.132C270.3 151.132 269.702 150.976 269.239 150.663C268.776 150.348 268.492 149.901 268.387 149.321L269.619 149.134C269.695 149.455 269.853 149.697 270.092 149.862C270.33 150.024 270.641 150.105 271.025 150.105C271.442 150.105 271.776 150.018 272.026 149.845C272.276 149.669 272.401 149.455 272.401 149.202C272.401 148.997 272.325 148.825 272.171 148.686C272.021 148.547 271.789 148.442 271.477 148.371L270.369 148.128C269.758 147.989 269.306 147.767 269.013 147.463C268.724 147.159 268.579 146.774 268.579 146.308C268.579 145.922 268.687 145.584 268.903 145.294C269.119 145.004 269.417 144.778 269.798 144.616C270.178 144.452 270.614 144.369 271.106 144.369C271.813 144.369 272.37 144.523 272.776 144.83C273.183 145.134 273.451 145.541 273.582 146.053ZM277.931 151.132C277.287 151.132 276.731 150.994 276.265 150.719C275.802 150.44 275.444 150.05 275.191 149.547C274.941 149.041 274.816 148.449 274.816 147.77C274.816 147.099 274.941 146.509 275.191 145.997C275.444 145.486 275.797 145.087 276.248 144.8C276.703 144.513 277.234 144.369 277.842 144.369C278.211 144.369 278.569 144.43 278.916 144.553C279.262 144.675 279.574 144.866 279.849 145.128C280.125 145.389 280.342 145.729 280.501 146.146C280.66 146.561 280.74 147.065 280.74 147.659V148.111H275.537V147.156H279.491C279.491 146.821 279.423 146.524 279.287 146.266C279.15 146.004 278.958 145.798 278.711 145.648C278.467 145.497 278.18 145.422 277.85 145.422C277.493 145.422 277.18 145.51 276.913 145.686C276.649 145.859 276.444 146.087 276.299 146.368C276.157 146.646 276.086 146.949 276.086 147.276V148.021C276.086 148.459 276.163 148.831 276.316 149.138C276.473 149.445 276.69 149.679 276.968 149.841C277.247 150 277.572 150.08 277.944 150.08C278.186 150.08 278.406 150.045 278.605 149.977C278.804 149.906 278.975 149.801 279.12 149.662C279.265 149.523 279.376 149.351 279.453 149.146L280.659 149.364C280.562 149.719 280.389 150.03 280.139 150.297C279.892 150.561 279.581 150.767 279.206 150.915C278.833 151.06 278.409 151.132 277.931 151.132ZM283.428 147.114V151H282.153V144.455H283.376V145.52H283.457C283.608 145.173 283.844 144.895 284.165 144.685C284.489 144.474 284.896 144.369 285.388 144.369C285.834 144.369 286.224 144.463 286.56 144.651C286.895 144.835 287.155 145.111 287.339 145.477C287.524 145.844 287.616 146.297 287.616 146.837V151H286.342V146.99C286.342 146.516 286.219 146.145 285.972 145.878C285.724 145.608 285.385 145.473 284.953 145.473C284.658 145.473 284.395 145.537 284.165 145.665C283.938 145.793 283.757 145.98 283.624 146.227C283.493 146.472 283.428 146.767 283.428 147.114ZM291.776 151.128C291.247 151.128 290.776 150.993 290.361 150.723C289.949 150.45 289.625 150.062 289.389 149.56C289.156 149.054 289.04 148.447 289.04 147.74C289.04 147.033 289.158 146.428 289.393 145.925C289.632 145.422 289.959 145.037 290.374 144.77C290.788 144.503 291.259 144.369 291.784 144.369C292.19 144.369 292.517 144.438 292.764 144.574C293.014 144.707 293.207 144.864 293.344 145.043C293.483 145.222 293.591 145.379 293.668 145.516H293.744V142.273H295.018V151H293.774V149.982H293.668C293.591 150.121 293.48 150.28 293.335 150.459C293.193 150.638 292.997 150.794 292.747 150.928C292.497 151.061 292.173 151.128 291.776 151.128ZM292.057 150.041C292.423 150.041 292.733 149.945 292.986 149.751C293.241 149.555 293.435 149.284 293.565 148.938C293.699 148.591 293.766 148.187 293.766 147.727C293.766 147.273 293.7 146.875 293.57 146.534C293.439 146.193 293.247 145.928 292.994 145.737C292.741 145.547 292.429 145.452 292.057 145.452C291.673 145.452 291.354 145.551 291.098 145.75C290.842 145.949 290.649 146.22 290.518 146.564C290.391 146.908 290.327 147.295 290.327 147.727C290.327 148.165 290.392 148.558 290.523 148.908C290.653 149.257 290.847 149.534 291.102 149.739C291.361 149.94 291.679 150.041 292.057 150.041Z" fill="white"/>
<path d="M48.9588 151V142.273H52.0696C52.7486 142.273 53.3111 142.396 53.7571 142.643C54.2031 142.891 54.5369 143.229 54.7585 143.658C54.9801 144.084 55.0909 144.564 55.0909 145.098C55.0909 145.635 54.9787 146.118 54.7543 146.547C54.5327 146.973 54.1974 147.311 53.7486 147.561C53.3026 147.808 52.7415 147.932 52.0653 147.932H49.9261V146.815H51.946C52.375 146.815 52.723 146.741 52.9901 146.594C53.2571 146.443 53.4531 146.239 53.5781 145.98C53.7031 145.722 53.7656 145.428 53.7656 145.098C53.7656 144.768 53.7031 144.476 53.5781 144.22C53.4531 143.964 53.2557 143.764 52.9858 143.619C52.7188 143.474 52.3665 143.402 51.929 143.402H50.2756V151H48.9588ZM59.2074 151.132C58.5938 151.132 58.0582 150.991 57.6009 150.71C57.1435 150.429 56.7884 150.036 56.5355 149.53C56.2827 149.024 56.1562 148.433 56.1562 147.757C56.1562 147.078 56.2827 146.484 56.5355 145.976C56.7884 145.467 57.1435 145.072 57.6009 144.791C58.0582 144.51 58.5938 144.369 59.2074 144.369C59.821 144.369 60.3565 144.51 60.8139 144.791C61.2713 145.072 61.6264 145.467 61.8793 145.976C62.1321 146.484 62.2585 147.078 62.2585 147.757C62.2585 148.433 62.1321 149.024 61.8793 149.53C61.6264 150.036 61.2713 150.429 60.8139 150.71C60.3565 150.991 59.821 151.132 59.2074 151.132ZM59.2116 150.062C59.6094 150.062 59.9389 149.957 60.2003 149.747C60.4616 149.537 60.6548 149.257 60.7798 148.908C60.9077 148.558 60.9716 148.173 60.9716 147.753C60.9716 147.335 60.9077 146.952 60.7798 146.602C60.6548 146.25 60.4616 145.967 60.2003 145.754C59.9389 145.541 59.6094 145.435 59.2116 145.435C58.8111 145.435 58.4787 145.541 58.2145 145.754C57.9531 145.967 57.7585 146.25 57.6307 146.602C57.5057 146.952 57.4432 147.335 57.4432 147.753C57.4432 148.173 57.5057 148.558 57.6307 148.908C57.7585 149.257 57.9531 149.537 58.2145 149.747C58.4787 149.957 58.8111 150.062 59.2116 150.062ZM68.5856 146.053L67.4308 146.257C67.3825 146.109 67.3058 145.969 67.2006 145.835C67.0984 145.702 66.9592 145.592 66.783 145.507C66.6069 145.422 66.3867 145.379 66.1225 145.379C65.7617 145.379 65.4606 145.46 65.2191 145.622C64.9776 145.781 64.8569 145.987 64.8569 146.24C64.8569 146.459 64.9379 146.635 65.0998 146.768C65.2617 146.902 65.5231 147.011 65.8839 147.097L66.9237 147.335C67.5259 147.474 67.9748 147.689 68.2702 147.979C68.5657 148.268 68.7134 148.645 68.7134 149.108C68.7134 149.5 68.5998 149.849 68.3725 150.156C68.1481 150.46 67.8342 150.699 67.4308 150.872C67.0302 151.045 66.5657 151.132 66.0373 151.132C65.3043 151.132 64.7063 150.976 64.2433 150.663C63.7802 150.348 63.4961 149.901 63.391 149.321L64.6225 149.134C64.6992 149.455 64.8569 149.697 65.0955 149.862C65.3342 150.024 65.6452 150.105 66.0288 150.105C66.4464 150.105 66.7802 150.018 67.0302 149.845C67.2802 149.669 67.4052 149.455 67.4052 149.202C67.4052 148.997 67.3285 148.825 67.1751 148.686C67.0245 148.547 66.793 148.442 66.4805 148.371L65.3725 148.128C64.7617 147.989 64.31 147.767 64.0174 147.463C63.7276 147.159 63.5827 146.774 63.5827 146.308C63.5827 145.922 63.6907 145.584 63.9066 145.294C64.1225 145.004 64.4208 144.778 64.8015 144.616C65.1822 144.452 65.6183 144.369 66.1097 144.369C66.8171 144.369 67.3739 144.523 67.7802 144.83C68.1864 145.134 68.4549 145.541 68.5856 146.053ZM73.1697 144.455V145.477H69.5945V144.455H73.1697ZM70.5533 142.886H71.8274V149.078C71.8274 149.325 71.8643 149.511 71.9382 149.636C72.0121 149.759 72.1072 149.842 72.2237 149.888C72.343 149.93 72.4723 149.952 72.6115 149.952C72.7138 149.952 72.8033 149.945 72.88 149.93C72.9567 149.916 73.0163 149.905 73.0589 149.896L73.2891 150.949C73.2152 150.977 73.1101 151.006 72.9737 151.034C72.8374 151.065 72.6669 151.082 72.4624 151.085C72.1271 151.091 71.8146 151.031 71.5249 150.906C71.2351 150.781 71.0007 150.588 70.8217 150.327C70.6428 150.065 70.5533 149.737 70.5533 149.342V142.886ZM77.8572 151V142.273H79.174V149.866H83.1286V151H77.8572ZM84.5284 151V144.455H85.8026V151H84.5284ZM85.1719 143.445C84.9503 143.445 84.7599 143.371 84.6009 143.223C84.4446 143.072 84.3665 142.893 84.3665 142.686C84.3665 142.476 84.4446 142.297 84.6009 142.149C84.7599 141.999 84.9503 141.923 85.1719 141.923C85.3935 141.923 85.5824 141.999 85.7386 142.149C85.8977 142.297 85.9773 142.476 85.9773 142.686C85.9773 142.893 85.8977 143.072 85.7386 143.223C85.5824 143.371 85.3935 143.445 85.1719 143.445ZM88.6886 148.78L88.68 147.224H88.9016L91.5096 144.455H93.0352L90.0607 147.608H89.8604L88.6886 148.78ZM87.5167 151V142.273H88.7908V151H87.5167ZM91.6502 151L89.3065 147.889L90.1843 146.999L93.2141 151H91.6502ZM96.7479 151.132C96.103 151.132 95.5476 150.994 95.0817 150.719C94.6186 150.44 94.2607 150.05 94.0078 149.547C93.7578 149.041 93.6328 148.449 93.6328 147.77C93.6328 147.099 93.7578 146.509 94.0078 145.997C94.2607 145.486 94.6129 145.087 95.0646 144.8C95.5192 144.513 96.0504 144.369 96.6584 144.369C97.0277 144.369 97.3857 144.43 97.7322 144.553C98.0788 144.675 98.3899 144.866 98.6655 145.128C98.9411 145.389 99.1584 145.729 99.3175 146.146C99.4766 146.561 99.5561 147.065 99.5561 147.659V148.111H94.353V147.156H98.3075C98.3075 146.821 98.2393 146.524 98.103 146.266C97.9666 146.004 97.7749 145.798 97.5277 145.648C97.2834 145.497 96.9964 145.422 96.6669 145.422C96.3089 145.422 95.9964 145.51 95.7294 145.686C95.4652 145.859 95.2607 146.087 95.1158 146.368C94.9737 146.646 94.9027 146.949 94.9027 147.276V148.021C94.9027 148.459 94.9794 148.831 95.1328 149.138C95.2891 149.445 95.5064 149.679 95.7848 149.841C96.0632 150 96.3885 150.08 96.7607 150.08C97.0021 150.08 97.2223 150.045 97.4212 149.977C97.62 149.906 97.7919 149.801 97.9368 149.662C98.0817 149.523 98.1925 149.351 98.2692 149.146L99.4751 149.364C99.3786 149.719 99.2053 150.03 98.9553 150.297C98.7081 150.561 98.397 150.767 98.022 150.915C97.6499 151.06 97.2251 151.132 96.7479 151.132Z" fill="white"/>
<path d="M23.5769 144.104L24.1517 144.053C24.1251 143.736 23.8607 143.498 23.552 143.511C23.2434 143.525 23 143.786 23 144.104H23.5769ZM37.8353 145.545L37.2926 148.771L38.4296 148.973L38.9723 145.747L37.8353 145.545ZM32.4576 152.814H28.8818V154H32.4576V152.814ZM28.1807 152.152L27.556 144.725L26.4064 144.827L27.0312 152.254L28.1807 152.152ZM37.2926 148.771C36.9028 151.088 34.8701 152.814 32.4576 152.814V154C35.4008 154 37.9389 151.89 38.4296 148.973L37.2926 148.771ZM32.4651 140.044L31.9554 143.242L33.0941 143.434L33.6038 140.236L32.4651 140.044ZM27.7982 144.113L28.9049 143.133L28.1517 142.234L27.045 143.214L27.7982 144.113ZM30.9184 139.943L31.2843 138.493L30.1675 138.195L29.8015 139.645L30.9184 139.943ZM31.837 138.209L31.9485 138.245L32.3015 137.116L32.1899 137.079L31.837 138.209ZM30.3642 141.401C30.6041 140.939 30.7905 140.45 30.9184 139.943L29.8015 139.645C29.6967 140.061 29.5438 140.462 29.3464 140.842L30.3642 141.401ZM31.9485 138.245C32.1842 138.323 32.3516 138.51 32.4066 138.728L33.5235 138.431C33.3654 137.804 32.8991 137.313 32.3015 137.116L31.9485 138.245ZM31.2843 138.493C31.3113 138.386 31.3863 138.288 31.4998 138.232L30.9989 137.163C30.5896 137.366 30.2822 137.74 30.1675 138.195L31.2843 138.493ZM31.4998 138.232C31.6034 138.181 31.7254 138.172 31.837 138.209L32.1899 137.079C31.7978 136.95 31.3701 136.98 30.9989 137.163L31.4998 138.232ZM33.1566 144.697H37.142V143.511H33.1566V144.697ZM24.8991 152.937L24.1517 144.053L23.0021 144.155L23.7495 153.04L24.8991 152.937ZM24.1538 153.022V144.104H23V153.022H24.1538ZM23.7495 153.04C23.7394 152.919 23.8319 152.814 23.9513 152.814V154C24.5097 154 24.9471 153.508 24.8991 152.937L23.7495 153.04ZM33.6038 140.236C33.6996 139.635 33.6723 139.02 33.5235 138.431L32.4066 138.728C32.5151 139.158 32.535 139.606 32.4651 140.044L33.6038 140.236ZM28.8818 152.814C28.5172 152.814 28.2123 152.527 28.1807 152.152L27.0312 152.254C27.1142 153.241 27.9174 154 28.8818 154V152.814ZM28.9049 143.133C29.4279 142.669 29.9916 142.118 30.3642 141.401L29.3464 140.842C29.08 141.355 28.6557 141.788 28.1517 142.234L28.9049 143.133ZM38.9723 145.747C39.1687 144.58 38.2953 143.511 37.142 143.511V144.697C37.5779 144.697 37.91 145.101 37.8353 145.545L38.9723 145.747ZM23.9513 152.814C24.0638 152.814 24.1538 152.908 24.1538 153.022H23C23 153.561 23.4253 154 23.9513 154V152.814ZM31.9554 143.242C31.8341 144.004 32.405 144.697 33.1566 144.697V143.511C33.1182 143.511 33.0875 143.475 33.0941 143.434L31.9554 143.242ZM27.556 144.725C27.5364 144.492 27.6267 144.265 27.7982 144.113L27.045 143.214C26.5925 143.615 26.355 144.215 26.4064 144.827L27.556 144.725Z" fill="#42BDAC"/>
<defs>
<filter id="filter0_d_9901_89" x="221.15" y="52.1499" width="39.7" height="49.2002" filterUnits="userSpaceOnUse" color-interpolation-filters="sRGB">
<feFlood flood-opacity="0" result="BackgroundImageFix"/>
<feColorMatrix in="SourceAlpha" type="matrix" values="0 0 0 0 0 0 0 0 0 0 0 0 0 0 0 0 0 0 127 0" result="hardAlpha"/>
<feOffset/>
<feGaussianBlur stdDeviation="5"/>
<feComposite in2="hardAlpha" operator="out"/>
<feColorMatrix type="matrix" values="0 0 0 0 0.257184 0 0 0 0 0.741965 0 0 0 0 0.674947 0 0 0 0.2 0"/>
<feBlend mode="normal" in2="BackgroundImageFix" result="effect1_dropShadow_9901_89"/>
<feBlend mode="normal" in="SourceGraphic" in2="effect1_dropShadow_9901_89" result="shape"/>
</filter>
<filter id="filter1_d_9901_89" x="53.15" y="52.1499" width="39.7" height="49.2002" filterUnits="userSpaceOnUse" color-interpolation-filters="sRGB">
<feFlood flood-opacity="0" result="BackgroundImageFix"/>
<feColorMatrix in="SourceAlpha" type="matrix" values="0 0 0 0 0 0 0 0 0 0 0 0 0 0 0 0 0 0 127 0" result="hardAlpha"/>
<feOffset/>
<feGaussianBlur stdDeviation="5"/>
<feComposite in2="hardAlpha" operator="out"/>
<feColorMatrix type="matrix" values="0 0 0 0 0.257184 0 0 0 0 0.741965 0 0 0 0 0.674947 0 0 0 0.2 0"/>
<feBlend mode="normal" in2="BackgroundImageFix" result="effect1_dropShadow_9901_89"/>
<feBlend mode="normal" in="SourceGraphic" in2="effect1_dropShadow_9901_89" result="shape"/>
</filter>
</defs>
</svg>
