<svg width="316" height="152" viewBox="0 0 316 152" fill="none" xmlns="http://www.w3.org/2000/svg">
<rect x="79" y="63.4395" width="1.97823" height="15.12" rx="0.989117" fill="#42BDAC"/>
<rect x="85.9785" y="66.3228" width="1.97823" height="9.36" rx="0.989117" fill="#42BDAC"/>
<rect x="92.957" y="66.3228" width="1.97823" height="9.36" rx="0.989117" fill="#42BDAC"/>
<rect x="99.9355" y="63.4395" width="1.97823" height="15.12" rx="0.989117" fill="#42BDAC"/>
<rect x="106.914" y="64.1587" width="1.97823" height="13.68" rx="0.989117" fill="#42BDAC"/>
<rect x="113.893" y="64.8833" width="1.97823" height="12.24" rx="0.989117" fill="#42BDAC"/>
<rect x="120.871" y="65.2407" width="1.97823" height="11.16" rx="0.989117" fill="#42BDAC"/>
<rect x="127.85" y="66.6802" width="1.97823" height="8.28" rx="0.989117" fill="#42BDAC"/>
<rect x="148.785" y="66.6802" width="1.97823" height="8.28" rx="0.989117" fill="#42BDAC"/>
<rect x="134.828" y="67.0425" width="1.97823" height="7.92" rx="0.989117" fill="#42BDAC"/>
<rect x="141.807" y="67.0425" width="1.97823" height="7.92" rx="0.989117" fill="#42BDAC"/>
<rect x="155.764" y="63.8018" width="1.97823" height="14.04" rx="0.989117" fill="#42BDAC"/>
<rect x="162.742" y="62.3623" width="1.97823" height="16.92" rx="0.989117" fill="#42BDAC"/>
<rect x="169.721" y="62" width="1.97823" height="18" rx="0.989117" fill="#42BDAC"/>
<rect x="176.699" y="63.8018" width="1.97823" height="14.4" rx="0.989117" fill="#42BDAC"/>
<rect x="183.678" y="65.9604" width="1.97823" height="10.08" rx="0.989117" fill="#42BDAC"/>
<rect x="190.656" y="62.3623" width="1.97823" height="16.92" rx="0.989117" fill="#42BDAC"/>
<rect x="197.635" y="64.1587" width="1.97823" height="13.68" rx="0.989117" fill="#42BDAC"/>
<rect x="204.613" y="65.603" width="1.97823" height="10.8" rx="0.989117" fill="#42BDAC"/>
<rect x="211.592" y="66.3228" width="1.97823" height="9" rx="0.989117" fill="#42BDAC"/>
<rect x="218.57" y="66.6802" width="1.97823" height="8.64" rx="0.989117" fill="#42BDAC"/>
<rect opacity="0.6" x="79" y="47" width="236" height="6" rx="3" fill="#10202E"/>
<g filter="url(#filter0_d_7733_111)">
<rect x="79" y="47" width="182" height="6" rx="3" fill="#42BDAC"/>
</g>
<path d="M79.9794 30V28.8864L83.4247 25.3168C83.7926 24.929 84.0959 24.5893 84.3345 24.2976C84.5765 24.0026 84.7571 23.7225 84.8764 23.4574C84.9957 23.1922 85.0554 22.9105 85.0554 22.6122C85.0554 22.2741 84.9759 21.9825 84.8168 21.7372C84.6577 21.4886 84.4406 21.2981 84.1655 21.1655C83.8904 21.0296 83.5805 20.9616 83.2358 20.9616C82.8712 20.9616 82.553 21.0362 82.2812 21.1854C82.0095 21.3345 81.8007 21.545 81.6548 21.8168C81.509 22.0885 81.4361 22.4067 81.4361 22.7713H79.9695C79.9695 22.1515 80.112 21.6096 80.397 21.1456C80.6821 20.6816 81.0732 20.322 81.5703 20.0668C82.0675 19.8082 82.6326 19.679 83.2656 19.679C83.9053 19.679 84.4688 19.8066 84.956 20.0618C85.4465 20.3137 85.8293 20.6584 86.1044 21.0959C86.3795 21.5301 86.517 22.0206 86.517 22.5675C86.517 22.9453 86.4458 23.3149 86.3033 23.6761C86.1641 24.0374 85.9205 24.4401 85.5724 24.8842C85.2244 25.325 84.7405 25.8603 84.1207 26.4901L82.0973 28.608V28.6825H86.6811V30H79.9794ZM92.1101 30.169C91.3246 30.1657 90.6534 29.9586 90.0966 29.5476C89.5398 29.1366 89.1139 28.5384 88.8189 27.7528C88.5239 26.9673 88.3764 26.0211 88.3764 24.9141C88.3764 23.8104 88.5239 22.8674 88.8189 22.0852C89.1172 21.303 89.5447 20.7064 90.1016 20.2955C90.6617 19.8845 91.3312 19.679 92.1101 19.679C92.889 19.679 93.5568 19.8861 94.1136 20.3004C94.6705 20.7114 95.0964 21.308 95.3913 22.0902C95.6896 22.8691 95.8388 23.8104 95.8388 24.9141C95.8388 26.0244 95.6913 26.9723 95.3963 27.7578C95.1013 28.54 94.6754 29.1383 94.1186 29.5526C93.5618 29.9635 92.8923 30.169 92.1101 30.169ZM92.1101 28.8416C92.7995 28.8416 93.3381 28.5052 93.7259 27.8324C94.117 27.1596 94.3125 26.1868 94.3125 24.9141C94.3125 24.0689 94.223 23.3546 94.044 22.7713C93.8684 22.1847 93.6148 21.7405 93.2834 21.4389C92.9553 21.134 92.5642 20.9815 92.1101 20.9815C91.424 20.9815 90.8854 21.3196 90.4943 21.9957C90.1032 22.6719 89.906 23.6446 89.9027 24.9141C89.9027 25.7625 89.9905 26.4801 90.1662 27.0668C90.3452 27.6501 90.5987 28.0926 90.9268 28.3942C91.255 28.6925 91.6494 28.8416 92.1101 28.8416ZM101.147 30.169C100.362 30.1657 99.6905 29.9586 99.1337 29.5476C98.5769 29.1366 98.151 28.5384 97.856 27.7528C97.561 26.9673 97.4135 26.0211 97.4135 24.9141C97.4135 23.8104 97.561 22.8674 97.856 22.0852C98.1543 21.303 98.5819 20.7064 99.1387 20.2955C99.6988 19.8845 100.368 19.679 101.147 19.679C101.926 19.679 102.594 19.8861 103.151 20.3004C103.708 20.7114 104.133 21.308 104.428 22.0902C104.727 22.8691 104.876 23.8104 104.876 24.9141C104.876 26.0244 104.728 26.9723 104.433 27.7578C104.138 28.54 103.713 29.1383 103.156 29.5526C102.599 29.9635 101.929 30.169 101.147 30.169ZM101.147 28.8416C101.837 28.8416 102.375 28.5052 102.763 27.8324C103.154 27.1596 103.35 26.1868 103.35 24.9141C103.35 24.0689 103.26 23.3546 103.081 22.7713C102.905 22.1847 102.652 21.7405 102.32 21.4389C101.992 21.134 101.601 20.9815 101.147 20.9815C100.461 20.9815 99.9225 21.3196 99.5314 21.9957C99.1403 22.6719 98.9431 23.6446 98.9398 24.9141C98.9398 25.7625 99.0276 26.4801 99.2033 27.0668C99.3823 27.6501 99.6358 28.0926 99.964 28.3942C100.292 28.6925 100.686 28.8416 101.147 28.8416ZM113.223 30.1491C112.607 30.1491 112.057 29.9917 111.573 29.6768C111.092 29.3587 110.714 28.9062 110.439 28.3196C110.167 27.7296 110.031 27.022 110.031 26.1967C110.031 25.3714 110.169 24.6655 110.444 24.0788C110.722 23.4922 111.104 23.0431 111.588 22.7315C112.071 22.42 112.62 22.2642 113.233 22.2642C113.707 22.2642 114.088 22.3438 114.377 22.5028C114.668 22.6586 114.894 22.8409 115.053 23.0497C115.215 23.2585 115.341 23.4425 115.431 23.6016H115.52V19.8182H117.007V30H115.555V28.8118H115.431C115.341 28.9742 115.212 29.1598 115.043 29.3686C114.877 29.5774 114.648 29.7597 114.357 29.9155C114.065 30.0713 113.687 30.1491 113.223 30.1491ZM113.551 28.8814C113.979 28.8814 114.34 28.7687 114.635 28.5433C114.933 28.3146 115.159 27.9981 115.311 27.5938C115.467 27.1894 115.545 26.7187 115.545 26.1818C115.545 25.6515 115.469 25.1875 115.316 24.7898C115.164 24.392 114.94 24.0821 114.645 23.8601C114.35 23.638 113.985 23.527 113.551 23.527C113.104 23.527 112.731 23.643 112.433 23.875C112.134 24.107 111.909 24.4235 111.757 24.8246C111.607 25.2256 111.533 25.678 111.533 26.1818C111.533 26.6922 111.609 27.1513 111.762 27.5589C111.914 27.9666 112.139 28.2898 112.438 28.5284C112.739 28.7637 113.11 28.8814 113.551 28.8814ZM119.128 30V22.3636H120.615V30H119.128ZM119.879 21.1854C119.62 21.1854 119.398 21.0992 119.213 20.9268C119.03 20.7512 118.939 20.5424 118.939 20.3004C118.939 20.0552 119.03 19.8464 119.213 19.674C119.398 19.4983 119.62 19.4105 119.879 19.4105C120.137 19.4105 120.358 19.4983 120.54 19.674C120.726 19.8464 120.819 20.0552 120.819 20.3004C120.819 20.5424 120.726 20.7512 120.54 20.9268C120.358 21.0992 120.137 21.1854 119.879 21.1854ZM124.837 30.169C124.353 30.169 123.915 30.0795 123.524 29.9006C123.133 29.7183 122.823 29.4548 122.595 29.1101C122.369 28.7654 122.257 28.3428 122.257 27.8423C122.257 27.4115 122.339 27.0568 122.505 26.7784C122.671 26.5 122.895 26.2796 123.176 26.1172C123.458 25.9548 123.773 25.8321 124.121 25.7493C124.469 25.6664 124.824 25.6035 125.185 25.5604C125.642 25.5073 126.013 25.4643 126.298 25.4311C126.584 25.3946 126.791 25.3366 126.92 25.2571C127.049 25.1776 127.114 25.0483 127.114 24.8693V24.8345C127.114 24.4003 126.991 24.0639 126.746 23.8253C126.504 23.5866 126.143 23.4673 125.662 23.4673C125.162 23.4673 124.767 23.5784 124.479 23.8004C124.194 24.0192 123.997 24.2628 123.887 24.5312L122.49 24.2131C122.656 23.7491 122.898 23.3745 123.216 23.0895C123.538 22.8011 123.907 22.5923 124.325 22.4631C124.742 22.3305 125.182 22.2642 125.642 22.2642C125.947 22.2642 126.27 22.3007 126.612 22.3736C126.956 22.4432 127.278 22.5724 127.576 22.7614C127.878 22.9503 128.125 23.2204 128.317 23.5717C128.509 23.9197 128.605 24.3722 128.605 24.929V30H127.154V28.956H127.094C126.998 29.1482 126.854 29.3371 126.661 29.5227C126.469 29.7083 126.222 29.8625 125.921 29.9851C125.619 30.1077 125.258 30.169 124.837 30.169ZM125.16 28.9759C125.571 28.9759 125.922 28.8946 126.214 28.7322C126.509 28.5698 126.733 28.3577 126.885 28.0959C127.041 27.8307 127.119 27.5473 127.119 27.2457V26.2614C127.066 26.3144 126.963 26.3641 126.811 26.4105C126.661 26.4536 126.491 26.4917 126.298 26.5249C126.106 26.5547 125.919 26.5829 125.737 26.6094C125.554 26.6326 125.402 26.6525 125.279 26.669C124.991 26.7055 124.727 26.7668 124.489 26.853C124.253 26.9392 124.065 27.0634 123.922 27.2259C123.783 27.3849 123.713 27.5971 123.713 27.8622C123.713 28.2301 123.849 28.5085 124.121 28.6974C124.393 28.883 124.739 28.9759 125.16 28.9759ZM132.072 19.8182V30H130.585V19.8182H132.072ZM139.794 24.228L138.447 24.4666C138.39 24.2943 138.301 24.1302 138.178 23.9744C138.059 23.8187 137.896 23.6911 137.691 23.5916C137.485 23.4922 137.229 23.4425 136.92 23.4425C136.499 23.4425 136.148 23.5369 135.866 23.7259C135.585 23.9115 135.444 24.1518 135.444 24.4467C135.444 24.7019 135.538 24.9074 135.727 25.0632C135.916 25.219 136.221 25.3466 136.642 25.446L137.855 25.7244C138.558 25.8868 139.081 26.1371 139.426 26.4751C139.771 26.8132 139.943 27.2524 139.943 27.7926C139.943 28.25 139.81 28.6577 139.545 29.0156C139.283 29.3703 138.917 29.6487 138.447 29.8509C137.979 30.053 137.437 30.1541 136.821 30.1541C135.966 30.1541 135.268 29.9718 134.728 29.6072C134.188 29.2393 133.856 28.7173 133.733 28.0412L135.17 27.8224C135.26 28.197 135.444 28.4804 135.722 28.6726C136.001 28.8615 136.363 28.956 136.811 28.956C137.298 28.956 137.688 28.8549 137.979 28.6527C138.271 28.4472 138.417 28.197 138.417 27.902C138.417 27.6634 138.327 27.4628 138.148 27.3004C137.973 27.138 137.702 27.0154 137.338 26.9325L136.045 26.6491C135.333 26.4867 134.806 26.2282 134.464 25.8736C134.126 25.5189 133.957 25.0698 133.957 24.5263C133.957 24.0755 134.083 23.6811 134.335 23.343C134.587 23.005 134.935 22.7415 135.379 22.5526C135.823 22.3603 136.332 22.2642 136.905 22.2642C137.731 22.2642 138.38 22.4432 138.854 22.8011C139.328 23.1558 139.641 23.6314 139.794 24.228ZM145.282 30V22.3636H146.769V30H145.282ZM146.033 21.1854C145.775 21.1854 145.553 21.0992 145.367 20.9268C145.185 20.7512 145.094 20.5424 145.094 20.3004C145.094 20.0552 145.185 19.8464 145.367 19.674C145.553 19.4983 145.775 19.4105 146.033 19.4105C146.292 19.4105 146.512 19.4983 146.694 19.674C146.88 19.8464 146.973 20.0552 146.973 20.3004C146.973 20.5424 146.88 20.7512 146.694 20.9268C146.512 21.0992 146.292 21.1854 146.033 21.1854ZM150.255 25.4659V30H148.769V22.3636H150.196V23.6065H150.29C150.466 23.2022 150.741 22.8774 151.115 22.6321C151.493 22.3868 151.969 22.2642 152.542 22.2642C153.063 22.2642 153.518 22.3736 153.909 22.5923C154.301 22.8078 154.604 23.1293 154.819 23.5568C155.035 23.9844 155.142 24.513 155.142 25.1428V30H153.656V25.3217C153.656 24.7682 153.512 24.3357 153.223 24.0241C152.935 23.7093 152.539 23.5518 152.035 23.5518C151.69 23.5518 151.384 23.6264 151.115 23.7756C150.85 23.9247 150.64 24.1435 150.484 24.4318C150.332 24.7169 150.255 25.0616 150.255 25.4659ZM163.063 30.169C162.579 30.169 162.142 30.0795 161.751 29.9006C161.36 29.7183 161.05 29.4548 160.821 29.1101C160.596 28.7654 160.483 28.3428 160.483 27.8423C160.483 27.4115 160.566 27.0568 160.732 26.7784C160.897 26.5 161.121 26.2796 161.403 26.1172C161.685 25.9548 161.999 25.8321 162.347 25.7493C162.695 25.6664 163.05 25.6035 163.411 25.5604C163.869 25.5073 164.24 25.4643 164.525 25.4311C164.81 25.3946 165.017 25.3366 165.146 25.2571C165.276 25.1776 165.34 25.0483 165.34 24.8693V24.8345C165.34 24.4003 165.218 24.0639 164.972 23.8253C164.731 23.5866 164.369 23.4673 163.889 23.4673C163.388 23.4673 162.994 23.5784 162.705 23.8004C162.42 24.0192 162.223 24.2628 162.114 24.5312L160.717 24.2131C160.883 23.7491 161.124 23.3745 161.443 23.0895C161.764 22.8011 162.134 22.5923 162.551 22.4631C162.969 22.3305 163.408 22.2642 163.869 22.2642C164.174 22.2642 164.497 22.3007 164.838 22.3736C165.183 22.4432 165.504 22.5724 165.803 22.7614C166.104 22.9503 166.351 23.2204 166.544 23.5717C166.736 23.9197 166.832 24.3722 166.832 24.929V30H165.38V28.956H165.32C165.224 29.1482 165.08 29.3371 164.888 29.5227C164.696 29.7083 164.449 29.8625 164.147 29.9851C163.846 30.1077 163.484 30.169 163.063 30.169ZM163.387 28.9759C163.798 28.9759 164.149 28.8946 164.441 28.7322C164.735 28.5698 164.959 28.3577 165.112 28.0959C165.267 27.8307 165.345 27.5473 165.345 27.2457V26.2614C165.292 26.3144 165.19 26.3641 165.037 26.4105C164.888 26.4536 164.717 26.4917 164.525 26.5249C164.333 26.5547 164.146 26.5829 163.963 26.6094C163.781 26.6326 163.628 26.6525 163.506 26.669C163.218 26.7055 162.954 26.7668 162.715 26.853C162.48 26.9392 162.291 27.0634 162.149 27.2259C162.009 27.3849 161.94 27.5971 161.94 27.8622C161.94 28.2301 162.076 28.5085 162.347 28.6974C162.619 28.883 162.966 28.9759 163.387 28.9759ZM175.376 30.1491C174.759 30.1491 174.209 29.9917 173.725 29.6768C173.244 29.3587 172.867 28.9062 172.591 28.3196C172.32 27.7296 172.184 27.022 172.184 26.1967C172.184 25.3714 172.321 24.6655 172.596 24.0788C172.875 23.4922 173.256 23.0431 173.74 22.7315C174.224 22.42 174.772 22.2642 175.385 22.2642C175.859 22.2642 176.241 22.3438 176.529 22.5028C176.821 22.6586 177.046 22.8409 177.205 23.0497C177.367 23.2585 177.493 23.4425 177.583 23.6016H177.672V19.8182H179.159V30H177.707V28.8118H177.583C177.493 28.9742 177.364 29.1598 177.195 29.3686C177.029 29.5774 176.801 29.7597 176.509 29.9155C176.217 30.0713 175.84 30.1491 175.376 30.1491ZM175.704 28.8814C176.131 28.8814 176.492 28.7687 176.787 28.5433C177.086 28.3146 177.311 27.9981 177.464 27.5938C177.619 27.1894 177.697 26.7187 177.697 26.1818C177.697 25.6515 177.621 25.1875 177.469 24.7898C177.316 24.392 177.092 24.0821 176.797 23.8601C176.502 23.638 176.138 23.527 175.704 23.527C175.256 23.527 174.883 23.643 174.585 23.875C174.287 24.107 174.061 24.4235 173.909 24.8246C173.76 25.2256 173.685 25.678 173.685 26.1818C173.685 26.6922 173.761 27.1513 173.914 27.5589C174.066 27.9666 174.292 28.2898 174.59 28.5284C174.892 28.7637 175.263 28.8814 175.704 28.8814ZM183.503 30.169C183.019 30.169 182.581 30.0795 182.19 29.9006C181.799 29.7183 181.489 29.4548 181.261 29.1101C181.035 28.7654 180.923 28.3428 180.923 27.8423C180.923 27.4115 181.005 27.0568 181.171 26.7784C181.337 26.5 181.561 26.2796 181.842 26.1172C182.124 25.9548 182.439 25.8321 182.787 25.7493C183.135 25.6664 183.49 25.6035 183.851 25.5604C184.308 25.5073 184.679 25.4643 184.964 25.4311C185.25 25.3946 185.457 25.3366 185.586 25.2571C185.715 25.1776 185.78 25.0483 185.78 24.8693V24.8345C185.78 24.4003 185.657 24.0639 185.412 23.8253C185.17 23.5866 184.809 23.4673 184.328 23.4673C183.828 23.4673 183.433 23.5784 183.145 23.8004C182.86 24.0192 182.663 24.2628 182.553 24.5312L181.156 24.2131C181.322 23.7491 181.564 23.3745 181.882 23.0895C182.204 22.8011 182.573 22.5923 182.991 22.4631C183.408 22.3305 183.848 22.2642 184.308 22.2642C184.613 22.2642 184.936 22.3007 185.278 22.3736C185.622 22.4432 185.944 22.5724 186.242 22.7614C186.544 22.9503 186.791 23.2204 186.983 23.5717C187.175 23.9197 187.271 24.3722 187.271 24.929V30H185.82V28.956H185.76C185.664 29.1482 185.52 29.3371 185.327 29.5227C185.135 29.7083 184.888 29.8625 184.587 29.9851C184.285 30.1077 183.924 30.169 183.503 30.169ZM183.826 28.9759C184.237 28.9759 184.588 28.8946 184.88 28.7322C185.175 28.5698 185.399 28.3577 185.551 28.0959C185.707 27.8307 185.785 27.5473 185.785 27.2457V26.2614C185.732 26.3144 185.629 26.3641 185.477 26.4105C185.327 26.4536 185.157 26.4917 184.964 26.5249C184.772 26.5547 184.585 26.5829 184.403 26.6094C184.22 26.6326 184.068 26.6525 183.945 26.669C183.657 26.7055 183.393 26.7668 183.155 26.853C182.92 26.9392 182.731 27.0634 182.588 27.2259C182.449 27.3849 182.379 27.5971 182.379 27.8622C182.379 28.2301 182.515 28.5085 182.787 28.6974C183.059 28.883 183.405 28.9759 183.826 28.9759ZM189.917 32.8636C189.695 32.8636 189.493 32.8454 189.311 32.8089C189.129 32.7758 188.993 32.7393 188.903 32.6996L189.261 31.4815C189.533 31.5545 189.775 31.5859 189.987 31.576C190.199 31.5661 190.386 31.4865 190.549 31.3374C190.715 31.1882 190.86 30.9446 190.986 30.6065L191.17 30.0994L188.376 22.3636H189.967L191.901 28.2898H191.981L193.915 22.3636H195.51L192.363 31.0192C192.218 31.4169 192.032 31.7533 191.807 32.0284C191.581 32.3068 191.313 32.5156 191.001 32.6548C190.69 32.794 190.328 32.8636 189.917 32.8636Z" fill="white"/>
<path d="M288.322 30L292.767 21.2102V21.1357H287.626V19.8182H294.358V21.1804L289.928 30H288.322ZM296.087 30V28.8864L299.532 25.3168C299.9 24.929 300.203 24.5893 300.442 24.2976C300.684 24.0026 300.865 23.7225 300.984 23.4574C301.103 23.1922 301.163 22.9105 301.163 22.6122C301.163 22.2741 301.083 21.9825 300.924 21.7372C300.765 21.4886 300.548 21.2981 300.273 21.1655C299.998 21.0296 299.688 20.9616 299.343 20.9616C298.979 20.9616 298.66 21.0362 298.389 21.1854C298.117 21.3345 297.908 21.545 297.762 21.8168C297.616 22.0885 297.544 22.4067 297.544 22.7713H296.077C296.077 22.1515 296.219 21.6096 296.504 21.1456C296.789 20.6816 297.181 20.322 297.678 20.0668C298.175 19.8082 298.74 19.679 299.373 19.679C300.013 19.679 300.576 19.8066 301.063 20.0618C301.554 20.3137 301.937 20.6584 302.212 21.0959C302.487 21.5301 302.624 22.0206 302.624 22.5675C302.624 22.9453 302.553 23.3149 302.411 23.6761C302.271 24.0374 302.028 24.4401 301.68 24.8842C301.332 25.325 300.848 25.8603 300.228 26.4901L298.205 28.608V28.6825H302.789V30H296.087ZM309.987 28.0909V27.554C309.987 27.1695 310.067 26.8182 310.226 26.5C310.388 26.1785 310.624 25.9216 310.932 25.7294C311.244 25.5339 311.62 25.4361 312.061 25.4361C312.511 25.4361 312.889 25.5322 313.194 25.7244C313.499 25.9167 313.729 26.1735 313.885 26.495C314.044 26.8165 314.124 27.1695 314.124 27.554V28.0909C314.124 28.4754 314.044 28.8284 313.885 29.1499C313.726 29.468 313.492 29.7249 313.184 29.9205C312.879 30.1127 312.505 30.2088 312.061 30.2088C311.613 30.2088 311.235 30.1127 310.927 29.9205C310.619 29.7249 310.385 29.468 310.226 29.1499C310.067 28.8284 309.987 28.4754 309.987 28.0909ZM311.146 27.554V28.0909C311.146 28.3759 311.214 28.6345 311.35 28.8665C311.485 29.0985 311.722 29.2145 312.061 29.2145C312.395 29.2145 312.629 29.0985 312.762 28.8665C312.894 28.6345 312.96 28.3759 312.96 28.0909V27.554C312.96 27.2689 312.896 27.0104 312.767 26.7784C312.641 26.5464 312.405 26.4304 312.061 26.4304C311.729 26.4304 311.494 26.5464 311.355 26.7784C311.215 27.0104 311.146 27.2689 311.146 27.554ZM304.867 22.2642V21.7273C304.867 21.3428 304.946 20.9898 305.105 20.6683C305.268 20.3468 305.503 20.09 305.811 19.8977C306.123 19.7055 306.499 19.6094 306.94 19.6094C307.391 19.6094 307.768 19.7055 308.073 19.8977C308.378 20.09 308.609 20.3468 308.764 20.6683C308.92 20.9898 308.998 21.3428 308.998 21.7273V22.2642C308.998 22.6487 308.919 23.0017 308.759 23.3232C308.604 23.6413 308.372 23.8982 308.063 24.0938C307.758 24.286 307.384 24.3821 306.94 24.3821C306.489 24.3821 306.11 24.286 305.801 24.0938C305.496 23.8982 305.264 23.6413 305.105 23.3232C304.946 23.0017 304.867 22.6487 304.867 22.2642ZM306.03 21.7273V22.2642C306.03 22.5492 306.096 22.8078 306.229 23.0398C306.365 23.2718 306.602 23.3878 306.94 23.3878C307.271 23.3878 307.503 23.2718 307.636 23.0398C307.772 22.8078 307.84 22.5492 307.84 22.2642V21.7273C307.84 21.4422 307.775 21.1837 307.646 20.9517C307.517 20.7197 307.281 20.6037 306.94 20.6037C306.608 20.6037 306.373 20.7197 306.234 20.9517C306.098 21.1837 306.03 21.4422 306.03 21.7273ZM305.339 30L312.339 19.8182H313.527L306.527 30H305.339Z" fill="white"/>
<rect opacity="0.6" x="79" y="135" width="236" height="6" rx="3" fill="#10202E"/>
<g filter="url(#filter1_d_7733_111)">
<rect x="79" y="135" width="124" height="6" rx="3" fill="#42BDAC"/>
</g>
<path d="M289.34 117.139C288.717 117.139 288.157 117.02 287.66 116.781C287.166 116.539 286.772 116.208 286.477 115.787C286.182 115.366 286.024 114.885 286.004 114.345H287.496C287.532 114.783 287.726 115.142 288.077 115.424C288.429 115.706 288.85 115.847 289.34 115.847C289.731 115.847 290.078 115.757 290.379 115.578C290.684 115.396 290.923 115.146 291.095 114.827C291.271 114.509 291.359 114.146 291.359 113.739C291.359 113.324 291.269 112.955 291.09 112.63C290.911 112.305 290.664 112.05 290.349 111.864C290.038 111.679 289.68 111.584 289.276 111.581C288.967 111.581 288.657 111.634 288.346 111.74C288.034 111.846 287.782 111.985 287.59 112.158L286.183 111.949L286.755 106.818H292.353V108.136H288.033L287.71 110.984H287.769C287.968 110.792 288.232 110.631 288.56 110.502C288.891 110.373 289.246 110.308 289.624 110.308C290.243 110.308 290.795 110.456 291.279 110.751C291.766 111.046 292.149 111.448 292.428 111.959C292.709 112.466 292.848 113.049 292.845 113.709C292.848 114.368 292.699 114.957 292.398 115.474C292.099 115.991 291.685 116.398 291.155 116.697C290.628 116.992 290.023 117.139 289.34 117.139ZM298.206 117.169C297.42 117.166 296.749 116.959 296.192 116.548C295.635 116.137 295.21 115.538 294.915 114.753C294.62 113.967 294.472 113.021 294.472 111.914C294.472 110.81 294.62 109.867 294.915 109.085C295.213 108.303 295.64 107.706 296.197 107.295C296.757 106.884 297.427 106.679 298.206 106.679C298.985 106.679 299.653 106.886 300.209 107.3C300.766 107.711 301.192 108.308 301.487 109.09C301.785 109.869 301.934 110.81 301.934 111.914C301.934 113.024 301.787 113.972 301.492 114.758C301.197 115.54 300.771 116.138 300.214 116.553C299.657 116.964 298.988 117.169 298.206 117.169ZM298.206 115.842C298.895 115.842 299.434 115.505 299.822 114.832C300.213 114.16 300.408 113.187 300.408 111.914C300.408 111.069 300.319 110.355 300.14 109.771C299.964 109.185 299.711 108.741 299.379 108.439C299.051 108.134 298.66 107.982 298.206 107.982C297.52 107.982 296.981 108.32 296.59 108.996C296.199 109.672 296.002 110.645 295.998 111.914C295.998 112.763 296.086 113.48 296.262 114.067C296.441 114.65 296.694 115.093 297.023 115.394C297.351 115.692 297.745 115.842 298.206 115.842ZM309.013 115.091V114.554C309.013 114.17 309.092 113.818 309.251 113.5C309.414 113.179 309.649 112.922 309.957 112.729C310.269 112.534 310.645 112.436 311.086 112.436C311.537 112.436 311.915 112.532 312.219 112.724C312.524 112.917 312.755 113.174 312.911 113.495C313.07 113.817 313.149 114.17 313.149 114.554V115.091C313.149 115.475 313.07 115.828 312.911 116.15C312.751 116.468 312.518 116.725 312.21 116.92C311.905 117.113 311.53 117.209 311.086 117.209C310.638 117.209 310.261 117.113 309.952 116.92C309.644 116.725 309.411 116.468 309.251 116.15C309.092 115.828 309.013 115.475 309.013 115.091ZM310.171 114.554V115.091C310.171 115.376 310.239 115.634 310.375 115.866C310.511 116.098 310.748 116.214 311.086 116.214C311.421 116.214 311.654 116.098 311.787 115.866C311.92 115.634 311.986 115.376 311.986 115.091V114.554C311.986 114.269 311.921 114.01 311.792 113.778C311.666 113.546 311.431 113.43 311.086 113.43C310.754 113.43 310.519 113.546 310.38 113.778C310.241 114.01 310.171 114.269 310.171 114.554ZM303.892 109.264V108.727C303.892 108.343 303.972 107.99 304.131 107.668C304.293 107.347 304.528 107.09 304.837 106.898C305.148 106.705 305.524 106.609 305.965 106.609C306.416 106.609 306.794 106.705 307.099 106.898C307.404 107.09 307.634 107.347 307.79 107.668C307.946 107.99 308.023 108.343 308.023 108.727V109.264C308.023 109.649 307.944 110.002 307.785 110.323C307.629 110.641 307.397 110.898 307.089 111.094C306.784 111.286 306.409 111.382 305.965 111.382C305.514 111.382 305.135 111.286 304.827 111.094C304.522 110.898 304.29 110.641 304.131 110.323C303.972 110.002 303.892 109.649 303.892 109.264ZM305.055 108.727V109.264C305.055 109.549 305.122 109.808 305.254 110.04C305.39 110.272 305.627 110.388 305.965 110.388C306.297 110.388 306.529 110.272 306.661 110.04C306.797 109.808 306.865 109.549 306.865 109.264V108.727C306.865 108.442 306.8 108.184 306.671 107.952C306.542 107.72 306.307 107.604 305.965 107.604C305.634 107.604 305.398 107.72 305.259 107.952C305.123 108.184 305.055 108.442 305.055 108.727ZM304.364 117L311.364 106.818H312.553L305.553 117H304.364Z" fill="white"/>
<path d="M83.8423 106.818V117H82.3011V108.359H82.2415L79.8054 109.95V108.479L82.3459 106.818H83.8423ZM90.1413 117.169C89.3558 117.166 88.6847 116.959 88.1278 116.548C87.571 116.137 87.1451 115.538 86.8501 114.753C86.5552 113.967 86.4077 113.021 86.4077 111.914C86.4077 110.81 86.5552 109.867 86.8501 109.085C87.1484 108.303 87.576 107.706 88.1328 107.295C88.6929 106.884 89.3625 106.679 90.1413 106.679C90.9202 106.679 91.5881 106.886 92.1449 107.3C92.7017 107.711 93.1276 108.308 93.4226 109.09C93.7209 109.869 93.87 110.81 93.87 111.914C93.87 113.024 93.7225 113.972 93.4276 114.758C93.1326 115.54 92.7067 116.138 92.1499 116.553C91.593 116.964 90.9235 117.169 90.1413 117.169ZM90.1413 115.842C90.8307 115.842 91.3693 115.505 91.7571 114.832C92.1482 114.16 92.3438 113.187 92.3438 111.914C92.3438 111.069 92.2543 110.355 92.0753 109.771C91.8996 109.185 91.6461 108.741 91.3146 108.439C90.9865 108.134 90.5954 107.982 90.1413 107.982C89.4553 107.982 88.9167 108.32 88.5256 108.996C88.1345 109.672 87.9373 110.645 87.9339 111.914C87.9339 112.763 88.0218 113.48 88.1974 114.067C88.3764 114.65 88.63 115.093 88.9581 115.394C89.2862 115.692 89.6806 115.842 90.1413 115.842ZM99.478 106.818H101.342L104.584 114.733H104.703L107.945 106.818H109.809V117H108.347V109.632H108.253L105.25 116.985H104.037L101.034 109.627H100.94V117H99.478V106.818ZM115.214 117.154C114.462 117.154 113.814 116.993 113.27 116.672C112.73 116.347 112.313 115.891 112.018 115.305C111.726 114.715 111.58 114.024 111.58 113.232C111.58 112.449 111.726 111.76 112.018 111.163C112.313 110.567 112.724 110.101 113.251 109.766C113.781 109.432 114.401 109.264 115.11 109.264C115.541 109.264 115.958 109.335 116.363 109.478C116.767 109.621 117.13 109.844 117.452 110.149C117.773 110.454 118.027 110.85 118.212 111.337C118.398 111.821 118.491 112.41 118.491 113.102V113.629H112.42V112.516H117.034C117.034 112.125 116.954 111.778 116.795 111.477C116.636 111.172 116.412 110.931 116.124 110.756C115.839 110.58 115.504 110.492 115.12 110.492C114.702 110.492 114.338 110.595 114.026 110.8C113.718 111.003 113.479 111.268 113.31 111.596C113.144 111.921 113.062 112.274 113.062 112.655V113.525C113.062 114.035 113.151 114.469 113.33 114.827C113.512 115.185 113.766 115.459 114.091 115.648C114.416 115.833 114.795 115.926 115.229 115.926C115.511 115.926 115.768 115.886 116 115.807C116.232 115.724 116.432 115.601 116.601 115.439C116.77 115.277 116.9 115.076 116.989 114.837L118.396 115.091C118.283 115.505 118.081 115.868 117.79 116.18C117.501 116.488 117.138 116.728 116.701 116.901C116.267 117.07 115.771 117.154 115.214 117.154ZM123.431 117.154C122.679 117.154 122.031 116.993 121.487 116.672C120.947 116.347 120.529 115.891 120.234 115.305C119.943 114.715 119.797 114.024 119.797 113.232C119.797 112.449 119.943 111.76 120.234 111.163C120.529 110.567 120.94 110.101 121.467 109.766C121.998 109.432 122.617 109.264 123.327 109.264C123.758 109.264 124.175 109.335 124.58 109.478C124.984 109.621 125.347 109.844 125.668 110.149C125.99 110.454 126.243 110.85 126.429 111.337C126.615 111.821 126.707 112.41 126.707 113.102V113.629H120.637V112.516H125.251C125.251 112.125 125.171 111.778 125.012 111.477C124.853 111.172 124.629 110.931 124.341 110.756C124.056 110.58 123.721 110.492 123.337 110.492C122.919 110.492 122.554 110.595 122.243 110.8C121.935 111.003 121.696 111.268 121.527 111.596C121.361 111.921 121.278 112.274 121.278 112.655V113.525C121.278 114.035 121.368 114.469 121.547 114.827C121.729 115.185 121.983 115.459 122.308 115.648C122.632 115.833 123.012 115.926 123.446 115.926C123.728 115.926 123.985 115.886 124.217 115.807C124.449 115.724 124.649 115.601 124.818 115.439C124.987 115.277 125.116 115.076 125.206 114.837L126.613 115.091C126.5 115.505 126.298 115.868 126.006 116.18C125.718 116.488 125.355 116.728 124.918 116.901C124.483 117.07 123.988 117.154 123.431 117.154ZM131.921 109.364V110.557H127.75V109.364H131.921ZM128.869 107.534H130.355V114.758C130.355 115.046 130.398 115.263 130.485 115.409C130.571 115.552 130.682 115.649 130.818 115.702C130.957 115.752 131.108 115.777 131.27 115.777C131.389 115.777 131.494 115.769 131.583 115.752C131.673 115.736 131.742 115.722 131.792 115.712L132.061 116.94C131.974 116.973 131.852 117.007 131.693 117.04C131.534 117.076 131.335 117.096 131.096 117.099C130.705 117.106 130.34 117.036 130.002 116.891C129.664 116.745 129.391 116.519 129.182 116.214C128.973 115.91 128.869 115.527 128.869 115.066V107.534ZM133.566 117V109.364H135.052V117H133.566ZM134.316 108.185C134.058 108.185 133.836 108.099 133.65 107.927C133.468 107.751 133.377 107.542 133.377 107.3C133.377 107.055 133.468 106.846 133.65 106.674C133.836 106.498 134.058 106.411 134.316 106.411C134.575 106.411 134.795 106.498 134.978 106.674C135.163 106.846 135.256 107.055 135.256 107.3C135.256 107.542 135.163 107.751 134.978 107.927C134.795 108.099 134.575 108.185 134.316 108.185ZM138.539 112.466V117H137.052V109.364H138.479V110.607H138.573C138.749 110.202 139.024 109.877 139.399 109.632C139.776 109.387 140.252 109.264 140.825 109.264C141.346 109.264 141.802 109.374 142.193 109.592C142.584 109.808 142.887 110.129 143.102 110.557C143.318 110.984 143.426 111.513 143.426 112.143V117H141.939V112.322C141.939 111.768 141.795 111.336 141.507 111.024C141.218 110.709 140.822 110.552 140.318 110.552C139.974 110.552 139.667 110.626 139.399 110.776C139.133 110.925 138.923 111.143 138.767 111.432C138.615 111.717 138.539 112.062 138.539 112.466ZM148.621 120.023C148.014 120.023 147.492 119.943 147.055 119.784C146.621 119.625 146.266 119.415 145.991 119.153C145.716 118.891 145.51 118.604 145.374 118.293L146.652 117.766C146.742 117.911 146.861 118.066 147.01 118.228C147.163 118.394 147.368 118.535 147.627 118.651C147.888 118.767 148.225 118.825 148.636 118.825C149.199 118.825 149.665 118.687 150.033 118.412C150.401 118.14 150.585 117.706 150.585 117.109V115.608H150.49C150.401 115.77 150.271 115.951 150.102 116.15C149.937 116.349 149.708 116.521 149.416 116.667C149.125 116.813 148.745 116.886 148.278 116.886C147.675 116.886 147.131 116.745 146.647 116.463C146.167 116.178 145.785 115.759 145.504 115.205C145.225 114.648 145.086 113.964 145.086 113.152C145.086 112.34 145.224 111.644 145.499 111.064C145.777 110.484 146.158 110.04 146.642 109.732C147.126 109.42 147.675 109.264 148.288 109.264C148.762 109.264 149.145 109.344 149.436 109.503C149.728 109.659 149.955 109.841 150.117 110.05C150.283 110.259 150.411 110.442 150.5 110.602H150.61V109.364H152.066V117.169C152.066 117.825 151.914 118.364 151.609 118.785C151.304 119.206 150.891 119.517 150.371 119.719C149.854 119.922 149.271 120.023 148.621 120.023ZM148.606 115.653C149.034 115.653 149.395 115.553 149.69 115.354C149.988 115.152 150.213 114.864 150.366 114.489C150.522 114.112 150.6 113.659 150.6 113.132C150.6 112.618 150.523 112.166 150.371 111.775C150.218 111.384 149.995 111.079 149.7 110.86C149.405 110.638 149.04 110.527 148.606 110.527C148.159 110.527 147.786 110.643 147.487 110.875C147.189 111.104 146.964 111.415 146.811 111.81C146.662 112.204 146.588 112.645 146.588 113.132C146.588 113.633 146.664 114.072 146.816 114.45C146.969 114.827 147.194 115.122 147.492 115.335C147.794 115.547 148.165 115.653 148.606 115.653ZM159.782 111.228L158.435 111.467C158.378 111.294 158.289 111.13 158.166 110.974C158.047 110.819 157.885 110.691 157.679 110.592C157.474 110.492 157.217 110.442 156.909 110.442C156.488 110.442 156.136 110.537 155.855 110.726C155.573 110.911 155.432 111.152 155.432 111.447C155.432 111.702 155.526 111.907 155.715 112.063C155.904 112.219 156.209 112.347 156.63 112.446L157.843 112.724C158.546 112.887 159.07 113.137 159.414 113.475C159.759 113.813 159.931 114.252 159.931 114.793C159.931 115.25 159.799 115.658 159.534 116.016C159.272 116.37 158.905 116.649 158.435 116.851C157.968 117.053 157.426 117.154 156.809 117.154C155.954 117.154 155.256 116.972 154.716 116.607C154.176 116.239 153.844 115.717 153.722 115.041L155.159 114.822C155.248 115.197 155.432 115.48 155.71 115.673C155.989 115.862 156.352 115.956 156.799 115.956C157.286 115.956 157.676 115.855 157.968 115.653C158.259 115.447 158.405 115.197 158.405 114.902C158.405 114.663 158.316 114.463 158.137 114.3C157.961 114.138 157.691 114.015 157.326 113.933L156.034 113.649C155.321 113.487 154.794 113.228 154.453 112.874C154.115 112.519 153.945 112.07 153.945 111.526C153.945 111.076 154.071 110.681 154.323 110.343C154.575 110.005 154.923 109.741 155.367 109.553C155.811 109.36 156.32 109.264 156.894 109.264C157.719 109.264 158.369 109.443 158.843 109.801C159.316 110.156 159.63 110.631 159.782 111.228Z" fill="white"/>
<circle cx="30" cy="122" r="30" fill="#10202E"/>
<path d="M23.8889 119.556H36.1111M23.8889 124.444H30M23.8889 111V113.444M36.1111 111V113.444M22.9111 133H37.0889C38.4579 133 39.1425 133 39.6653 132.734C40.1253 132.499 40.4993 132.125 40.7336 131.665C41 131.142 41 130.458 41 129.089V117.356C41 115.987 41 115.302 40.7336 114.779C40.4993 114.319 40.1253 113.945 39.6653 113.711C39.1425 113.444 38.4579 113.444 37.0889 113.444H22.9111C21.5421 113.444 20.8576 113.444 20.3347 113.711C19.8747 113.945 19.5008 114.319 19.2664 114.779C19 115.302 19 115.987 19 117.356V129.089C19 130.458 19 131.142 19.2664 131.665C19.5008 132.125 19.8747 132.499 20.3347 132.734C20.8576 133 21.5421 133 22.9111 133Z" stroke="#42BDAC" stroke-width="1.8" stroke-linecap="round" stroke-linejoin="round"/>
<circle cx="30" cy="41" r="30" fill="#10202E"/>
<path d="M40.3237 47.3256C40.5807 47.5835 40.7734 47.8983 40.8861 48.2445C40.9988 48.5907 41.0284 48.9586 40.9725 49.3184C40.9166 49.6782 40.7767 50.0198 40.5642 50.3155C40.3518 50.6112 40.0726 50.8526 39.7495 51.0204C37.9027 52.0074 35.751 52.2597 33.726 51.7266C28.3515 50.3736 20.6264 42.6485 19.2734 37.274C18.7403 35.249 18.9926 33.0973 19.9796 31.2505C20.1474 30.9274 20.3888 30.6482 20.6845 30.4358C20.9802 30.2233 21.3218 30.0834 21.6816 30.0275C22.0414 29.9716 22.4093 30.0012 22.7555 30.1139C23.1017 30.2266 23.4165 30.4193 23.6744 30.6763L25.9679 32.9687C26.2986 33.2961 26.5224 33.716 26.6098 34.1731C26.6972 34.6303 26.644 35.1031 26.4574 35.5294C26.2531 36.0077 25.9631 36.4447 25.6016 36.8186C22.9792 39.4409 31.5602 48.0219 34.1814 45.3984C34.5554 45.0356 34.9927 44.7445 35.4717 44.5393C35.8979 44.3524 36.3709 44.2991 36.8281 44.3864C37.2852 44.4738 37.7052 44.6978 38.0324 45.0288L40.3237 47.3256Z" fill="#42BDAC"/>
<g filter="url(#filter2_d_7733_111)">
<circle cx="53" cy="20" r="10" fill="#42BDAC"/>
<circle cx="53" cy="20" r="10" fill="url(#paint0_linear_7733_111)"/>
<path fill-rule="evenodd" clip-rule="evenodd" d="M51.3724 16.5103L56.4887 19.9986L51.3724 23.487V16.5103Z" fill="#10202E" stroke="#10202E" stroke-width="0.930233" stroke-linecap="round" stroke-linejoin="round"/>
</g>
<defs>
<filter id="filter0_d_7733_111" x="69" y="37" width="202" height="26" filterUnits="userSpaceOnUse" color-interpolation-filters="sRGB">
<feFlood flood-opacity="0" result="BackgroundImageFix"/>
<feColorMatrix in="SourceAlpha" type="matrix" values="0 0 0 0 0 0 0 0 0 0 0 0 0 0 0 0 0 0 127 0" result="hardAlpha"/>
<feOffset/>
<feGaussianBlur stdDeviation="5"/>
<feComposite in2="hardAlpha" operator="out"/>
<feColorMatrix type="matrix" values="0 0 0 0 0.257184 0 0 0 0 0.741965 0 0 0 0 0.674947 0 0 0 0.2 0"/>
<feBlend mode="normal" in2="BackgroundImageFix" result="effect1_dropShadow_7733_111"/>
<feBlend mode="normal" in="SourceGraphic" in2="effect1_dropShadow_7733_111" result="shape"/>
</filter>
<filter id="filter1_d_7733_111" x="69" y="125" width="144" height="26" filterUnits="userSpaceOnUse" color-interpolation-filters="sRGB">
<feFlood flood-opacity="0" result="BackgroundImageFix"/>
<feColorMatrix in="SourceAlpha" type="matrix" values="0 0 0 0 0 0 0 0 0 0 0 0 0 0 0 0 0 0 127 0" result="hardAlpha"/>
<feOffset/>
<feGaussianBlur stdDeviation="5"/>
<feComposite in2="hardAlpha" operator="out"/>
<feColorMatrix type="matrix" values="0 0 0 0 0.257184 0 0 0 0 0.741965 0 0 0 0 0.674947 0 0 0 0.2 0"/>
<feBlend mode="normal" in2="BackgroundImageFix" result="effect1_dropShadow_7733_111"/>
<feBlend mode="normal" in="SourceGraphic" in2="effect1_dropShadow_7733_111" result="shape"/>
</filter>
<filter id="filter2_d_7733_111" x="33" y="0" width="40" height="40" filterUnits="userSpaceOnUse" color-interpolation-filters="sRGB">
<feFlood flood-opacity="0" result="BackgroundImageFix"/>
<feColorMatrix in="SourceAlpha" type="matrix" values="0 0 0 0 0 0 0 0 0 0 0 0 0 0 0 0 0 0 127 0" result="hardAlpha"/>
<feOffset/>
<feGaussianBlur stdDeviation="5"/>
<feComposite in2="hardAlpha" operator="out"/>
<feColorMatrix type="matrix" values="0 0 0 0 0.257184 0 0 0 0 0.741965 0 0 0 0 0.674947 0 0 0 0.1 0"/>
<feBlend mode="normal" in2="BackgroundImageFix" result="effect1_dropShadow_7733_111"/>
<feBlend mode="normal" in="SourceGraphic" in2="effect1_dropShadow_7733_111" result="shape"/>
</filter>
<linearGradient id="paint0_linear_7733_111" x1="51.3845" y1="8.26711" x2="67.2759" y2="19.8077" gradientUnits="userSpaceOnUse">
<stop stop-color="white"/>
<stop offset="1" stop-color="#F0F3F8"/>
</linearGradient>
</defs>
</svg>
