<svg width="344" height="143" viewBox="0 0 344 143" fill="none" xmlns="http://www.w3.org/2000/svg">
<circle cx="40" cy="30" r="30" fill="#42BDAC" fill-opacity="0.11"/>
<path d="M50.9316 21.0024L47.3098 39.672C47.0363 40.9894 46.324 41.3174 45.3116 40.6971L39.7927 36.252L37.1301 39.0517C36.8352 39.3741 36.5892 39.643 36.0209 39.643L36.4178 33.5L46.6454 23.3983C47.0903 22.9654 46.5486 22.7246 45.9545 23.1584L33.3103 31.8612L27.8669 29.9985C26.683 29.5947 26.6616 28.7045 28.1138 28.0833L49.4049 19.1172C50.3907 18.7133 51.2531 19.3561 50.9316 21.0024Z" fill="#42BDAC"/>
<path d="M90.8615 45.179C89.9411 45.179 89.1229 45.0213 88.407 44.706C87.6953 44.3906 87.1328 43.9517 86.7195 43.3892C86.3061 42.8267 86.0866 42.1768 86.0611 41.4396H88.4645C88.4858 41.7933 88.603 42.1023 88.8161 42.3665C89.0291 42.6264 89.3125 42.8288 89.6662 42.9737C90.0199 43.1186 90.4162 43.1911 90.8551 43.1911C91.3239 43.1911 91.7393 43.1101 92.1016 42.9482C92.4638 42.782 92.7472 42.5518 92.9517 42.2578C93.1563 41.9638 93.2564 41.625 93.2521 41.2415C93.2564 40.8452 93.1541 40.4957 92.9453 40.1932C92.7365 39.8906 92.4339 39.6541 92.0376 39.4837C91.6456 39.3132 91.1726 39.228 90.6186 39.228H89.4616V37.3999H90.6186C91.0746 37.3999 91.473 37.321 91.8139 37.1634C92.1591 37.0057 92.4297 36.7841 92.6257 36.4986C92.8217 36.2088 92.9176 35.8743 92.9134 35.495C92.9176 35.1243 92.8345 34.8026 92.6641 34.5298C92.4979 34.2528 92.2614 34.0376 91.9545 33.8842C91.652 33.7308 91.2962 33.6541 90.8871 33.6541C90.4865 33.6541 90.1158 33.7266 89.7749 33.8714C89.4339 34.0163 89.1591 34.223 88.9503 34.4915C88.7415 34.7557 88.6307 35.071 88.6179 35.4375H86.3359C86.353 34.7045 86.5639 34.0611 86.9688 33.5071C87.3778 32.9489 87.9233 32.5142 88.6051 32.2031C89.2869 31.8878 90.0518 31.7301 90.8999 31.7301C91.7734 31.7301 92.532 31.8942 93.1754 32.2223C93.8232 32.5462 94.3239 32.983 94.6776 33.5327C95.0313 34.0824 95.2081 34.6896 95.2081 35.3544C95.2124 36.0916 94.995 36.7095 94.5561 37.2081C94.1214 37.7067 93.5504 38.0327 92.843 38.1861V38.2884C93.7635 38.4162 94.4688 38.7571 94.9588 39.3111C95.4531 39.8608 95.6982 40.5447 95.6939 41.3629C95.6939 42.0959 95.4851 42.7521 95.0675 43.3317C94.6541 43.907 94.0831 44.3587 93.3544 44.6868C92.63 45.0149 91.799 45.179 90.8615 45.179ZM102.727 45.2493C101.674 45.2493 100.771 44.983 100.017 44.4503C99.2665 43.9134 98.6891 43.1399 98.2843 42.13C97.8837 41.1158 97.6834 39.8949 97.6834 38.4673C97.6877 37.0398 97.8901 35.8253 98.2907 34.8239C98.6955 33.8182 99.2729 33.0511 100.023 32.5227C100.777 31.9943 101.678 31.7301 102.727 31.7301C103.775 31.7301 104.676 31.9943 105.431 32.5227C106.185 33.0511 106.762 33.8182 107.163 34.8239C107.568 35.8295 107.77 37.044 107.77 38.4673C107.77 39.8991 107.568 41.1222 107.163 42.1364C106.762 43.1463 106.185 43.9176 105.431 44.4503C104.681 44.983 103.779 45.2493 102.727 45.2493ZM102.727 43.2486C103.545 43.2486 104.191 42.8459 104.664 42.0405C105.141 41.2308 105.379 40.0398 105.379 38.4673C105.379 37.4276 105.271 36.554 105.053 35.8466C104.836 35.1392 104.529 34.6065 104.133 34.2486C103.737 33.8864 103.268 33.7053 102.727 33.7053C101.913 33.7053 101.269 34.1101 100.796 34.9197C100.323 35.7251 100.085 36.9077 100.08 38.4673C100.076 39.5114 100.181 40.3892 100.394 41.1009C100.611 41.8125 100.918 42.3494 101.314 42.7116C101.71 43.0696 102.181 43.2486 102.727 43.2486ZM119.197 45.2493C118.145 45.2493 117.241 44.983 116.487 44.4503C115.737 43.9134 115.16 43.1399 114.755 42.13C114.354 41.1158 114.154 39.8949 114.154 38.4673C114.158 37.0398 114.361 35.8253 114.761 34.8239C115.166 33.8182 115.744 33.0511 116.494 32.5227C117.248 31.9943 118.149 31.7301 119.197 31.7301C120.246 31.7301 121.147 31.9943 121.901 32.5227C122.656 33.0511 123.233 33.8182 123.634 34.8239C124.038 35.8295 124.241 37.044 124.241 38.4673C124.241 39.8991 124.038 41.1222 123.634 42.1364C123.233 43.1463 122.656 43.9176 121.901 44.4503C121.151 44.983 120.25 45.2493 119.197 45.2493ZM119.197 43.2486C120.016 43.2486 120.661 42.8459 121.134 42.0405C121.612 41.2308 121.85 40.0398 121.85 38.4673C121.85 37.4276 121.741 36.554 121.524 35.8466C121.307 35.1392 121 34.6065 120.604 34.2486C120.207 33.8864 119.739 33.7053 119.197 33.7053C118.384 33.7053 117.74 34.1101 117.267 34.9197C116.794 35.7251 116.555 36.9077 116.551 38.4673C116.547 39.5114 116.651 40.3892 116.864 41.1009C117.082 41.8125 117.388 42.3494 117.785 42.7116C118.181 43.0696 118.652 43.2486 119.197 43.2486ZM131.159 45.179C130.532 45.1747 129.921 45.0661 129.324 44.853C128.727 44.6357 128.191 44.2841 127.713 43.7983C127.236 43.3082 126.857 42.6584 126.575 41.8487C126.294 41.0348 126.156 40.027 126.16 38.8253C126.16 37.7045 126.279 36.7053 126.518 35.8274C126.757 34.9496 127.1 34.2081 127.547 33.603C127.994 32.9936 128.534 32.5291 129.164 32.2095C129.799 31.8899 130.509 31.7301 131.293 31.7301C132.115 31.7301 132.844 31.892 133.479 32.2159C134.118 32.5398 134.634 32.983 135.026 33.5455C135.418 34.1037 135.661 34.7344 135.754 35.4375H133.421C133.302 34.9347 133.057 34.5341 132.686 34.2358C132.32 33.9332 131.855 33.782 131.293 33.782C130.385 33.782 129.686 34.1761 129.196 34.9645C128.71 35.7528 128.465 36.8352 128.461 38.2116H128.551C128.759 37.8366 129.03 37.5149 129.362 37.2464C129.695 36.978 130.07 36.7713 130.487 36.6264C130.909 36.4773 131.355 36.4027 131.823 36.4027C132.59 36.4027 133.279 36.5859 133.888 36.9524C134.502 37.3189 134.987 37.8239 135.345 38.4673C135.703 39.1065 135.88 39.8395 135.876 40.6662C135.88 41.527 135.684 42.3004 135.288 42.9865C134.892 43.6683 134.34 44.2053 133.632 44.5973C132.925 44.9893 132.1 45.1832 131.159 45.179ZM131.146 43.2614C131.61 43.2614 132.026 43.1484 132.392 42.9226C132.759 42.6967 133.048 42.392 133.262 42.0085C133.475 41.625 133.579 41.1946 133.575 40.7173C133.579 40.2486 133.477 39.8246 133.268 39.4453C133.063 39.0661 132.78 38.7656 132.418 38.544C132.056 38.3224 131.642 38.2116 131.178 38.2116C130.833 38.2116 130.511 38.2777 130.213 38.4098C129.914 38.5419 129.654 38.7251 129.433 38.9595C129.211 39.1896 129.036 39.4581 128.909 39.7649C128.785 40.0675 128.721 40.3913 128.717 40.7365C128.721 41.1925 128.828 41.6122 129.036 41.9957C129.245 42.3793 129.533 42.6861 129.899 42.9162C130.266 43.1463 130.681 43.2614 131.146 43.2614ZM143.361 31.9091V45H140.99V34.2166H140.913L137.851 36.1726V33.9993L141.105 31.9091H143.361Z" fill="#42BDAC"/>
<path d="M85.6165 11.1406V9.81818H93.4964V11.1406H90.3196V20H88.7884V11.1406H85.6165ZM97.2276 20.1541C96.5117 20.1541 95.887 19.9901 95.3533 19.6619C94.8197 19.3338 94.4054 18.8748 94.1104 18.2848C93.8155 17.6948 93.668 17.0054 93.668 16.2166C93.668 15.4245 93.8155 14.7318 94.1104 14.1385C94.4054 13.5452 94.8197 13.0845 95.3533 12.7564C95.887 12.4283 96.5117 12.2642 97.2276 12.2642C97.9435 12.2642 98.5683 12.4283 99.1019 12.7564C99.6355 13.0845 100.05 13.5452 100.345 14.1385C100.64 14.7318 100.787 15.4245 100.787 16.2166C100.787 17.0054 100.64 17.6948 100.345 18.2848C100.05 18.8748 99.6355 19.3338 99.1019 19.6619C98.5683 19.9901 97.9435 20.1541 97.2276 20.1541ZM97.2326 18.9062C97.6966 18.9062 98.0811 18.7836 98.386 18.5384C98.6909 18.2931 98.9163 17.9666 99.0621 17.5589C99.2113 17.1513 99.2859 16.7022 99.2859 16.2116C99.2859 15.7244 99.2113 15.277 99.0621 14.8693C98.9163 14.4583 98.6909 14.1286 98.386 13.88C98.0811 13.6314 97.6966 13.5071 97.2326 13.5071C96.7653 13.5071 96.3775 13.6314 96.0692 13.88C95.7643 14.1286 95.5373 14.4583 95.3881 14.8693C95.2423 15.277 95.1694 15.7244 95.1694 16.2116C95.1694 16.7022 95.2423 17.1513 95.3881 17.5589C95.5373 17.9666 95.7643 18.2931 96.0692 18.5384C96.3775 18.7836 96.7653 18.9062 97.2326 18.9062ZM106.011 12.3636V13.5568H101.84V12.3636H106.011ZM102.959 10.5341H104.445V17.7578C104.445 18.0462 104.488 18.2633 104.574 18.4091C104.661 18.5516 104.772 18.6494 104.907 18.7024C105.047 18.7521 105.198 18.777 105.36 18.777C105.479 18.777 105.584 18.7687 105.673 18.7521C105.763 18.7356 105.832 18.7223 105.882 18.7124L106.15 19.9403C106.064 19.9735 105.942 20.0066 105.782 20.0398C105.623 20.0762 105.425 20.0961 105.186 20.0994C104.795 20.1061 104.43 20.0365 104.092 19.8906C103.754 19.7448 103.481 19.5194 103.272 19.2145C103.063 18.9096 102.959 18.5268 102.959 18.0661V10.5341ZM109.878 20.169C109.394 20.169 108.956 20.0795 108.565 19.9006C108.174 19.7183 107.864 19.4548 107.636 19.1101C107.41 18.7654 107.298 18.3428 107.298 17.8423C107.298 17.4115 107.38 17.0568 107.546 16.7784C107.712 16.5 107.936 16.2796 108.217 16.1172C108.499 15.9548 108.814 15.8321 109.162 15.7493C109.51 15.6664 109.865 15.6035 110.226 15.5604C110.683 15.5073 111.054 15.4643 111.339 15.4311C111.625 15.3946 111.832 15.3366 111.961 15.2571C112.09 15.1776 112.155 15.0483 112.155 14.8693V14.8345C112.155 14.4003 112.032 14.0639 111.787 13.8253C111.545 13.5866 111.184 13.4673 110.703 13.4673C110.203 13.4673 109.808 13.5784 109.52 13.8004C109.235 14.0192 109.038 14.2628 108.928 14.5312L107.531 14.2131C107.697 13.7491 107.939 13.3745 108.257 13.0895C108.579 12.8011 108.948 12.5923 109.366 12.4631C109.783 12.3305 110.223 12.2642 110.683 12.2642C110.988 12.2642 111.311 12.3007 111.653 12.3736C111.997 12.4432 112.319 12.5724 112.617 12.7614C112.919 12.9503 113.166 13.2204 113.358 13.5717C113.55 13.9197 113.646 14.3722 113.646 14.929V20H112.195V18.956H112.135C112.039 19.1482 111.895 19.3371 111.702 19.5227C111.51 19.7083 111.263 19.8625 110.962 19.9851C110.66 20.1077 110.299 20.169 109.878 20.169ZM110.201 18.9759C110.612 18.9759 110.963 18.8946 111.255 18.7322C111.55 18.5698 111.774 18.3577 111.926 18.0959C112.082 17.8307 112.16 17.5473 112.16 17.2457V16.2614C112.107 16.3144 112.004 16.3641 111.852 16.4105C111.702 16.4536 111.532 16.4917 111.339 16.5249C111.147 16.5547 110.96 16.5829 110.778 16.6094C110.595 16.6326 110.443 16.6525 110.32 16.669C110.032 16.7055 109.768 16.7668 109.53 16.853C109.295 16.9392 109.106 17.0634 108.963 17.2259C108.824 17.3849 108.754 17.5971 108.754 17.8622C108.754 18.2301 108.89 18.5085 109.162 18.6974C109.434 18.883 109.78 18.9759 110.201 18.9759ZM117.113 9.81818V20H115.626V9.81818H117.113ZM126.109 20.1541C125.356 20.1541 124.709 19.9934 124.165 19.6719C123.625 19.3471 123.207 18.8913 122.912 18.3047C122.62 17.7147 122.475 17.0237 122.475 16.2315C122.475 15.4493 122.62 14.7599 122.912 14.1634C123.207 13.5668 123.618 13.1011 124.145 12.7663C124.675 12.4316 125.295 12.2642 126.004 12.2642C126.435 12.2642 126.853 12.3355 127.257 12.478C127.662 12.6205 128.025 12.8442 128.346 13.1491C128.668 13.4541 128.921 13.8501 129.107 14.3374C129.292 14.8213 129.385 15.4096 129.385 16.1023V16.6293H123.315V15.5156H127.928C127.928 15.1245 127.849 14.7782 127.69 14.4766C127.531 14.1716 127.307 13.9313 127.019 13.7557C126.734 13.58 126.399 13.4922 126.014 13.4922C125.597 13.4922 125.232 13.5949 124.921 13.8004C124.612 14.0026 124.374 14.2678 124.205 14.5959C124.039 14.9207 123.956 15.2737 123.956 15.6548V16.5249C123.956 17.0353 124.046 17.4695 124.225 17.8274C124.407 18.1854 124.66 18.4588 124.985 18.6477C125.31 18.8333 125.69 18.9261 126.124 18.9261C126.405 18.9261 126.662 18.8864 126.894 18.8068C127.126 18.724 127.327 18.6013 127.496 18.4389C127.665 18.2765 127.794 18.076 127.884 17.8374L129.291 18.0909C129.178 18.5052 128.976 18.8681 128.684 19.1797C128.396 19.4879 128.033 19.7282 127.595 19.9006C127.161 20.0696 126.666 20.1541 126.109 20.1541ZM131.034 20V12.3636H132.461V13.6065H132.556C132.715 13.1856 132.975 12.8575 133.336 12.6222C133.698 12.3835 134.13 12.2642 134.634 12.2642C135.144 12.2642 135.572 12.3835 135.917 12.6222C136.265 12.8608 136.521 13.1889 136.687 13.6065H136.767C136.949 13.1989 137.239 12.8741 137.637 12.6321C138.034 12.3868 138.508 12.2642 139.059 12.2642C139.751 12.2642 140.316 12.4813 140.754 12.9155C141.195 13.3497 141.415 14.0043 141.415 14.8793V20H139.929V15.0185C139.929 14.5014 139.788 14.1269 139.506 13.8949C139.224 13.6629 138.888 13.5469 138.497 13.5469C138.013 13.5469 137.637 13.696 137.368 13.9943C137.1 14.2893 136.966 14.6688 136.966 15.1328V20H135.484V14.924C135.484 14.5097 135.355 14.1766 135.096 13.9247C134.838 13.6728 134.501 13.5469 134.087 13.5469C133.805 13.5469 133.545 13.6214 133.306 13.7706C133.071 13.9164 132.881 14.1203 132.735 14.3821C132.592 14.6439 132.521 14.9472 132.521 15.2919V20H131.034ZM145.63 20.169C145.146 20.169 144.708 20.0795 144.317 19.9006C143.926 19.7183 143.616 19.4548 143.388 19.1101C143.162 18.7654 143.05 18.3428 143.05 17.8423C143.05 17.4115 143.132 17.0568 143.298 16.7784C143.464 16.5 143.688 16.2796 143.969 16.1172C144.251 15.9548 144.566 15.8321 144.914 15.7493C145.262 15.6664 145.617 15.6035 145.978 15.5604C146.435 15.5073 146.806 15.4643 147.091 15.4311C147.376 15.3946 147.584 15.3366 147.713 15.2571C147.842 15.1776 147.907 15.0483 147.907 14.8693V14.8345C147.907 14.4003 147.784 14.0639 147.539 13.8253C147.297 13.5866 146.936 13.4673 146.455 13.4673C145.955 13.4673 145.56 13.5784 145.272 13.8004C144.987 14.0192 144.79 14.2628 144.68 14.5312L143.283 14.2131C143.449 13.7491 143.691 13.3745 144.009 13.0895C144.331 12.8011 144.7 12.5923 145.118 12.4631C145.535 12.3305 145.974 12.2642 146.435 12.2642C146.74 12.2642 147.063 12.3007 147.405 12.3736C147.749 12.4432 148.071 12.5724 148.369 12.7614C148.671 12.9503 148.918 13.2204 149.11 13.5717C149.302 13.9197 149.398 14.3722 149.398 14.929V20H147.947V18.956H147.887C147.791 19.1482 147.647 19.3371 147.454 19.5227C147.262 19.7083 147.015 19.8625 146.714 19.9851C146.412 20.1077 146.051 20.169 145.63 20.169ZM145.953 18.9759C146.364 18.9759 146.715 18.8946 147.007 18.7322C147.302 18.5698 147.526 18.3577 147.678 18.0959C147.834 17.8307 147.912 17.5473 147.912 17.2457V16.2614C147.859 16.3144 147.756 16.3641 147.604 16.4105C147.454 16.4536 147.284 16.4917 147.091 16.5249C146.899 16.5547 146.712 16.5829 146.53 16.6094C146.347 16.6326 146.195 16.6525 146.072 16.669C145.784 16.7055 145.52 16.7668 145.282 16.853C145.046 16.9392 144.858 17.0634 144.715 17.2259C144.576 17.3849 144.506 17.5971 144.506 17.8622C144.506 18.2301 144.642 18.5085 144.914 18.6974C145.186 18.883 145.532 18.9759 145.953 18.9759ZM151.378 20V12.3636H152.865V20H151.378ZM152.129 11.1854C151.87 11.1854 151.648 11.0992 151.463 10.9268C151.28 10.7512 151.189 10.5424 151.189 10.3004C151.189 10.0552 151.28 9.84635 151.463 9.67401C151.648 9.49834 151.87 9.41051 152.129 9.41051C152.387 9.41051 152.608 9.49834 152.79 9.67401C152.976 9.84635 153.069 10.0552 153.069 10.3004C153.069 10.5424 152.976 10.7512 152.79 10.9268C152.608 11.0992 152.387 11.1854 152.129 11.1854ZM156.351 9.81818V20H154.865V9.81818H156.351ZM167.778 14.228L166.431 14.4666C166.375 14.2943 166.285 14.1302 166.162 13.9744C166.043 13.8187 165.881 13.6911 165.675 13.5916C165.47 13.4922 165.213 13.4425 164.905 13.4425C164.484 13.4425 164.132 13.5369 163.851 13.7259C163.569 13.9115 163.428 14.1518 163.428 14.4467C163.428 14.7019 163.523 14.9074 163.711 15.0632C163.9 15.219 164.205 15.3466 164.626 15.446L165.839 15.7244C166.542 15.8868 167.066 16.1371 167.41 16.4751C167.755 16.8132 167.927 17.2524 167.927 17.7926C167.927 18.25 167.795 18.6577 167.53 19.0156C167.268 19.3703 166.902 19.6487 166.431 19.8509C165.964 20.053 165.422 20.1541 164.805 20.1541C163.95 20.1541 163.252 19.9718 162.712 19.6072C162.172 19.2393 161.84 18.7173 161.718 18.0412L163.155 17.8224C163.244 18.197 163.428 18.4804 163.706 18.6726C163.985 18.8615 164.348 18.956 164.795 18.956C165.282 18.956 165.672 18.8549 165.964 18.6527C166.255 18.4472 166.401 18.197 166.401 17.902C166.401 17.6634 166.312 17.4628 166.133 17.3004C165.957 17.138 165.687 17.0154 165.322 16.9325L164.03 16.6491C163.317 16.4867 162.79 16.2282 162.449 15.8736C162.111 15.5189 161.942 15.0698 161.942 14.5263C161.942 14.0755 162.068 13.6811 162.319 13.343C162.571 13.005 162.919 12.7415 163.363 12.5526C163.808 12.3603 164.316 12.2642 164.89 12.2642C165.715 12.2642 166.365 12.4432 166.839 12.8011C167.313 13.1558 167.626 13.6314 167.778 14.228ZM172.853 20.1541C172.101 20.1541 171.453 19.9934 170.909 19.6719C170.369 19.3471 169.951 18.8913 169.656 18.3047C169.365 17.7147 169.219 17.0237 169.219 16.2315C169.219 15.4493 169.365 14.7599 169.656 14.1634C169.951 13.5668 170.362 13.1011 170.889 12.7663C171.42 12.4316 172.039 12.2642 172.749 12.2642C173.179 12.2642 173.597 12.3355 174.001 12.478C174.406 12.6205 174.769 12.8442 175.09 13.1491C175.412 13.4541 175.665 13.8501 175.851 14.3374C176.036 14.8213 176.129 15.4096 176.129 16.1023V16.6293H170.059V15.5156H174.673C174.673 15.1245 174.593 14.7782 174.434 14.4766C174.275 14.1716 174.051 13.9313 173.763 13.7557C173.478 13.58 173.143 13.4922 172.759 13.4922C172.341 13.4922 171.976 13.5949 171.665 13.8004C171.357 14.0026 171.118 14.2678 170.949 14.5959C170.783 14.9207 170.7 15.2737 170.7 15.6548V16.5249C170.7 17.0353 170.79 17.4695 170.969 17.8274C171.151 18.1854 171.405 18.4588 171.729 18.6477C172.054 18.8333 172.434 18.9261 172.868 18.9261C173.15 18.9261 173.406 18.8864 173.638 18.8068C173.871 18.724 174.071 18.6013 174.24 18.4389C174.409 18.2765 174.538 18.076 174.628 17.8374L176.035 18.0909C175.922 18.5052 175.72 18.8681 175.428 19.1797C175.14 19.4879 174.777 19.7282 174.339 19.9006C173.905 20.0696 173.41 20.1541 172.853 20.1541ZM179.265 15.4659V20H177.779V12.3636H179.205V13.6065H179.3C179.476 13.2022 179.751 12.8774 180.125 12.6321C180.503 12.3868 180.979 12.2642 181.552 12.2642C182.072 12.2642 182.528 12.3736 182.919 12.5923C183.31 12.8078 183.614 13.1293 183.829 13.5568C184.044 13.9844 184.152 14.513 184.152 15.1428V20H182.666V15.3217C182.666 14.7682 182.521 14.3357 182.233 14.0241C181.945 13.7093 181.549 13.5518 181.045 13.5518C180.7 13.5518 180.394 13.6264 180.125 13.7756C179.86 13.9247 179.65 14.1435 179.494 14.4318C179.341 14.7169 179.265 15.0616 179.265 15.4659ZM189.71 12.3636V13.5568H185.539V12.3636H189.71ZM186.658 10.5341H188.144V17.7578C188.144 18.0462 188.187 18.2633 188.274 18.4091C188.36 18.5516 188.471 18.6494 188.607 18.7024C188.746 18.7521 188.897 18.777 189.059 18.777C189.178 18.777 189.283 18.7687 189.372 18.7521C189.462 18.7356 189.531 18.7223 189.581 18.7124L189.85 19.9403C189.763 19.9735 189.641 20.0066 189.482 20.0398C189.323 20.0762 189.124 20.0961 188.885 20.0994C188.494 20.1061 188.129 20.0365 187.791 19.8906C187.453 19.7448 187.18 19.5194 186.971 19.2145C186.762 18.9096 186.658 18.5268 186.658 18.0661V10.5341Z" fill="white"/>
<rect x="10" y="107" width="314" height="6" rx="3" fill="#42BDAC" fill-opacity="0.17"/>
<g filter="url(#filter0_d_7733_154)">
<rect x="10" y="107" width="256" height="6" rx="3" fill="url(#paint0_linear_7733_154)"/>
</g>
<path d="M37.5341 140.139C37.08 140.133 36.6326 140.05 36.1918 139.891C35.7543 139.732 35.3565 139.466 34.9986 139.095C34.6406 138.724 34.3539 138.225 34.1385 137.599C33.9264 136.972 33.8203 136.19 33.8203 135.252C33.8203 134.364 33.9081 133.575 34.0838 132.886C34.2628 132.196 34.5196 131.615 34.8544 131.141C35.1892 130.663 35.5935 130.3 36.0675 130.052C36.5414 129.803 37.0734 129.679 37.6634 129.679C38.2699 129.679 38.8085 129.798 39.2791 130.037C39.7498 130.276 40.1309 130.605 40.4226 131.026C40.7176 131.447 40.9048 131.926 40.9844 132.463H39.468C39.3653 132.039 39.1615 131.692 38.8565 131.424C38.5516 131.156 38.1539 131.021 37.6634 131.021C36.9176 131.021 36.3359 131.346 35.9183 131.996C35.504 132.645 35.2952 133.549 35.2919 134.705H35.3665C35.5421 134.417 35.7576 134.172 36.0128 133.969C36.2713 133.764 36.5597 133.607 36.8778 133.497C37.1993 133.384 37.5374 133.328 37.892 133.328C38.482 133.328 39.0156 133.472 39.4929 133.761C39.9735 134.046 40.3563 134.44 40.6413 134.944C40.9264 135.448 41.0689 136.024 41.0689 136.674C41.0689 137.324 40.9214 137.912 40.6264 138.439C40.3348 138.966 39.9238 139.384 39.3935 139.692C38.8632 139.997 38.2434 140.146 37.5341 140.139ZM37.5291 138.847C37.9202 138.847 38.2699 138.75 38.5781 138.558C38.8864 138.366 39.13 138.107 39.3089 137.783C39.4879 137.458 39.5774 137.095 39.5774 136.694C39.5774 136.303 39.4896 135.946 39.3139 135.625C39.1416 135.304 38.9029 135.048 38.598 134.859C38.2964 134.67 37.9517 134.576 37.5639 134.576C37.2689 134.576 36.9955 134.632 36.7436 134.745C36.495 134.858 36.2763 135.013 36.0874 135.212C35.8984 135.411 35.7493 135.64 35.6399 135.898C35.5339 136.154 35.4808 136.424 35.4808 136.709C35.4808 137.09 35.5687 137.443 35.7443 137.768C35.9233 138.093 36.1669 138.354 36.4751 138.553C36.7867 138.749 37.138 138.847 37.5291 138.847ZM46.2406 140.139C45.6175 140.139 45.0574 140.02 44.5602 139.781C44.0663 139.539 43.6719 139.208 43.377 138.787C43.082 138.366 42.9245 137.885 42.9047 137.345H44.3961C44.4326 137.783 44.6265 138.142 44.9778 138.424C45.3291 138.706 45.7501 138.847 46.2406 138.847C46.6317 138.847 46.978 138.757 47.2797 138.578C47.5846 138.396 47.8232 138.146 47.9956 137.827C48.1712 137.509 48.2591 137.146 48.2591 136.739C48.2591 136.324 48.1696 135.955 47.9906 135.63C47.8116 135.305 47.5647 135.05 47.2498 134.864C46.9383 134.679 46.5803 134.584 46.176 134.581C45.8677 134.581 45.5578 134.634 45.2463 134.74C44.9347 134.846 44.6828 134.985 44.4906 135.158L43.0836 134.949L43.6554 129.818H49.2534V131.136H44.9331L44.6099 133.984H44.6696C44.8684 133.792 45.1319 133.631 45.46 133.502C45.7915 133.373 46.1461 133.308 46.524 133.308C47.1438 133.308 47.6956 133.456 48.1795 133.751C48.6667 134.046 49.0495 134.448 49.3279 134.959C49.6097 135.466 49.7489 136.049 49.7456 136.709C49.7489 137.368 49.5997 137.957 49.2981 138.474C48.9998 138.991 48.5855 139.398 48.0552 139.697C47.5282 139.992 46.9234 140.139 46.2406 140.139ZM51.5614 140V138.886L55.0067 135.317C55.3746 134.929 55.6779 134.589 55.9165 134.298C56.1585 134.003 56.3391 133.723 56.4585 133.457C56.5778 133.192 56.6374 132.911 56.6374 132.612C56.6374 132.274 56.5579 131.982 56.3988 131.737C56.2397 131.489 56.0226 131.298 55.7475 131.165C55.4724 131.03 55.1625 130.962 54.8178 130.962C54.4532 130.962 54.1351 131.036 53.8633 131.185C53.5915 131.335 53.3827 131.545 53.2369 131.817C53.091 132.089 53.0181 132.407 53.0181 132.771H51.5515C51.5515 132.152 51.694 131.61 51.979 131.146C52.2641 130.682 52.6552 130.322 53.1523 130.067C53.6495 129.808 54.2146 129.679 54.8477 129.679C55.4873 129.679 56.0508 129.807 56.538 130.062C57.0285 130.314 57.4113 130.658 57.6864 131.096C57.9615 131.53 58.0991 132.021 58.0991 132.567C58.0991 132.945 58.0278 133.315 57.8853 133.676C57.7461 134.037 57.5025 134.44 57.1545 134.884C56.8065 135.325 56.3226 135.86 55.7028 136.49L53.6793 138.608V138.683H58.2631V140H51.5614ZM63.6921 140.139C63.0094 140.139 62.3995 140.022 61.8626 139.786C61.329 139.551 60.9064 139.224 60.5948 138.807C60.2866 138.386 60.1209 137.899 60.0977 137.345H61.6587C61.6786 137.647 61.7797 137.909 61.962 138.131C62.1476 138.349 62.3896 138.518 62.6879 138.638C62.9862 138.757 63.3176 138.817 63.6822 138.817C64.0832 138.817 64.4379 138.747 64.7461 138.608C65.0576 138.469 65.3013 138.275 65.4769 138.026C65.6526 137.774 65.7404 137.484 65.7404 137.156C65.7404 136.815 65.6526 136.515 65.4769 136.256C65.3046 135.995 65.051 135.789 64.7163 135.64C64.3848 135.491 63.9838 135.416 63.5131 135.416H62.6531V134.163H63.5131C63.891 134.163 64.2224 134.095 64.5075 133.96C64.7958 133.824 65.0212 133.635 65.1836 133.393C65.346 133.147 65.4272 132.861 65.4272 132.533C65.4272 132.218 65.3559 131.944 65.2134 131.712C65.0742 131.477 64.8754 131.293 64.6168 131.161C64.3616 131.028 64.06 130.962 63.712 130.962C63.3806 130.962 63.0707 131.023 62.7823 131.146C62.4973 131.265 62.2653 131.437 62.0863 131.663C61.9073 131.885 61.8112 132.152 61.7979 132.463H60.3114C60.328 131.913 60.4904 131.429 60.7987 131.011C61.1102 130.594 61.5212 130.267 62.0316 130.032C62.542 129.797 63.1088 129.679 63.7319 129.679C64.3848 129.679 64.9483 129.807 65.4222 130.062C65.8995 130.314 66.2674 130.65 66.5259 131.071C66.7878 131.492 66.917 131.953 66.9137 132.453C66.917 133.023 66.7579 133.507 66.4364 133.905C66.1183 134.303 65.694 134.569 65.1637 134.705V134.785C65.8398 134.888 66.3635 135.156 66.7347 135.59C67.1093 136.024 67.2949 136.563 67.2915 137.206C67.2949 137.766 67.1391 138.268 66.8242 138.712C66.5127 139.156 66.0868 139.506 65.5465 139.761C65.0063 140.013 64.3881 140.139 63.6921 140.139Z" fill="white"/>
<path d="M24.9573 129.183L22.6936 140.215C22.5227 140.994 22.0775 141.188 21.4447 140.821L17.9954 138.194L16.3313 139.849C16.147 140.039 15.9933 140.198 15.638 140.198L15.8861 136.568L22.2784 130.599C22.5565 130.343 22.2179 130.201 21.8466 130.457L13.9439 135.6L10.5418 134.499C9.80189 134.26 9.7885 133.734 10.6961 133.367L24.003 128.069C24.6192 127.831 25.1582 128.21 24.9573 129.183Z" fill="#42BDAC"/>
<path d="M169.766 138.011V136.768L174.165 129.818H175.145V131.648H174.523L171.376 136.629V136.709H177.407V138.011H169.766ZM174.593 140V137.634L174.603 137.067V129.818H176.06V140H174.593ZM182.684 140.169C181.899 140.166 181.228 139.959 180.671 139.548C180.114 139.137 179.688 138.538 179.393 137.753C179.098 136.967 178.951 136.021 178.951 134.914C178.951 133.81 179.098 132.867 179.393 132.085C179.691 131.303 180.119 130.706 180.676 130.295C181.236 129.884 181.905 129.679 182.684 129.679C183.463 129.679 184.131 129.886 184.688 130.3C185.245 130.711 185.671 131.308 185.966 132.09C186.264 132.869 186.413 133.81 186.413 134.914C186.413 136.024 186.266 136.972 185.971 137.758C185.676 138.54 185.25 139.138 184.693 139.553C184.136 139.964 183.467 140.169 182.684 140.169ZM182.684 138.842C183.374 138.842 183.912 138.505 184.3 137.832C184.691 137.16 184.887 136.187 184.887 134.914C184.887 134.069 184.797 133.355 184.618 132.771C184.443 132.185 184.189 131.741 183.858 131.439C183.529 131.134 183.138 130.982 182.684 130.982C181.998 130.982 181.46 131.32 181.069 131.996C180.677 132.672 180.48 133.645 180.477 134.914C180.477 135.763 180.565 136.48 180.74 137.067C180.919 137.65 181.173 138.093 181.501 138.394C181.829 138.692 182.224 138.842 182.684 138.842ZM188.177 140V138.886L191.622 135.317C191.99 134.929 192.293 134.589 192.532 134.298C192.774 134.003 192.954 133.723 193.074 133.457C193.193 133.192 193.253 132.911 193.253 132.612C193.253 132.274 193.173 131.982 193.014 131.737C192.855 131.489 192.638 131.298 192.363 131.165C192.088 131.03 191.778 130.962 191.433 130.962C191.068 130.962 190.75 131.036 190.479 131.185C190.207 131.335 189.998 131.545 189.852 131.817C189.706 132.089 189.633 132.407 189.633 132.771H188.167C188.167 132.152 188.309 131.61 188.594 131.146C188.879 130.682 189.27 130.322 189.768 130.067C190.265 129.808 190.83 129.679 191.463 129.679C192.103 129.679 192.666 129.807 193.153 130.062C193.644 130.314 194.027 130.658 194.302 131.096C194.577 131.53 194.714 132.021 194.714 132.567C194.714 132.945 194.643 133.315 194.501 133.676C194.361 134.037 194.118 134.44 193.77 134.884C193.422 135.325 192.938 135.86 192.318 136.49L190.295 138.608V138.683H194.878V140H188.177ZM200.148 129.679C200.602 129.682 201.05 129.765 201.491 129.928C201.931 130.09 202.329 130.355 202.684 130.723C203.042 131.091 203.327 131.588 203.539 132.214C203.754 132.838 203.864 133.613 203.867 134.541C203.867 135.433 203.778 136.227 203.599 136.923C203.42 137.615 203.163 138.2 202.828 138.678C202.497 139.155 202.094 139.518 201.62 139.766C201.146 140.015 200.612 140.139 200.019 140.139C199.412 140.139 198.874 140.02 198.403 139.781C197.933 139.543 197.55 139.213 197.255 138.792C196.96 138.368 196.776 137.88 196.703 137.33H198.219C198.319 137.768 198.521 138.122 198.826 138.394C199.134 138.663 199.532 138.797 200.019 138.797C200.765 138.797 201.346 138.472 201.764 137.822C202.182 137.17 202.392 136.258 202.395 135.088H202.316C202.144 135.373 201.928 135.618 201.67 135.824C201.414 136.029 201.128 136.188 200.809 136.301C200.491 136.414 200.152 136.47 199.79 136.47C199.204 136.47 198.67 136.326 198.189 136.038C197.709 135.749 197.326 135.353 197.041 134.849C196.756 134.346 196.613 133.771 196.613 133.124C196.613 132.481 196.759 131.898 197.051 131.374C197.346 130.851 197.757 130.436 198.284 130.131C198.814 129.823 199.436 129.672 200.148 129.679ZM200.153 130.972C199.765 130.972 199.416 131.068 199.104 131.26C198.796 131.449 198.552 131.706 198.373 132.031C198.194 132.352 198.105 132.71 198.105 133.104C198.105 133.499 198.191 133.857 198.363 134.178C198.539 134.496 198.778 134.75 199.079 134.939C199.384 135.125 199.732 135.217 200.123 135.217C200.415 135.217 200.687 135.161 200.939 135.048C201.191 134.936 201.411 134.78 201.6 134.581C201.789 134.379 201.936 134.15 202.042 133.895C202.148 133.64 202.202 133.371 202.202 133.089C202.202 132.715 202.112 132.367 201.933 132.045C201.757 131.724 201.515 131.465 201.207 131.27C200.899 131.071 200.548 130.972 200.153 130.972Z" fill="white"/>
<path d="M160 139.781C160 140.454 159.454 141 158.781 141H148.219C147.546 141 147 140.454 147 139.781V133.097C147 132.912 147.042 132.729 147.123 132.563C147.204 132.397 147.321 132.251 147.467 132.137C148.099 131.642 148.622 131.239 151.636 129.052C152.063 128.741 152.911 127.991 153.5 128C154.089 127.991 154.937 128.741 155.364 129.052C158.378 131.239 158.901 131.642 159.533 132.137C159.679 132.251 159.796 132.397 159.877 132.563C159.958 132.729 160 132.912 160 133.097V139.781ZM158.333 134.789C158.268 134.695 158.137 134.673 158.045 134.741C157.465 135.169 156.637 135.774 155.364 136.698C154.937 137.009 154.089 137.759 153.5 137.75C152.911 137.759 152.064 137.01 151.636 136.698C150.364 135.775 149.535 135.169 148.955 134.741C148.863 134.673 148.732 134.695 148.667 134.789L148.437 135.124C148.407 135.168 148.395 135.221 148.404 135.273C148.413 135.325 148.441 135.372 148.484 135.403C149.065 135.832 149.892 136.436 151.157 137.355C151.672 137.73 152.593 138.569 153.5 138.562C154.407 138.569 155.327 137.73 155.843 137.355C157.108 136.436 157.935 135.832 158.516 135.403C158.559 135.372 158.587 135.325 158.596 135.273C158.605 135.221 158.593 135.168 158.563 135.124L158.333 134.789Z" fill="#42BDAC"/>
<path d="M299.42 140.139C298.707 140.139 298.077 140.017 297.531 139.771C296.987 139.526 296.561 139.188 296.253 138.757C295.945 138.326 295.792 137.836 295.795 137.286C295.792 136.855 295.88 136.459 296.059 136.097C296.241 135.733 296.488 135.429 296.8 135.188C297.111 134.942 297.459 134.786 297.844 134.72V134.661C297.337 134.538 296.931 134.266 296.626 133.845C296.321 133.424 296.17 132.94 296.173 132.393C296.17 131.873 296.308 131.409 296.586 131.001C296.868 130.59 297.254 130.267 297.744 130.032C298.235 129.797 298.793 129.679 299.42 129.679C300.04 129.679 300.593 129.798 301.08 130.037C301.571 130.272 301.957 130.595 302.239 131.006C302.52 131.414 302.663 131.876 302.666 132.393C302.663 132.94 302.507 133.424 302.199 133.845C301.891 134.266 301.49 134.538 300.996 134.661V134.72C301.377 134.786 301.72 134.942 302.025 135.188C302.333 135.429 302.578 135.733 302.761 136.097C302.946 136.459 303.041 136.855 303.044 137.286C303.041 137.836 302.885 138.326 302.577 138.757C302.268 139.188 301.841 139.526 301.294 139.771C300.75 140.017 300.126 140.139 299.42 140.139ZM299.42 138.881C299.841 138.881 300.205 138.812 300.513 138.673C300.822 138.53 301.06 138.333 301.229 138.081C301.398 137.826 301.485 137.527 301.488 137.186C301.485 136.831 301.392 136.518 301.21 136.246C301.031 135.975 300.787 135.761 300.479 135.605C300.17 135.449 299.817 135.371 299.42 135.371C299.019 135.371 298.662 135.449 298.351 135.605C298.039 135.761 297.794 135.975 297.615 136.246C297.436 136.518 297.348 136.831 297.352 137.186C297.348 137.527 297.429 137.826 297.595 138.081C297.764 138.333 298.004 138.53 298.316 138.673C298.628 138.812 298.996 138.881 299.42 138.881ZM299.42 134.143C299.758 134.143 300.058 134.076 300.32 133.94C300.581 133.804 300.787 133.615 300.936 133.373C301.089 133.131 301.166 132.848 301.17 132.523C301.166 132.205 301.09 131.926 300.941 131.688C300.795 131.449 300.591 131.265 300.33 131.136C300.068 131.003 299.764 130.937 299.42 130.937C299.068 130.937 298.76 131.003 298.495 131.136C298.233 131.265 298.029 131.449 297.884 131.688C297.738 131.926 297.666 132.205 297.67 132.523C297.666 132.848 297.739 133.131 297.888 133.373C298.038 133.615 298.243 133.804 298.505 133.94C298.77 134.076 299.075 134.143 299.42 134.143ZM308.37 140.169C307.584 140.166 306.913 139.959 306.356 139.548C305.8 139.137 305.374 138.538 305.079 137.753C304.784 136.967 304.636 136.021 304.636 134.914C304.636 133.81 304.784 132.867 305.079 132.085C305.377 131.303 305.805 130.706 306.361 130.295C306.921 129.884 307.591 129.679 308.37 129.679C309.149 129.679 309.817 129.886 310.373 130.3C310.93 130.711 311.356 131.308 311.651 132.09C311.949 132.869 312.099 133.81 312.099 134.914C312.099 136.024 311.951 136.972 311.656 137.758C311.361 138.54 310.935 139.138 310.378 139.553C309.822 139.964 309.152 140.169 308.37 140.169ZM308.37 138.842C309.059 138.842 309.598 138.505 309.986 137.832C310.377 137.16 310.572 136.187 310.572 134.914C310.572 134.069 310.483 133.355 310.304 132.771C310.128 132.185 309.875 131.741 309.543 131.439C309.215 131.134 308.824 130.982 308.37 130.982C307.684 130.982 307.145 131.32 306.754 131.996C306.363 132.672 306.166 133.645 306.162 134.914C306.162 135.763 306.25 136.48 306.426 137.067C306.605 137.65 306.858 138.093 307.187 138.394C307.515 138.692 307.909 138.842 308.37 138.842ZM319.177 138.091V137.554C319.177 137.17 319.256 136.818 319.415 136.5C319.578 136.179 319.813 135.922 320.121 135.729C320.433 135.534 320.809 135.436 321.25 135.436C321.701 135.436 322.079 135.532 322.384 135.724C322.688 135.917 322.919 136.174 323.075 136.495C323.234 136.817 323.313 137.17 323.313 137.554V138.091C323.313 138.475 323.234 138.828 323.075 139.15C322.915 139.468 322.682 139.725 322.374 139.92C322.069 140.113 321.694 140.209 321.25 140.209C320.803 140.209 320.425 140.113 320.116 139.92C319.808 139.725 319.575 139.468 319.415 139.15C319.256 138.828 319.177 138.475 319.177 138.091ZM320.335 137.554V138.091C320.335 138.376 320.403 138.634 320.539 138.866C320.675 139.098 320.912 139.214 321.25 139.214C321.585 139.214 321.818 139.098 321.951 138.866C322.084 138.634 322.15 138.376 322.15 138.091V137.554C322.15 137.269 322.085 137.01 321.956 136.778C321.83 136.546 321.595 136.43 321.25 136.43C320.919 136.43 320.683 136.546 320.544 136.778C320.405 137.01 320.335 137.269 320.335 137.554ZM314.056 132.264V131.727C314.056 131.343 314.136 130.99 314.295 130.668C314.457 130.347 314.692 130.09 315.001 129.898C315.312 129.705 315.688 129.609 316.129 129.609C316.58 129.609 316.958 129.705 317.263 129.898C317.568 130.09 317.798 130.347 317.954 130.668C318.11 130.99 318.188 131.343 318.188 131.727V132.264C318.188 132.649 318.108 133.002 317.949 133.323C317.793 133.641 317.561 133.898 317.253 134.094C316.948 134.286 316.573 134.382 316.129 134.382C315.679 134.382 315.299 134.286 314.991 134.094C314.686 133.898 314.454 133.641 314.295 133.323C314.136 133.002 314.056 132.649 314.056 132.264ZM315.219 131.727V132.264C315.219 132.549 315.286 132.808 315.418 133.04C315.554 133.272 315.791 133.388 316.129 133.388C316.461 133.388 316.693 133.272 316.825 133.04C316.961 132.808 317.029 132.549 317.029 132.264V131.727C317.029 131.442 316.964 131.184 316.835 130.952C316.706 130.72 316.471 130.604 316.129 130.604C315.798 130.604 315.563 130.72 315.423 130.952C315.287 131.184 315.219 131.442 315.219 131.727ZM314.528 140L321.528 129.818H322.717L315.717 140H314.528Z" fill="white"/>
<path fill-rule="evenodd" clip-rule="evenodd" d="M280.5 128C276.91 128 274 130.91 274 134.5C274 138.09 276.91 141 280.5 141C284.09 141 287 138.09 287 134.5C287 130.91 284.09 128 280.5 128ZM282.91 132.09C283.163 132.344 283.163 132.756 282.91 133.01L279.01 136.91C278.756 137.163 278.344 137.163 278.09 136.91C277.837 136.656 277.837 136.244 278.09 135.99L281.99 132.09C282.244 131.837 282.656 131.837 282.91 132.09ZM283.1 136.125C283.1 136.663 282.663 137.1 282.125 137.1C281.587 137.1 281.15 136.663 281.15 136.125C281.15 135.587 281.587 135.15 282.125 135.15C282.663 135.15 283.1 135.587 283.1 136.125ZM278.875 133.85C279.413 133.85 279.85 133.413 279.85 132.875C279.85 132.337 279.413 131.9 278.875 131.9C278.337 131.9 277.9 132.337 277.9 132.875C277.9 133.413 278.337 133.85 278.875 133.85Z" fill="#42BDAC"/>
<path d="M11.9787 90H10.348L14.0121 79.8182H15.7869L19.451 90H17.8203L14.9418 81.6676H14.8622L11.9787 90ZM12.2521 86.0128H17.5419V87.3054H12.2521V86.0128ZM22.2885 85.4659V90H20.802V82.3636H22.2289V83.6065H22.3233C22.499 83.2022 22.7741 82.8774 23.1486 82.6321C23.5265 82.3868 24.0021 82.2642 24.5755 82.2642C25.0958 82.2642 25.5516 82.3736 25.9426 82.5923C26.3337 82.8078 26.637 83.1293 26.8525 83.5568C27.0679 83.9844 27.1756 84.513 27.1756 85.1428V90H25.6891V85.3217C25.6891 84.7682 25.5449 84.3357 25.2566 84.0241C24.9682 83.7093 24.5721 83.5518 24.0684 83.5518C23.7237 83.5518 23.4171 83.6264 23.1486 83.7756C22.8835 83.9247 22.673 84.1435 22.5172 84.4318C22.3648 84.7169 22.2885 85.0616 22.2885 85.4659ZM31.3915 90.169C30.9076 90.169 30.4701 90.0795 30.079 89.9006C29.6879 89.7183 29.378 89.4548 29.1493 89.1101C28.9239 88.7654 28.8113 88.3428 28.8113 87.8423C28.8113 87.4115 28.8941 87.0568 29.0598 86.7784C29.2256 86.5 29.4493 86.2796 29.731 86.1172C30.0127 85.9548 30.3276 85.8321 30.6756 85.7493C31.0236 85.6664 31.3783 85.6035 31.7395 85.5604C32.1969 85.5073 32.5681 85.4643 32.8532 85.4311C33.1382 85.3946 33.3453 85.3366 33.4746 85.2571C33.6039 85.1776 33.6685 85.0483 33.6685 84.8693V84.8345C33.6685 84.4003 33.5459 84.0639 33.3006 83.8253C33.0587 83.5866 32.6974 83.4673 32.2168 83.4673C31.7163 83.4673 31.3219 83.5784 31.0336 83.8004C30.7485 84.0192 30.5513 84.2628 30.4419 84.5312L29.0449 84.2131C29.2106 83.7491 29.4526 83.3745 29.7708 83.0895C30.0923 82.8011 30.4618 82.5923 30.8794 82.4631C31.2971 82.3305 31.7362 82.2642 32.1969 82.2642C32.5018 82.2642 32.825 82.3007 33.1664 82.3736C33.5111 82.4432 33.8326 82.5724 34.1309 82.7614C34.4325 82.9503 34.6794 83.2204 34.8716 83.5717C35.0639 83.9197 35.16 84.3722 35.16 84.929V90H33.7083V88.956H33.6486C33.5525 89.1482 33.4083 89.3371 33.2161 89.5227C33.0239 89.7083 32.7769 89.8625 32.4753 89.9851C32.1737 90.1077 31.8124 90.169 31.3915 90.169ZM31.7147 88.9759C32.1257 88.9759 32.477 88.8946 32.7686 88.7322C33.0636 88.5698 33.2873 88.3577 33.4398 88.0959C33.5956 87.8307 33.6735 87.5473 33.6735 87.2457V86.2614C33.6204 86.3144 33.5177 86.3641 33.3652 86.4105C33.2161 86.4536 33.0454 86.4917 32.8532 86.5249C32.6609 86.5547 32.4737 86.5829 32.2914 86.6094C32.1091 86.6326 31.9566 86.6525 31.834 86.669C31.5456 86.7055 31.2821 86.7668 31.0435 86.853C30.8082 86.9392 30.6193 87.0634 30.4767 87.2259C30.3375 87.3849 30.2679 87.5971 30.2679 87.8622C30.2679 88.2301 30.4038 88.5085 30.6756 88.6974C30.9474 88.883 31.2937 88.9759 31.7147 88.9759ZM38.6264 79.8182V90H37.1399V79.8182H38.6264ZM41.5659 92.8636C41.3438 92.8636 41.1416 92.8454 40.9593 92.8089C40.777 92.7758 40.6412 92.7393 40.5517 92.6996L40.9096 91.4815C41.1814 91.5545 41.4234 91.5859 41.6355 91.576C41.8476 91.5661 42.0349 91.4865 42.1973 91.3374C42.363 91.1882 42.5088 90.9446 42.6348 90.6065L42.8187 90.0994L40.0247 82.3636H41.6156L43.5495 88.2898H43.6291L45.563 82.3636H47.1589L44.0119 91.0192C43.8661 91.4169 43.6805 91.7533 43.4551 92.0284C43.2297 92.3068 42.9612 92.5156 42.6497 92.6548C42.3381 92.794 41.9769 92.8636 41.5659 92.8636ZM48.3968 90V88.9808L52.5332 83.7259V83.6562H48.5311V82.3636H54.3876V83.4474L50.4103 88.6378V88.7074H54.5268V90H48.3968ZM59.353 90.1541C58.6006 90.1541 57.9527 89.9934 57.4091 89.6719C56.8688 89.3471 56.4512 88.8913 56.1562 88.3047C55.8646 87.7147 55.7188 87.0237 55.7188 86.2315C55.7188 85.4493 55.8646 84.7599 56.1562 84.1634C56.4512 83.5668 56.8622 83.1011 57.3892 82.7663C57.9195 82.4316 58.5393 82.2642 59.2486 82.2642C59.6795 82.2642 60.0971 82.3355 60.5014 82.478C60.9058 82.6205 61.2687 82.8442 61.5902 83.1491C61.9117 83.4541 62.1652 83.8501 62.3509 84.3374C62.5365 84.8213 62.6293 85.4096 62.6293 86.1023V86.6293H56.5589V85.5156H61.1726C61.1726 85.1245 61.093 84.7782 60.9339 84.4766C60.7749 84.1716 60.5511 83.9313 60.2628 83.7557C59.9777 83.58 59.643 83.4922 59.2585 83.4922C58.8409 83.4922 58.4763 83.5949 58.1648 83.8004C57.8565 84.0026 57.6179 84.2678 57.4489 84.5959C57.2831 84.9207 57.2003 85.2737 57.2003 85.6548V86.5249C57.2003 87.0353 57.2898 87.4695 57.4688 87.8274C57.651 88.1854 57.9046 88.4588 58.2294 88.6477C58.5542 88.8333 58.9337 88.9261 59.3679 88.9261C59.6496 88.9261 59.9065 88.8864 60.1385 88.8068C60.3705 88.724 60.571 88.6013 60.7401 88.4389C60.9091 88.2765 61.0384 88.076 61.1278 87.8374L62.5348 88.0909C62.4221 88.5052 62.2199 88.8681 61.9283 89.1797C61.6399 89.4879 61.277 89.7282 60.8395 89.9006C60.4053 90.0696 59.9098 90.1541 59.353 90.1541ZM70.8423 90.1491C70.2259 90.1491 69.6757 89.9917 69.1918 89.6768C68.7112 89.3587 68.3333 88.9062 68.0582 88.3196C67.7865 87.7296 67.6506 87.022 67.6506 86.1967C67.6506 85.3714 67.7881 84.6655 68.0632 84.0788C68.3416 83.4922 68.7228 83.0431 69.2067 82.7315C69.6906 82.42 70.2391 82.2642 70.8523 82.2642C71.3262 82.2642 71.7074 82.3438 71.9957 82.5028C72.2874 82.6586 72.5128 82.8409 72.6719 83.0497C72.8343 83.2585 72.9602 83.4425 73.0497 83.6016H73.1392V79.8182H74.6257V90H73.174V88.8118H73.0497C72.9602 88.9742 72.831 89.1598 72.6619 89.3686C72.4962 89.5774 72.2675 89.7597 71.9759 89.9155C71.6842 90.0713 71.3063 90.1491 70.8423 90.1491ZM71.1705 88.8814C71.598 88.8814 71.9593 88.7687 72.2543 88.5433C72.5526 88.3146 72.7779 87.9981 72.9304 87.5938C73.0862 87.1894 73.1641 86.7187 73.1641 86.1818C73.1641 85.6515 73.0878 85.1875 72.9354 84.7898C72.7829 84.392 72.5592 84.0821 72.2642 83.8601C71.9692 83.638 71.6046 83.527 71.1705 83.527C70.723 83.527 70.3501 83.643 70.0518 83.875C69.7536 84.107 69.5282 84.4235 69.3757 84.8246C69.2266 85.2256 69.152 85.678 69.152 86.1818C69.152 86.6922 69.2282 87.1513 69.3807 87.5589C69.5331 87.9666 69.7585 88.2898 70.0568 88.5284C70.3584 88.7637 70.7296 88.8814 71.1705 88.8814ZM80.0385 90.1541C79.2862 90.1541 78.6382 89.9934 78.0946 89.6719C77.5544 89.3471 77.1368 88.8913 76.8418 88.3047C76.5501 87.7147 76.4043 87.0237 76.4043 86.2315C76.4043 85.4493 76.5501 84.7599 76.8418 84.1634C77.1368 83.5668 77.5478 83.1011 78.0748 82.7663C78.6051 82.4316 79.2248 82.2642 79.9341 82.2642C80.365 82.2642 80.7826 82.3355 81.187 82.478C81.5913 82.6205 81.9542 82.8442 82.2757 83.1491C82.5972 83.4541 82.8508 83.8501 83.0364 84.3374C83.222 84.8213 83.3148 85.4096 83.3148 86.1023V86.6293H77.2445V85.5156H81.8581C81.8581 85.1245 81.7786 84.7782 81.6195 84.4766C81.4604 84.1716 81.2367 83.9313 80.9483 83.7557C80.6633 83.58 80.3285 83.4922 79.9441 83.4922C79.5265 83.4922 79.1619 83.5949 78.8503 83.8004C78.5421 84.0026 78.3034 84.2678 78.1344 84.5959C77.9687 84.9207 77.8858 85.2737 77.8858 85.6548V86.5249C77.8858 87.0353 77.9753 87.4695 78.1543 87.8274C78.3366 88.1854 78.5901 88.4588 78.915 88.6477C79.2398 88.8333 79.6193 88.9261 80.0534 88.9261C80.3352 88.9261 80.592 88.8864 80.824 88.8068C81.056 88.724 81.2566 88.6013 81.4256 88.4389C81.5946 88.2765 81.7239 88.076 81.8134 87.8374L83.2203 88.0909C83.1077 88.5052 82.9055 88.8681 82.6138 89.1797C82.3255 89.4879 81.9625 89.7282 81.525 89.9006C81.0908 90.0696 80.5953 90.1541 80.0385 90.1541ZM86.4506 79.8182V90H84.9641V79.8182H86.4506ZM88.4505 90V82.3636H89.937V90H88.4505ZM89.2012 81.1854C88.9426 81.1854 88.7206 81.0992 88.535 80.9268C88.3527 80.7512 88.2615 80.5424 88.2615 80.3004C88.2615 80.0552 88.3527 79.8464 88.535 79.674C88.7206 79.4983 88.9426 79.4105 89.2012 79.4105C89.4597 79.4105 89.6801 79.4983 89.8624 79.674C90.048 79.8464 90.1408 80.0552 90.1408 80.3004C90.1408 80.5424 90.048 80.7512 89.8624 80.9268C89.6801 81.0992 89.4597 81.1854 89.2012 81.1854ZM98.4695 82.3636L95.7003 90H94.1094L91.3352 82.3636H92.9311L94.8651 88.2401H94.9446L96.8736 82.3636H98.4695ZM102.898 90.1541C102.146 90.1541 101.498 89.9934 100.954 89.6719C100.414 89.3471 99.9962 88.8913 99.7012 88.3047C99.4095 87.7147 99.2637 87.0237 99.2637 86.2315C99.2637 85.4493 99.4095 84.7599 99.7012 84.1634C99.9962 83.5668 100.407 83.1011 100.934 82.7663C101.464 82.4316 102.084 82.2642 102.794 82.2642C103.224 82.2642 103.642 82.3355 104.046 82.478C104.451 82.6205 104.814 82.8442 105.135 83.1491C105.457 83.4541 105.71 83.8501 105.896 84.3374C106.081 84.8213 106.174 85.4096 106.174 86.1023V86.6293H100.104V85.5156H104.718C104.718 85.1245 104.638 84.7782 104.479 84.4766C104.32 84.1716 104.096 83.9313 103.808 83.7557C103.523 83.58 103.188 83.4922 102.803 83.4922C102.386 83.4922 102.021 83.5949 101.71 83.8004C101.401 84.0026 101.163 84.2678 100.994 84.5959C100.828 84.9207 100.745 85.2737 100.745 85.6548V86.5249C100.745 87.0353 100.835 87.4695 101.014 87.8274C101.196 88.1854 101.45 88.4588 101.774 88.6477C102.099 88.8333 102.479 88.9261 102.913 88.9261C103.195 88.9261 103.451 88.8864 103.683 88.8068C103.915 88.724 104.116 88.6013 104.285 88.4389C104.454 88.2765 104.583 88.076 104.673 87.8374L106.08 88.0909C105.967 88.5052 105.765 88.8681 105.473 89.1797C105.185 89.4879 104.822 89.7282 104.384 89.9006C103.95 90.0696 103.455 90.1541 102.898 90.1541ZM107.824 90V82.3636H109.26V83.5767H109.34C109.479 83.1657 109.724 82.8426 110.076 82.6072C110.43 82.3686 110.831 82.2493 111.279 82.2493C111.372 82.2493 111.481 82.2526 111.607 82.2592C111.736 82.2659 111.837 82.2741 111.91 82.2841V83.706C111.85 83.6894 111.744 83.6712 111.592 83.6513C111.44 83.6281 111.287 83.6165 111.135 83.6165C110.783 83.6165 110.47 83.6911 110.195 83.8402C109.923 83.986 109.708 84.1899 109.549 84.4517C109.39 84.7102 109.31 85.0052 109.31 85.3366V90H107.824ZM115.35 90.169C114.867 90.169 114.429 90.0795 114.038 89.9006C113.647 89.7183 113.337 89.4548 113.108 89.1101C112.883 88.7654 112.77 88.3428 112.77 87.8423C112.77 87.4115 112.853 87.0568 113.019 86.7784C113.185 86.5 113.408 86.2796 113.69 86.1172C113.972 85.9548 114.287 85.8321 114.635 85.7493C114.983 85.6664 115.337 85.6035 115.699 85.5604C116.156 85.5073 116.527 85.4643 116.812 85.4311C117.097 85.3946 117.304 85.3366 117.434 85.2571C117.563 85.1776 117.627 85.0483 117.627 84.8693V84.8345C117.627 84.4003 117.505 84.0639 117.26 83.8253C117.018 83.5866 116.656 83.4673 116.176 83.4673C115.675 83.4673 115.281 83.5784 114.993 83.8004C114.708 84.0192 114.51 84.2628 114.401 84.5312L113.004 84.2131C113.17 83.7491 113.412 83.3745 113.73 83.0895C114.051 82.8011 114.421 82.5923 114.838 82.4631C115.256 82.3305 115.695 82.2642 116.156 82.2642C116.461 82.2642 116.784 82.3007 117.125 82.3736C117.47 82.4432 117.792 82.5724 118.09 82.7614C118.391 82.9503 118.638 83.2204 118.831 83.5717C119.023 83.9197 119.119 84.3722 119.119 84.929V90H117.667V88.956H117.608C117.511 89.1482 117.367 89.3371 117.175 89.5227C116.983 89.7083 116.736 89.8625 116.434 89.9851C116.133 90.1077 115.771 90.169 115.35 90.169ZM115.674 88.9759C116.085 88.9759 116.436 88.8946 116.728 88.7322C117.023 88.5698 117.246 88.3577 117.399 88.0959C117.555 87.8307 117.632 87.5473 117.632 87.2457V86.2614C117.579 86.3144 117.477 86.3641 117.324 86.4105C117.175 86.4536 117.004 86.4917 116.812 86.5249C116.62 86.5547 116.433 86.5829 116.25 86.6094C116.068 86.6326 115.916 86.6525 115.793 86.669C115.505 86.7055 115.241 86.7668 115.002 86.853C114.767 86.9392 114.578 87.0634 114.436 87.2259C114.297 87.3849 114.227 87.5971 114.227 87.8622C114.227 88.2301 114.363 88.5085 114.635 88.6974C114.906 88.883 115.253 88.9759 115.674 88.9759ZM121.218 90V79.8182H122.705V83.6016H122.794C122.88 83.4425 123.005 83.2585 123.167 83.0497C123.329 82.8409 123.555 82.6586 123.843 82.5028C124.132 82.3438 124.513 82.2642 124.987 82.2642C125.603 82.2642 126.153 82.42 126.637 82.7315C127.121 83.0431 127.501 83.4922 127.776 84.0788C128.054 84.6655 128.193 85.3714 128.193 86.1967C128.193 87.022 128.056 87.7296 127.781 88.3196C127.506 88.9062 127.128 89.3587 126.647 89.6768C126.167 89.9917 125.618 90.1491 125.002 90.1491C124.538 90.1491 124.158 90.0713 123.863 89.9155C123.571 89.7597 123.343 89.5774 123.177 89.3686C123.011 89.1598 122.884 88.9742 122.794 88.8118H122.67V90H121.218ZM122.675 86.1818C122.675 86.7187 122.753 87.1894 122.909 87.5938C123.064 87.9981 123.29 88.3146 123.585 88.5433C123.88 88.7687 124.241 88.8814 124.669 88.8814C125.113 88.8814 125.484 88.7637 125.782 88.5284C126.08 88.2898 126.306 87.9666 126.458 87.5589C126.614 87.1513 126.692 86.6922 126.692 86.1818C126.692 85.678 126.616 85.2256 126.463 84.8246C126.314 84.4235 126.089 84.107 125.787 83.875C125.489 83.643 125.116 83.527 124.669 83.527C124.238 83.527 123.873 83.638 123.575 83.8601C123.28 84.0821 123.056 84.392 122.904 84.7898C122.751 85.1875 122.675 85.6515 122.675 86.1818ZM129.863 90V82.3636H131.349V90H129.863ZM130.613 81.1854C130.355 81.1854 130.133 81.0992 129.947 80.9268C129.765 80.7512 129.674 80.5424 129.674 80.3004C129.674 80.0552 129.765 79.8464 129.947 79.674C130.133 79.4983 130.355 79.4105 130.613 79.4105C130.872 79.4105 131.092 79.4983 131.275 79.674C131.46 79.8464 131.553 80.0552 131.553 80.3004C131.553 80.5424 131.46 80.7512 131.275 80.9268C131.092 81.0992 130.872 81.1854 130.613 81.1854ZM134.835 79.8182V90H133.349V79.8182H134.835ZM136.835 90V82.3636H138.322V90H136.835ZM137.586 81.1854C137.327 81.1854 137.105 81.0992 136.92 80.9268C136.737 80.7512 136.646 80.5424 136.646 80.3004C136.646 80.0552 136.737 79.8464 136.92 79.674C137.105 79.4983 137.327 79.4105 137.586 79.4105C137.844 79.4105 138.065 79.4983 138.247 79.674C138.433 79.8464 138.526 80.0552 138.526 80.3004C138.526 80.5424 138.433 80.7512 138.247 80.9268C138.065 81.0992 137.844 81.1854 137.586 81.1854ZM143.886 82.3636V83.5568H139.715V82.3636H143.886ZM140.834 80.5341H142.32V87.7578C142.32 88.0462 142.363 88.2633 142.449 88.4091C142.536 88.5516 142.647 88.6494 142.782 88.7024C142.922 88.7521 143.073 88.777 143.235 88.777C143.354 88.777 143.459 88.7687 143.548 88.7521C143.638 88.7356 143.707 88.7223 143.757 88.7124L144.025 89.9403C143.939 89.9735 143.817 90.0066 143.657 90.0398C143.498 90.0762 143.3 90.0961 143.061 90.0994C142.67 90.1061 142.305 90.0365 141.967 89.8906C141.629 89.7448 141.356 89.5194 141.147 89.2145C140.938 88.9096 140.834 88.5268 140.834 88.0661V80.5341ZM146.47 92.8636C146.248 92.8636 146.046 92.8454 145.864 92.8089C145.681 92.7758 145.545 92.7393 145.456 92.6996L145.814 91.4815C146.086 91.5545 146.328 91.5859 146.54 91.576C146.752 91.5661 146.939 91.4865 147.102 91.3374C147.267 91.1882 147.413 90.9446 147.539 90.6065L147.723 90.0994L144.929 82.3636H146.52L148.454 88.2898H148.533L150.467 82.3636H152.063L148.916 91.0192C148.77 91.4169 148.585 91.7533 148.359 92.0284C148.134 92.3068 147.866 92.5156 147.554 92.6548C147.242 92.794 146.881 92.8636 146.47 92.8636Z" fill="white"/>
<g filter="url(#filter1_d_7733_154)">
<path d="M322.727 93C322.027 93 321.455 92.4977 321.455 91.8837V78.1163C321.455 77.5023 322.027 77 322.727 77C323.427 77 324 77.5023 324 78.1163V91.8837C324 92.4977 323.427 93 322.727 93ZM318.273 91.8837V82.6558C318.273 82.0419 317.7 81.5395 317 81.5395C316.3 81.5395 315.727 82.0419 315.727 82.6558V91.8837C315.727 92.4977 316.3 93 317 93C317.7 93 318.273 92.4977 318.273 91.8837ZM312.545 91.8837V87.1953C312.545 86.5814 311.973 86.0791 311.273 86.0791C310.573 86.0791 310 86.5814 310 87.1953V91.8837C310 92.4977 310.573 93 311.273 93C311.973 93 312.545 92.4977 312.545 91.8837Z" fill="white"/>
</g>
<defs>
<filter id="filter0_d_7733_154" x="0" y="97" width="276" height="26" filterUnits="userSpaceOnUse" color-interpolation-filters="sRGB">
<feFlood flood-opacity="0" result="BackgroundImageFix"/>
<feColorMatrix in="SourceAlpha" type="matrix" values="0 0 0 0 0 0 0 0 0 0 0 0 0 0 0 0 0 0 127 0" result="hardAlpha"/>
<feOffset/>
<feGaussianBlur stdDeviation="5"/>
<feComposite in2="hardAlpha" operator="out"/>
<feColorMatrix type="matrix" values="0 0 0 0 0.258824 0 0 0 0 0.741176 0 0 0 0 0.67451 0 0 0 0.2 0"/>
<feBlend mode="normal" in2="BackgroundImageFix" result="effect1_dropShadow_7733_154"/>
<feBlend mode="normal" in="SourceGraphic" in2="effect1_dropShadow_7733_154" result="shape"/>
</filter>
<filter id="filter1_d_7733_154" x="290" y="57" width="54" height="56" filterUnits="userSpaceOnUse" color-interpolation-filters="sRGB">
<feFlood flood-opacity="0" result="BackgroundImageFix"/>
<feColorMatrix in="SourceAlpha" type="matrix" values="0 0 0 0 0 0 0 0 0 0 0 0 0 0 0 0 0 0 127 0" result="hardAlpha"/>
<feOffset/>
<feGaussianBlur stdDeviation="10"/>
<feComposite in2="hardAlpha" operator="out"/>
<feColorMatrix type="matrix" values="0 0 0 0 0.257184 0 0 0 0 0.741965 0 0 0 0 0.674947 0 0 0 0.3 0"/>
<feBlend mode="normal" in2="BackgroundImageFix" result="effect1_dropShadow_7733_154"/>
<feBlend mode="normal" in="SourceGraphic" in2="effect1_dropShadow_7733_154" result="shape"/>
</filter>
<linearGradient id="paint0_linear_7733_154" x1="10" y1="110" x2="266" y2="110" gradientUnits="userSpaceOnUse">
<stop stop-color="#17A28E"/>
<stop offset="1" stop-color="#42BDAC"/>
</linearGradient>
</defs>
</svg>
